<svg width="35" height="35" fill="none" xmlns="http://www.w3.org/2000/svg"><g clip-path="url(#clip0)"><path d="M20.706 17.529l13.629-13.63a2.265 2.265 0 000-3.205 2.265 2.265 0 00-3.207 0L17.5 14.322 3.872.694a2.265 2.265 0 00-3.207 0 2.264 2.264 0 000 3.206l13.628 13.629L.665 31.157a2.264 2.264 0 000 3.207 2.26 2.26 0 001.603.664c.58 0 1.161-.222 1.604-.664L17.5 20.735l13.628 13.629a2.261 2.261 0 001.604.664c.58 0 1.16-.222 1.603-.664a2.264 2.264 0 000-3.207L20.706 17.53z" fill="#fff"/></g><defs><clipPath id="clip0"><path fill="#fff" d="M0 0h35v35H0z"/></clipPath></defs></svg>