<svg width="30" height="22" fill="none" xmlns="http://www.w3.org/2000/svg"><g clip-path="url(#clip0)" fill="#fff"><path d="M5.814 12.121a1.239 1.239 0 000-2.476H1.238a1.238 1.238 0 100 2.476h4.576zm9.186 0a1.238 1.238 0 000-2.476h-4.576a1.238 1.238 0 100 2.476H15zM5.814 20.81a1.239 1.239 0 000-2.477H1.238a1.238 1.238 0 100 2.476h4.576zm9.186 0a1.238 1.238 0 000-2.477h-4.577a1.238 1.238 0 100 2.476h4.578zm9.185 0a1.238 1.238 0 100-2.477h-4.577a1.237 1.237 0 000 2.476h4.577zm.001-8.689a1.238 1.238 0 100-2.476h-4.578c-.682 0-1.235.555-1.235 1.238 0 .684.553 1.238 1.235 1.238h4.578zM5.814 3.363a1.238 1.238 0 000-2.475H1.238a1.238 1.238 0 100 2.475h4.576zm9.186 0a1.236 1.236 0 000-2.475h-4.576a1.238 1.238 0 100 2.475H15zm9.186 0a1.237 1.237 0 100-2.475h-4.578a1.237 1.237 0 000 2.475h4.578zM10.392 16.5a1.237 1.237 0 000-2.476H5.814a1.237 1.237 0 100 2.475l4.578.001zm9.186 0a1.237 1.237 0 000-2.476h-4.576c-.686 0-1.237.555-1.237 1.238 0 .684.551 1.238 1.237 1.237l4.576.001zm9.185 0a1.237 1.237 0 000-2.476h-4.577a1.237 1.237 0 000 2.475l4.577.001zM10.392 7.742a1.237 1.237 0 000-2.476H5.814a1.237 1.237 0 100 2.475l4.578.001zm9.186 0a1.238 1.238 0 000-2.476h-4.576c-.686 0-1.237.555-1.237 1.238 0 .684.551 1.238 1.237 1.237l4.576.001zm9.185 0a1.237 1.237 0 000-2.476h-4.577a1.237 1.237 0 000 2.475l4.577.001z"/></g><defs><clipPath id="clip0"><path fill="#fff" d="M0 0h30v22H0z"/></clipPath></defs></svg>