<svg width="201" height="193" fill="none" xmlns="http://www.w3.org/2000/svg"><g clip-path="url(#clip0)" fill="#fff"><path d="M24.142 105.4c-.388-3.104-.587-6.188-.587-8.9 0-40.486 34.781-73.883 76.945-73.883 19.667 0 38.08 7.614 51.624 19.488l-6.792 6.635c-1.53 1.47-2.119 3.618-1.53 5.655.707 1.921 2.355 3.392 4.474 3.844 1.186.229 40.128 12.278 37.648 11.8 3.155 1.008 7.819-2.223 6.95-6.673-.239-1.14-8.861-42.676-8.362-40.297-.471-2.035-2.003-3.731-4.122-4.296-2.002-.566-4.241 0-5.771 1.47l-5.771 5.427C151.064 9.726 126.645 0 100.5 0 45.265 0 0 43.463 0 96.5v.225c0 3.188.152 5.652.328 7.536.235 2.498 2.152 4.543 4.713 5.036l12.098 2.322c3.938.757 7.478-2.413 7.003-6.219zm171.853-21.706l-12.133-2.374c-3.943-.771-7.508 2.402-7.024 6.226.42 3.3.607 6.508.607 8.954 0 40.484-34.781 73.883-76.945 73.883-19.667 0-38.08-7.614-51.624-19.602l6.792-6.521c1.53-1.47 2.12-3.618 1.53-5.655-.707-1.923-2.355-3.392-4.474-3.844-1.186-.23-40.128-12.278-37.648-11.799-2.003-.339-4.006.227-5.3 1.583-1.414 1.244-2.003 3.279-1.65 5.089.24 1.138 8.862 42.298 8.364 39.918.47 2.037 2.001 3.733 4.12 4.297 2.459.592 4.51-.124 5.771-1.47l5.654-5.427C49.818 182.897 74.237 193 100.5 193c55.235 0 100.5-43.463 100.5-96.5v-.34c0-2.506-.095-4.967-.313-7.413-.224-2.498-2.133-4.551-4.692-5.053z"/></g><defs><clipPath id="clip0"><path fill="#fff" d="M0 0h201v193H0z"/></clipPath></defs></svg>