<svg width="25" height="25" fill="none" xmlns="http://www.w3.org/2000/svg"><g clip-path="url(#clip0)"><path d="M24.695 23.223l-7.11-7.11a9.848 9.848 0 002.206-6.216C19.791 4.44 15.351 0 9.896 0 4.44.001 0 4.441 0 9.897s4.44 9.895 9.896 9.895a9.847 9.847 0 006.216-2.206l7.11 7.11a1.04 1.04 0 001.473 0 1.04 1.04 0 000-1.473zm-14.8-5.514c-4.308 0-7.812-3.504-7.812-7.812 0-4.309 3.504-7.813 7.813-7.813 4.308 0 7.812 3.504 7.812 7.813 0 4.308-3.504 7.812-7.812 7.812z" fill="#fff"/></g><defs><clipPath id="clip0"><path fill="#fff" d="M0 0h25v25H0z"/></clipPath></defs></svg>