<svg width="25" height="62" fill="none" xmlns="http://www.w3.org/2000/svg"><path d="M20.007 41.312l-.003-34.4C20.004 3.098 16.642 0 12.497 0S4.995 3.097 4.995 6.913v34.396C1.968 43.411 0 46.735 0 50.495 0 56.85 5.596 62 12.5 62c6.901 0 12.498-5.15 12.498-11.505.002-3.76-1.966-7.084-4.99-9.183zm-7.506 16.469c-4.371 0-7.914-3.261-7.914-7.285 0-3.063 2.053-5.681 4.966-6.759V7.13c0-1.503 1.318-2.719 2.95-2.719 1.628 0 2.95 1.216 2.95 2.719v2.86h-2.36c-.575 0-1.041.429-1.041.96 0 .528.466.959 1.04.96h2.359v5.517h-2.359c-.575 0-1.04.43-1.04.96 0 .528.466.96 1.04.96h2.359v24.388c2.91 1.077 4.964 3.696 4.964 6.759 0 4.025-3.543 7.286-7.914 7.286z" fill="#fff"/><path d="M13.78 45.688v-20.57c0-.653-.57-1.183-1.28-1.183-.707 0-1.282.53-1.282 1.182v20.571c-2.359.532-4.11 2.472-4.11 4.806 0 2.742 2.413 4.965 5.393 4.965 2.981 0 5.39-2.222 5.39-4.965 0-2.334-1.755-4.274-4.11-4.806z" fill="#fff"/></svg>