<svg width="32" height="26" fill="none" xmlns="http://www.w3.org/2000/svg"><g clip-path="url(#clip0)" fill="#fff"><path d="M15.614 15.751c.292-.465.12-1.057-.387-1.323-.508-.268-1.155-.109-1.447.353l-3.858 5.935-1.593 2.526c-.402.638-.797.816-1.421.816-.862 0-1.558-.637-1.558-1.425 0-.714.578-1.3 1.328-1.402l-.001-.007c.55-.065.89-.643.755-1.156-.14-.522-.716-.845-1.29-.718v.002c-1.658.324-2.903 1.67-2.903 3.286C3.239 24.494 4.884 26 6.913 26c1.094 0 2.065-.396 2.739-1.113.777 1.083 2.351 1.439 3.597.785 1.124-.592 1.607-1.81 1.225-2.897l.002-.001c-.122-.38-.557-.599-.973-.488-.406.109-.685.518-.529.863l-.006.001c.205.475.008 1.027-.49 1.288-.546.287-1.247.115-1.562-.387-.198-.317-.24-.581-.05-.951a970.209 970.209 0 014.748-7.348zm1.6 3.352c-.305.49-.28.798-.034 1.174.334.518 1.064.691 1.63.382.513-.279.712-.854.493-1.345l.005-.002c-.168-.357.115-.787.54-.904.43-.12.885.101 1.017.495h-.002c.414 1.125-.072 2.403-1.234 3.03-1.338.723-3.061.32-3.849-.905-.518-.8-.55-1.721-.06-2.515.42-.68 2.46-3.84 2.46-3.84.219-.355.715-.483 1.105-.283.387.203.524.655.306 1.01l-2.377 3.703z"/><path d="M23.959 9.338c1.073-.398 2.146-.366 2.454-.366 1.54 0 3.402 1.233 3.402 3.257 0 1.72-1.525 3.112-3.402 3.112h-3.839c-.575 0-1.04.428-1.04.954 0 .524.465.95 1.04.95h3.835c3.087 0 5.591-2.29 5.591-5.115 0 0 .027-5.108-5.849-5.108-1.27-4.786-6.164-5.028-7.539-4.691C17.125.974 14.646-.021 12.141-.021c-4.97 0-9.043 3.515-9.41 7.977C1.1 8.816 0 10.425 0 12.27c0 2.748 2.435 4.976 5.439 4.976h3.883c.473 0 .915-.466.915-.953 0-.525-.467-.951-1.042-.951H5.91c-2.032 0-3.53-1.346-3.53-3.085 0-1.421.984-2.668 2.526-3.093.185-6.716 6.634-7.06 7.351-7.06 2.13 0 4.245.957 5.605 2.372 2.75-.827 6.518 1.112 6.097 4.862z"/></g><defs><clipPath id="clip0"><path fill="#fff" d="M0 0h32v26H0z"/></clipPath></defs></svg>