<svg width="55" height="55" fill="none" xmlns="http://www.w3.org/2000/svg"><g clip-path="url(#clip0)" fill="#fff"><path d="M30.784 2.403C30.784 1.077 29.693 0 28.347 0c-1.346 0-2.44 1.077-2.44 2.403v5.339c0 1.326 1.094 2.404 2.44 2.404 1.346 0 2.437-1.078 2.437-2.404v-5.34zM11.761 8.159a2.466 2.466 0 00-3.45 0 2.379 2.379 0 000 3.399l3.832 3.773a2.466 2.466 0 003.45 0 2.376 2.376 0 000-3.396L11.76 8.159zM2.44 24.669c-1.347 0-2.44 1.076-2.44 2.403 0 1.326 1.094 2.403 2.439 2.403h5.419c1.346 0 2.438-1.077 2.438-2.405 0-1.325-1.092-2.401-2.438-2.401H2.44zm5.841 19.554a2.377 2.377 0 000 3.398 2.468 2.468 0 003.45 0l3.83-3.775a2.375 2.375 0 000-3.397 2.468 2.468 0 00-3.448 0L8.28 44.224zm17.582 8.373c0 1.326 1.091 2.404 2.439 2.404 1.346-.003 2.44-1.078 2.44-2.404v-5.339c0-1.326-1.094-2.403-2.44-2.403-1.345 0-2.44 1.078-2.44 2.402v5.34zm19.024-4.943c.95.939 2.497.939 3.449 0a2.384 2.384 0 000-3.397l-3.831-3.775a2.467 2.467 0 00-3.449 0 2.376 2.376 0 000 3.396l3.831 3.776zm7.673-17.322c1.349 0 2.44-1.078 2.44-2.403 0-1.327-1.091-2.404-2.438-2.404h-5.418c-1.346 0-2.44 1.075-2.44 2.404 0 1.325 1.094 2.403 2.44 2.4l5.416.003zm-4.194-18.744a2.37 2.37 0 000-3.396 2.464 2.464 0 00-3.449 0l-3.83 3.775a2.377 2.377 0 000 3.398 2.464 2.464 0 003.449 0l3.83-3.777zm-20.019 1.434c-8.373 0-15.158 6.686-15.158 14.937 0 8.25 6.787 14.936 15.158 14.936 8.374 0 15.16-6.686 15.16-14.936S36.721 13.02 28.347 13.02zm0 25.104c-5.7 0-10.322-4.553-10.322-10.167s4.621-10.17 10.322-10.17c5.702 0 10.322 4.556 10.322 10.17s-4.623 10.167-10.322 10.167z"/></g><defs><clipPath id="clip0"><path fill="#fff" d="M0 0h55v55H0z"/></clipPath></defs></svg>