<svg width="50" height="55" fill="none" xmlns="http://www.w3.org/2000/svg"><g clip-path="url(#clip0)"><path d="M.131 24.276c-1.43 15.332 9.19 29.015 23.877 30.58 9.094.97 17.529-3.004 23.09-9.7 5.154-6.175-.611-6.144-2.724-6.372-21.73-2.979-25.28-25.533-21.89-34.667 1.077-4.39-1.15-4.412-2.917-3.88 0 0-17.772 5.042-19.436 24.039zM24.637 48.42C13.357 47.217 5.149 36.7 6.299 24.933c.655-6.672 4.23-12.505 9.216-15.92-2.454 15.11 8.539 32.76 24.258 34.486-4 3.187-9.733 5.495-15.136 4.921z" fill="#fff"/></g><defs><clipPath id="clip0"><path fill="#fff" d="M0 0h50v55H0z"/></clipPath></defs></svg>