<svg width="75" height="55" fill="none" xmlns="http://www.w3.org/2000/svg"><g clip-path="url(#clip0)" fill="#fff"><path d="M51.094 10.403c1.14 0 2.06-1.104 2.06-2.464V2.464c0-1.362-.92-2.464-2.06-2.464-1.136 0-2.06 1.104-2.06 2.464v5.473c0 1.362.924 2.466 2.06 2.466zm-13.687 5.319c.804.961 2.108.961 2.914 0 .804-.963.804-2.524 0-3.485l-3.235-3.87c-.804-.963-2.111-.963-2.915 0-.803.963-.803 2.523 0 3.485l3.236 3.87zm27.335 25.792c-.804-.963-2.108-.963-2.912 0-.803.962-.803 2.52 0 3.483l3.234 3.869c.804.965 2.109.965 2.912 0 .804-.962.804-2.522 0-3.483l-3.234-3.869zm8.198-15.339h-4.576c-1.138 0-2.062 1.106-2.062 2.464 0 1.362.924 2.464 2.062 2.464h4.576c1.136 0 2.06-1.102 2.06-2.464 0-1.36-.924-2.464-2.06-2.464zm-8.17-10.421l3.235-3.87c.806-.963.806-2.525 0-3.486-.804-.963-2.108-.963-2.914 0l-3.233 3.87c-.804.961-.804 2.523 0 3.486.803.962 2.108.962 2.911 0z"/><path d="M63.901 28.67c0-8.458-5.736-15.316-12.807-15.316-4.152 0-7.839 2.368-10.18 6.034-2.617-1.112-5.13-1.032-6.29-.656-2.772-3.3-7.382-5.72-12.041-5.72-9.244 0-16.824 8.55-17.504 19.4C2.046 34.498 0 38.415 0 42.9 0 49.584 4.53 55 10.118 55h39.005c5.744 0 10.399-5.571 10.399-12.439 0 0 .003-.877-.199-2.165 2.8-2.81 4.578-7.019 4.578-11.726zM49.135 50.367h-38.14c-3.78 0-6.569-3.268-6.569-7.5 0-3.452 1.838-6.486 4.706-7.524.339-16.334 12.337-17.166 13.67-17.166 3.963 0 7.898 2.323 10.424 5.765 5.116-2.01 12.128 2.707 11.345 11.832 1.995-.97 3.994-.895 4.567-.895 2.86 0 6.323 2.998 6.323 7.92 0 4.182-2.835 7.568-6.326 7.568zm-.49-20.228c-.787-3.883-2.327-6.534-4.123-8.318 1.6-2.192 3.95-3.58 6.572-3.58 4.816 0 8.715 4.673 8.715 10.43 0 2.57-.78 4.931-2.077 6.75-3.063-5.799-9.087-5.282-9.087-5.282z"/></g><defs><clipPath id="clip0"><path fill="#fff" d="M0 0h75v55H0z"/></clipPath></defs></svg>