<svg width="70" height="56" fill="none" xmlns="http://www.w3.org/2000/svg"><path d="M49.088 55.087c5.737 0 10.389-5.543 10.389-12.38 0 0 .005-1.592-.488-3.635 3.822-.859 7.227-3.289 9.715-6.713 3.235-4.426-.453-4.33-1.707-4.566-7.41-1.085-17.42-10.285-13.74-24.843.798-3.126-.722-3.159-1.83-2.78 0 0-11.558 3.055-12.28 18.89-1.943-.48-3.655-.367-4.551-.079-2.769-3.282-7.375-5.693-12.034-5.693-9.24 0-16.81 8.512-17.491 19.312C2.041 34.678 0 38.576 0 43.041c0 6.656 4.523 12.046 10.107 12.046h38.98zm-38.106-4.612c-3.778 0-6.562-3.255-6.562-7.468 0-3.44 1.835-6.459 4.7-7.489.34-16.262 12.328-17.092 13.66-17.092 3.96 0 7.89 2.314 10.419 5.74 5.11-2 12.115 2.695 11.333 11.774 1.995-.964 3.99-.887 4.561-.887 2.867 0 6.324 2.984 6.324 7.886 0 4.163-2.83 7.535-6.324 7.535H10.982v.001zm46.144-15.828c-1.565-2.354-4.179-4.307-8.516-4.307-.988-4.841-3.148-7.76-5.515-9.46-.597-8.164 3.671-12.872 5.792-14.42-1.7 10.492 5.36 23.481 15.224 24.716-1.893 1.717-4.41 3.083-6.985 3.472z" fill="#fff"/></svg>