<svg width="72" height="44" fill="none" xmlns="http://www.w3.org/2000/svg"><path d="M63.802 12.877c-1.78-8.753-8.641-9.195-10.567-8.578C51.153 1.82 47.677 0 44.165 0 39.8 0 35.922 2.528 33.512 6.426 30.706 3.796 26.7 1.98 22.648 1.98c-9.273 0-16.87 8.556-17.554 19.416C2.05 23.483 0 27.4 0 31.892 0 38.58 4.542 44 10.146 44H49.27c5.757 0 10.423-5.566 10.433-12.433h4.461c4.326 0 7.836-4.185 7.836-9.35 0 0 .036-9.34-8.198-9.34zM49.279 39.364H11.024c-3.787 0-6.585-3.273-6.585-7.508 0-3.457 1.84-6.494 4.718-7.529.34-16.346 12.372-17.181 13.71-17.181 3.974 0 7.92 2.325 10.457 5.77 5.13-2.012 12.161 2.713 11.377 11.839 2-.968 4.006-.893 4.58-.893 2.872 0 6.348 3.001 6.348 7.927-.003 4.185-2.847 7.575-6.35 7.575zm14.89-11.28h-4.914c-.851-3.68-3.315-8.964-10.463-8.964-1.883-9.265-8.046-11.535-11.78-11.662 2.81-3.32 6.682-3.575 7.317-3.575 2.985 0 5.947 1.749 7.856 4.335 3.852-1.511 9.136 2.034 8.544 8.892 1.505-.724 3.013-.668 3.44-.668 2.159 0 4.767 2.255 4.767 5.952 0 3.144-2.135 5.69-4.766 5.69z" fill="#fff"/></svg>