<svg width="75" height="70" fill="none" xmlns="http://www.w3.org/2000/svg"><path d="M53.213 2.462c0-1.361-.922-2.462-2.056-2.462-1.133 0-2.053 1.1-2.053 2.462v5.473c0 1.36.92 2.463 2.053 2.463 1.134 0 2.056-1.103 2.056-2.463V2.462zM37.184 8.363c-.8-.958-2.1-.958-2.903 0-.802.964-.802 2.522 0 3.484l3.227 3.871c.802.964 2.104.964 2.906 0 .801-.963.801-2.52-.001-3.483l-3.228-3.872zm27.908 40.498c.8.965 2.102.965 2.905.002.803-.964.803-2.522 0-3.484l-3.228-3.87c-.802-.962-2.102-.962-2.904 0s-.802 2.52 0 3.482l3.227 3.87zM72.944 31.1c1.135 0 2.056-1.104 2.056-2.464 0-1.36-.92-2.464-2.056-2.464h-4.562c-1.133 0-2.056 1.104-2.056 2.464 0 1.36.923 2.464 2.056 2.462l4.562.002zm-4.921-19.22c.801-.962.805-2.523 0-3.483-.799-.964-2.101-.964-2.904 0l-3.226 3.87c-.805.961-.805 2.521 0 3.483.802.962 2.1.962 2.902 0l3.228-3.87z" fill="#fff"/><path d="M63.93 28.668c0-8.46-5.716-15.32-12.773-15.32-4.168 0-7.87 2.397-10.2 6.102-2.62-1.117-5.135-1.036-6.297-.661-2.772-3.308-7.387-5.74-12.054-5.74-9.256 0-16.84 8.579-17.521 19.472C2.046 34.621 0 38.546 0 43.051 0 49.763 4.535 55.2 10.127 55.2h1.365c.947 0 1.702-1.14 1.702-2.327 0-1.284-.87-2.323-1.939-2.323h-.252c-3.782 0-6.574-3.28-6.574-7.53 0-3.47 1.837-6.51 4.708-7.55.343-16.395 12.351-17.231 13.686-17.231 3.967 0 7.904 2.333 10.436 5.788 5.12-2.019 12.14 2.719 11.355 11.873 1.997-.973 3.998-.895 4.57-.895 2.866 0 6.336 3.009 6.336 7.95 0 4.196-2.84 7.598-6.336 7.598h-.279c-1.069 0-1.938 1.044-1.938 2.327 0 1.282.87 2.323 1.938 2.323h.27c5.75 0 10.411-5.59 10.411-12.484 0 0 .003-.946-.218-2.315 2.788-2.816 4.561-7.029 4.561-11.737zm-6.18 6.793c-1.485-2.743-4.179-5.219-9.053-5.219-.79-3.904-2.337-6.575-4.142-8.363 1.596-2.23 3.962-3.64 6.602-3.64 4.8 0 8.696 4.668 8.696 10.43 0 2.593-.792 4.966-2.102 6.792zm7.006 6.106c-.804-.962-2.105-.962-2.912 0-.801.963-.801 2.527 0 3.488l3.233 3.875c.804.965 2.106.965 2.91.002.801-.963.801-2.527 0-3.488l-3.23-3.877zm8.185-15.358h-4.568c-1.135 0-2.056 1.105-2.056 2.467 0 1.363.92 2.465 2.056 2.465h4.568c1.138 0 2.059-1.102 2.059-2.465 0-1.362-.92-2.467-2.059-2.467z" fill="#fff"/><path d="M22.26 51.677c.569-1.182.23-2.69-.754-3.371-.983-.681-2.242-.276-2.81.904l-2.283 4.746c-.57 1.18-.23 2.686.754 3.369.984.682 2.242.276 2.81-.902l2.283-4.746zm10.664 0c.568-1.182.23-2.69-.754-3.371-.985-.681-2.243-.276-2.811.904l-2.285 4.746c-.567 1.18-.23 2.686.753 3.369.983.682 2.243.276 2.81-.902l2.287-4.746zM23.483 64.02c.568-1.18.23-2.688-.753-3.372-.984-.68-2.242-.274-2.811.904l-2.285 4.746c-.57 1.181-.232 2.69.752 3.37.986.682 2.242.278 2.811-.901l2.286-4.746zm20.102-12.343c.568-1.182.232-2.69-.752-3.371s-2.242-.276-2.811.904l-2.284 4.746c-.569 1.18-.231 2.686.753 3.369.984.682 2.242.276 2.81-.902l2.284-4.746zM34.147 64.02c.567-1.18.228-2.688-.755-3.372-.985-.68-2.243-.274-2.81.904l-2.285 4.746c-.568 1.181-.23 2.69.755 3.37.983.682 2.243.278 2.808-.901l2.287-4.746z" fill="#fff"/></svg>