<svg width="75" height="82" fill="none" xmlns="http://www.w3.org/2000/svg"><g clip-path="url(#clip0)" fill="#fff"><path d="M65.093 48.064c.802.95 2.101.95 2.903 0 .802-.946.802-2.479 0-3.425l-3.228-3.807c-.802-.946-2.1-.946-2.905 0-.8.947-.8 2.48 0 3.425l3.23 3.807zM53.211 2.422c0-1.34-.918-2.422-2.053-2.422-1.134 0-2.052 1.083-2.052 2.422v5.384c0 1.336.918 2.422 2.052 2.422 1.135 0 2.053-1.086 2.053-2.422V2.422zM37.187 8.229c-.802-.946-2.104-.946-2.906-.004-.799.95-.799 2.481 0 3.427l3.224 3.807c.807.946 2.107.946 2.91 0 .801-.95.801-2.477-.004-3.427L37.188 8.23zm35.757 22.364c1.138 0 2.056-1.086 2.056-2.425 0-1.337-.918-2.422-2.056-2.422H68.38c-1.13 0-2.051 1.085-2.051 2.422 0 1.34.92 2.425 2.052 2.422l4.563.003zM68.02 11.686c.808-.946.808-2.479 0-3.428-.798-.946-2.1-.946-2.902 0l-3.225 3.807c-.804.946-.804 2.482 0 3.428.802.946 2.104.946 2.903 0l3.225-3.807z"/><path d="M63.928 28.2c0-8.321-5.715-15.067-12.771-15.067-4.167 0-7.87 2.355-10.198 6-2.621-1.099-5.137-1.02-6.298-.65-2.775-3.255-7.387-5.646-12.053-5.646-9.253 0-16.84 8.437-17.523 19.154C2.05 34.057 0 37.918 0 42.347 0 48.95 4.535 54.3 10.13 54.3h1.365c.946 0 1.7-1.12 1.7-2.289 0-1.263-.867-2.285-1.937-2.285h-.254c-3.781 0-6.574-3.227-6.574-7.408 0-3.413 1.838-6.403 4.707-7.425.342-16.13 12.354-16.952 13.687-16.952 3.967 0 7.902 2.296 10.436 5.693 5.12-1.985 12.141 2.676 11.35 11.68 2-.955 4.002-.88 4.572-.88 2.871 0 6.336 2.96 6.336 7.82 0 4.128-2.84 7.475-6.336 7.475h-.277c-1.07 0-1.94 1.027-1.94 2.289 0 1.26.87 2.285 1.94 2.285h.269c5.751 0 10.41-5.499 10.41-12.28 0 0 .003-.93-.218-2.28 2.79-2.768 4.562-6.912 4.562-11.543zm-6.174 6.683c-1.488-2.699-4.182-5.134-9.056-5.134-.79-3.84-2.337-6.468-4.142-8.227 1.596-2.194 3.962-3.58 6.602-3.58 4.8 0 8.697 4.593 8.697 10.26-.001 2.55-.793 4.885-2.101 6.68zm7 6.007c-.802-.947-2.104-.947-2.909 0-.802.949-.802 2.485.003 3.43l3.231 3.814c.805.946 2.103.946 2.91 0 .802-.949.802-2.485 0-3.431l-3.235-3.814zm8.187-15.11h-4.569c-1.135 0-2.056 1.089-2.056 2.428 0 1.338.92 2.426 2.056 2.426h4.57c1.138 0 2.058-1.088 2.058-2.426 0-1.34-.92-2.428-2.059-2.428z"/><path d="M23.134 50.833c.57-1.16.234-2.642-.751-3.315-.985-.67-2.242-.273-2.813.89l-2.281 4.666c-.57 1.163-.235 2.645.75 3.318.99.67 2.247.27 2.81-.889l2.285-4.67zm-6.238 12.058c.566-1.162.232-2.645-.755-3.314-.982-.673-2.245-.277-2.81.889l-2.286 4.667c-.567 1.162-.228 2.645.757 3.314.982.67 2.239.273 2.81-.889l2.284-4.667zm15.932-12.058c.564-1.16.228-2.642-.754-3.315-.985-.67-2.242-.273-2.813.89l-2.281 4.666c-.57 1.163-.232 2.645.75 3.318.986.67 2.245.27 2.813-.889l2.285-4.67zm-6.241 12.643c.568-1.162.231-2.645-.754-3.314-.985-.672-2.244-.273-2.81.89l-2.287 4.668c-.563 1.162-.229 2.644.76 3.313.98.672 2.24.273 2.804-.89l2.287-4.667zm-6.192 12.642c.567-1.162.235-2.648-.754-3.317-.983-.67-2.24-.27-2.81.889l-2.28 4.67c-.57 1.16-.234 2.645.75 3.315.986.67 2.243.273 2.81-.89l2.284-4.666zm22.123-25.285c.568-1.16.232-2.642-.753-3.315-.986-.67-2.245-.273-2.81.89l-2.285 4.666c-.57 1.163-.231 2.645.754 3.318.983.67 2.242.27 2.81-.889l2.284-4.67zm-6.24 12.643c.568-1.162.231-2.645-.754-3.314-.982-.672-2.242-.273-2.81.89l-2.287 4.668c-.567 1.162-.231 2.644.754 3.313.982.672 2.244.273 2.81-.89l2.287-4.667z"/></g><defs><clipPath id="clip0"><path fill="#fff" d="M0 0h75v82H0z"/></clipPath></defs></svg>