<svg width="70" height="82" fill="none" xmlns="http://www.w3.org/2000/svg"><g clip-path="url(#clip0)" fill="#fff"><path d="M39.147 18.832c-1.944-.476-3.653-.363-4.552-.08-2.767-3.242-7.37-5.623-12.032-5.623-9.238 0-16.804 8.406-17.488 19.075C2.045 34.258 0 38.103 0 42.515 0 49.087 4.528 54.41 10.11 54.41h1.556c.955 0 1.699-1.114 1.699-2.277 0-1.255-.869-2.277-1.935-2.277h-.445c-3.774 0-6.559-3.212-6.559-7.374 0-3.4 1.833-6.38 4.697-7.394.34-16.064 12.329-16.883 13.66-16.883 3.96 0 7.888 2.287 10.413 5.67 5.112-1.976 12.115 2.663 11.334 11.628 1.994-.952 3.99-.876 4.56-.876 2.863 0 6.324 2.946 6.324 7.786 0 4.11-2.833 7.44-6.324 7.44h-.316c-1.068 0-1.935 1.025-1.935 2.28 0 1.257.867 2.274 1.935 2.274h.312c5.74 0 10.39-5.473 10.39-12.229 0 0 .01-1.575-.487-3.59 3.819-.848 7.225-3.248 9.715-6.632 3.235-4.37-.453-4.28-1.71-4.509C59.588 26.374 49.577 17.29 53.257 2.91c.8-3.086-.718-3.122-1.828-2.745-.003.01-11.56 3.025-12.281 18.668zm9.737-12.45c-1.702 10.364 5.356 23.19 15.22 24.412-1.892 1.701-4.407 3.049-6.984 3.434-1.565-2.326-4.173-4.259-8.515-4.259-.988-4.778-3.146-7.661-5.516-9.34-.594-8.066 3.674-12.716 5.795-14.246z"/><path d="M23.09 50.967c.57-1.156.232-2.634-.75-3.302-.983-.668-2.24-.274-2.805.883l-2.282 4.65c-.564 1.156-.23 2.634.753 3.3.983.669 2.242.273 2.805-.882l2.28-4.649zm-6.228 12.005c.569-1.157.23-2.635-.749-3.302-.987-.668-2.243-.271-2.807.885l-2.281 4.649c-.57 1.158-.229 2.636.754 3.302.982.666 2.236.272 2.802-.888l2.28-4.646zm15.901-12.005c.567-1.156.231-2.634-.748-3.302-.983-.668-2.239-.274-2.808.883l-2.28 4.65c-.57 1.156-.232 2.634.752 3.3.985.669 2.239.273 2.807-.882l2.277-4.649zm-6.226 12.585c.566-1.156.228-2.633-.758-3.3-.98-.667-2.236-.273-2.802.887l-2.28 4.647c-.563 1.156-.23 2.635.752 3.301.982.666 2.238.272 2.804-.883l2.284-4.652zm-6.181 12.59c.57-1.16.231-2.638-.751-3.303-.984-.666-2.24-.268-2.805.885l-2.278 4.65c-.57 1.156-.234 2.635.749 3.3.982.67 2.238.273 2.804-.885l2.281-4.647zm22.08-25.175c.569-1.156.23-2.634-.752-3.302-.982-.668-2.238-.274-2.807.883l-2.278 4.65c-.566 1.156-.231 2.634.754 3.3.983.669 2.236.273 2.802-.882l2.281-4.649zm-6.229 12.585c.569-1.156.23-2.633-.752-3.3-.98-.667-2.238-.273-2.804.887l-2.28 4.647c-.569 1.156-.23 2.635.754 3.301.98.666 2.236.272 2.802-.883l2.28-4.652z"/></g><defs><clipPath id="clip0"><path fill="#fff" d="M0 0h70v82H0z"/></clipPath></defs></svg>