<svg width="60" height="64" fill="none" xmlns="http://www.w3.org/2000/svg"><g clip-path="url(#clip0)" fill="#fff"><path d="M26.961 51.555C26.571 52.273 19.996 64 19.996 64l12.38-12.65c.742-.766.688-.973.167-2.099-.366-.807-1.61-3.527-1.919-4.18-.358-.747-.409-.73-.043-1.424.361-.697 7.62-15.015 7.62-15.015s-11.668 11.786-12.628 12.76c-1.371 1.393-1.35 1.658-.64 3.477.363.927 1.826 4.622 2.103 5.24.296.654.375.624-.075 1.446z"/><path d="M44.92 22.554c2.013-.959 4.026-.882 4.603-.882 2.889 0 6.377 2.97 6.377 7.848 0 4.144-2.857 7.504-6.377 7.504H39.486c-1.078 0-1.95 1.03-1.95 2.299 0 1.263.872 2.29 1.95 2.29h10.03C55.305 41.612 60 36.095 60 29.284c0 0 .05-12.313-10.964-12.313C46.654 5.438 37.473 4.853 34.901 5.668 32.105 2.399 27.457 0 22.76 0 13.438 0 5.804 8.472 5.116 19.226 2.059 21.296 0 25.175 0 29.619c0 6.625 4.563 11.993 10.195 11.993h9.699c.886 0 1.715-1.123 1.715-2.294 0-1.268-.876-2.294-1.951-2.294h-8.583c-3.805 0-6.616-3.242-6.616-7.437 0-3.425 1.848-6.427 4.74-7.452.344-16.19 12.436-17.018 13.78-17.018 3.995 0 7.956 2.305 10.506 5.717 5.156-1.994 12.225 2.681 11.434 11.72z"/></g><defs><clipPath id="clip0"><path fill="#fff" d="M0 0h60v64H0z"/></clipPath></defs></svg>