<svg width="71" height="68" fill="none" xmlns="http://www.w3.org/2000/svg"><g clip-path="url(#clip0)" fill="#fff"><path d="M33.56 53.229l-1.322-.889 1.322-.889c.454-.305.61-.984.345-1.517-.263-.533-.847-.712-1.3-.407l-1.319.89v-1.778c0-.613-.426-1.112-.955-1.112-.525 0-.95.5-.95 1.112v1.777l-1.32-.889c-.46-.307-1.04-.123-1.302.407-.264.53-.11 1.209.348 1.517l1.316.889-1.316.889c-.457.307-.612.986-.348 1.517.262.532.841.712 1.302.407l1.32-.887v1.775c0 .616.425 1.112.95 1.112.529 0 .955-.496.955-1.112v-1.775l1.319.887c.452.305 1.037.125 1.3-.407.264-.53.11-1.209-.345-1.517zm10.349 0l-1.32-.889 1.32-.889c.454-.305.61-.984.348-1.517-.263-.533-.849-.712-1.302-.407l-1.32.89v-1.778c0-.613-.428-1.112-.95-1.112-.532 0-.96.5-.96 1.112v1.777l-1.323-.889c-.448-.307-1.028-.123-1.299.407-.262.53-.103 1.209.349 1.517l1.323.889-1.323.889c-.452.307-.61.986-.349 1.517.264.532.846.712 1.3.407l1.322-.887v1.775c0 .616.428 1.112.96 1.112.522 0 .95-.496.95-1.112v-1.775l1.32.887c.449.305 1.034.125 1.302-.407.26-.53.106-1.209-.348-1.517zm-20.697 0l-1.32-.889 1.32-.889c.455-.305.611-.984.349-1.517-.264-.533-.846-.712-1.303-.407l-1.322.89v-1.778c0-.613-.424-1.112-.952-1.112s-.954.5-.954 1.112v1.777l-1.32-.889c-.454-.307-1.034-.123-1.299.407-.265.53-.106 1.209.349 1.517l1.318.889-1.318.889c-.455.307-.612.986-.349 1.517.262.532.842.712 1.3.407l1.32-.887v1.775c0 .616.425 1.112.953 1.112s.952-.496.952-1.112v-1.775l1.322.887c.454.305 1.037.125 1.303-.407.262-.53.106-1.209-.349-1.517zm4.981 10.841l-1.322-.892 1.322-.89c.454-.305.612-.98.348-1.517-.262-.53-.844-.711-1.302-.406l-1.32.89v-1.777c0-.613-.428-1.111-.953-1.111-.526 0-.95.498-.95 1.11v1.778l-1.32-.888c-.458-.306-1.04-.124-1.307.406-.262.533-.102 1.209.349 1.517l1.32.89-1.32.89c-.45.305-.611.981-.349 1.516.264.533.846.715 1.306.406l1.32-.889v1.78c0 .614.425 1.112.95 1.112.526 0 .954-.499.954-1.111v-1.78l1.32.888c.455.309 1.038.125 1.302-.406.265-.532.106-1.21-.348-1.516zm9.903 0l-1.323-.892 1.323-.89c.454-.305.612-.98.346-1.517-.263-.53-.844-.711-1.3-.406l-1.32.89v-1.777c0-.613-.425-1.111-.956-1.111-.526 0-.953.498-.953 1.11v1.778l-1.318-.888c-.457-.306-1.04-.124-1.305.406-.263.533-.105 1.209.349 1.517l1.32.89-1.32.89c-.454.305-.612.981-.349 1.516.263.533.845.715 1.303.406l1.32-.889v1.78c0 .614.428 1.112.953 1.112.531 0 .956-.499.956-1.111v-1.78l1.32.888c.452.309 1.037.125 1.3-.406.266-.535.108-1.21-.346-1.516z"/><path d="M39.71 18.91c-1.971-.478-3.705-.366-4.617-.08-2.81-3.256-7.483-5.65-12.205-5.65-9.372 0-17.047 8.445-17.741 19.162C2.073 34.407 0 38.269 0 42.703c0 6.6 4.59 11.95 10.251 11.95h1.433c.966 0 1.72-1.118 1.72-2.287 0-1.264-.876-2.286-1.96-2.286h-.303c-3.831 0-6.657-3.23-6.657-7.41 0-3.416 1.863-6.41 4.768-7.43.345-16.134 12.506-16.96 13.857-16.96 4.016 0 7.999 2.298 10.565 5.697 5.184-1.985 12.29 2.675 11.498 11.684 2.022-.957 4.045-.882 4.625-.882 2.902 0 6.415 2.96 6.415 7.82 0 4.13-2.875 7.48-6.415 7.48h-.3c-1.08 0-1.96 1.026-1.96 2.287s.88 2.283 1.96 2.283h.289c5.824 0 10.54-5.497 10.54-12.285 0 0 .01-1.581-.494-3.606 3.874-.853 7.33-3.262 9.855-6.662 3.279-4.388-.462-4.297-1.734-4.528-7.515-1.079-17.67-10.205-13.937-24.652.812-3.1-.726-3.134-1.854-2.757.005.005-11.72 3.035-12.452 18.75zm9.875-12.508c-1.72 10.411 5.434 23.296 15.445 24.523-1.922 1.71-4.473 3.063-7.087 3.448-1.593-2.337-4.236-4.275-8.638-4.275-1-4.801-3.191-7.698-5.593-9.387-.604-8.101 3.725-12.772 5.873-14.31z"/></g><defs><clipPath id="clip0"><path fill="#fff" d="M0 0h71v68H0z"/></clipPath></defs></svg>