<svg width="55" height="55" viewBox="0 0 55 55" fill="none" xmlns="http://www.w3.org/2000/svg">
<g clip-path="url(#clip0)">
<path d="M30.7843 2.40286C30.7843 1.07659 29.6929 0 28.3468 0C27.0007 0 25.9079 1.07659 25.9066 2.40286L25.9079 7.74151C25.9079 9.06778 27.0007 10.1457 28.3468 10.1457C29.6929 10.1457 30.7843 9.06778 30.7843 7.74151V2.40286Z" fill="white"/>
<path d="M11.7611 8.15895C10.8087 7.22062 9.26364 7.22062 8.31124 8.15895C7.35886 9.09726 7.35886 10.6195 8.31124 11.5578L12.1426 15.3313C13.0963 16.2696 14.6401 16.2696 15.5924 15.3313C16.5448 14.3943 16.5448 12.8721 15.5924 11.935L11.7611 8.15895Z" fill="white"/>
<path d="M2.44023 24.6689C1.09272 24.6689 0 25.7455 0 27.0718C0 28.398 1.09409 29.4747 2.43887 29.4747H7.85752C9.2037 29.4747 10.2964 28.398 10.2964 27.0704C10.2964 25.7455 9.2037 24.6689 7.85752 24.6689H2.44023Z" fill="white"/>
<path d="M8.28128 44.2234C7.32889 45.1617 7.32889 46.6826 8.28128 47.6209C9.23506 48.5579 10.7774 48.5579 11.7311 47.6209L15.5611 43.8462C16.5149 42.9079 16.5149 41.3856 15.5611 40.4486C14.6101 39.513 13.0636 39.513 12.1127 40.4499L8.28128 44.2234Z" fill="white"/>
<path d="M25.8629 52.5958C25.8629 53.9221 26.9543 55 28.3018 55C29.648 54.9974 30.7421 53.9221 30.7421 52.5958V47.2572C30.7421 45.9309 29.648 44.8544 28.3018 44.8544C26.9571 44.8544 25.8629 45.9323 25.8629 47.2559V52.5958Z" fill="white"/>
<path d="M44.8874 47.6532C45.8371 48.5915 47.3836 48.5915 48.3359 47.6532C49.2842 46.7149 49.2842 45.194 48.3359 44.2556L44.5046 40.4808C43.5522 39.5438 42.0086 39.5438 41.0561 40.4808C40.1037 41.4191 40.1037 42.9401 41.0561 43.8771L44.8874 47.6532Z" fill="white"/>
<path d="M52.5597 30.3311C53.9086 30.3311 55 29.2531 55 27.9283C55 26.6007 53.9086 25.524 52.5625 25.524H47.1438C45.7977 25.524 44.7036 26.5993 44.7036 27.9283C44.7036 29.2531 45.7977 30.3311 47.1438 30.3284L52.5597 30.3311Z" fill="white"/>
<path d="M48.3659 11.5874C49.3211 10.6504 49.3211 9.1268 48.3659 8.19117C47.4136 7.25284 45.8726 7.25284 44.9174 8.19117L41.0875 11.966C40.1351 12.9043 40.1351 14.4238 41.0875 15.3635C42.0398 16.3018 43.5836 16.3018 44.536 15.3635L48.3659 11.5874Z" fill="white"/>
<path d="M28.3468 13.021C19.9743 13.021 13.1891 19.7074 13.1891 27.9577C13.1891 36.208 19.9756 42.8943 28.3468 42.8943C36.7207 42.8943 43.5073 36.208 43.5073 27.9577C43.5073 19.7087 36.7207 13.021 28.3468 13.021ZM28.3468 38.1248C22.6462 38.1248 18.0246 33.5715 18.0246 27.9577C18.0246 22.3439 22.6462 17.7878 28.3468 17.7878C34.0488 17.7878 38.6691 22.3439 38.6691 27.9577C38.6691 33.5715 34.0462 38.1248 28.3468 38.1248Z" fill="white"/>
</g>
<defs>
<clipPath id="clip0">
<rect width="55" height="55" fill="white"/>
</clipPath>
</defs>
</svg>
