<svg width="50" height="55" viewBox="0 0 50 55" fill="none" xmlns="http://www.w3.org/2000/svg">
<g clip-path="url(#clip0)">
<path d="M0.131323 24.276C-1.29951 39.6085 9.32162 53.2915 24.0076 54.8561C33.1017 55.8256 41.5368 51.8525 47.0973 45.1559C52.2524 38.9808 46.4865 39.0117 44.3744 38.7838C22.6434 35.8054 19.0932 13.2509 22.4842 4.1166C23.5615 -0.273773 21.3347 -0.295019 19.567 0.236152C19.567 0.236152 1.79539 5.27938 0.131323 24.276ZM24.637 48.4202C13.3569 47.2168 5.14944 36.6996 6.29892 24.9328C6.95418 18.2612 10.5285 12.428 15.5151 9.01304C13.0607 24.1234 24.0539 41.7738 39.7728 43.4987C35.7727 46.6856 30.0401 48.9938 24.637 48.4202Z" fill="white"/>
</g>
<defs>
<clipPath id="clip0">
<rect width="50" height="55" fill="white"/>
</clipPath>
</defs>
</svg>
