<svg width="75" height="55" viewBox="0 0 75 55" fill="none" xmlns="http://www.w3.org/2000/svg">
<g clip-path="url(#clip0)">
<path d="M51.0936 10.4028C52.2348 10.4028 53.1538 9.29876 53.1538 7.9387V2.46413C53.1538 1.10246 52.2348 0 51.0936 0C49.958 0 49.0335 1.1041 49.0335 2.46413V7.93706C49.0335 9.29876 49.958 10.4028 51.0936 10.4028Z" fill="white"/>
<path d="M37.4067 15.7217C38.2105 16.6831 39.5149 16.6831 40.3214 15.7217C41.1251 14.7586 41.1251 13.1985 40.3214 12.2372L37.0857 8.36704C36.2821 7.40402 34.975 7.40402 34.1712 8.36704C33.3675 9.33005 33.3675 10.8902 34.1712 11.8516L37.4067 15.7217Z" fill="white"/>
<path d="M64.742 41.5145C63.9384 40.5515 62.634 40.5515 61.8302 41.5145C61.0265 42.4759 61.0265 44.0344 61.8302 44.9974L65.0644 48.8658C65.8681 49.8305 67.1725 49.8305 67.9762 48.8658C68.78 47.9044 68.78 46.3443 67.9762 45.383L64.742 41.5145Z" fill="white"/>
<path d="M72.94 26.1752H68.3644C67.226 26.1752 66.3016 27.2809 66.3016 28.6393C66.3016 30.001 67.226 31.1034 68.3644 31.1034H72.94C74.0756 31.1034 75 30.001 75 28.6393C75 27.2793 74.0756 26.1752 72.94 26.1752Z" fill="white"/>
<path d="M64.7695 15.7543L68.005 11.8843C68.8115 10.9212 68.8115 9.35939 68.005 8.39803C67.2013 7.43503 65.897 7.43503 65.0905 8.39803L61.8576 12.2682C61.054 13.2295 61.054 14.7913 61.8576 15.7543C62.6614 16.7157 63.9658 16.7157 64.7695 15.7543Z" fill="white"/>
<path d="M63.9012 28.6705C63.9012 20.2118 58.1654 13.3542 51.0936 13.3542C46.9419 13.3542 43.2551 15.7216 40.9139 19.3883C38.2969 18.2759 35.7841 18.3563 34.6239 18.732C31.8519 15.4328 27.2421 13.0129 22.5829 13.0129C13.3385 13.0129 5.75921 21.562 5.07891 32.4111C2.04638 34.4995 0 38.4155 0 42.9009C0 49.5845 4.53029 55 10.1181 55H49.1226C54.8667 55 59.5219 49.4286 59.5219 42.5612C59.5219 42.5612 59.5246 41.6835 59.323 40.3957C62.1224 37.5854 63.9012 33.3773 63.9012 28.6705ZM49.135 50.367H10.9945C7.21444 50.367 4.42605 47.099 4.42605 42.8664C4.42605 39.4146 6.26395 36.3812 9.13189 35.3428C9.47068 19.0092 21.4691 18.1774 22.8022 18.1774C26.7648 18.1774 30.6997 20.5005 33.2262 23.9424C38.3421 21.9327 45.3536 26.6494 44.5705 35.7742C46.5661 34.8046 48.5645 34.8785 49.1377 34.8785C51.9989 34.8785 55.4607 37.8774 55.4607 42.7991C55.4607 46.9809 52.6256 50.367 49.135 50.367ZM48.6454 30.1388C47.8581 26.2557 46.3179 23.6045 44.5225 21.8212C46.1216 19.6293 48.4711 18.2414 51.0936 18.2414C55.9105 18.2414 59.8085 22.9138 59.8085 28.6705C59.8085 31.2413 59.0281 33.6021 57.732 35.4215C54.6693 29.6221 48.6454 30.1388 48.6454 30.1388Z" fill="white"/>
</g>
<defs>
<clipPath id="clip0">
<rect width="75" height="55" fill="white"/>
</clipPath>
</defs>
</svg>
