<svg width="70" height="56" viewBox="0 0 70 56" fill="none" xmlns="http://www.w3.org/2000/svg">
<path d="M49.0876 55.0871C54.8252 55.0871 59.4769 49.5444 59.4769 42.7079C59.4769 42.7079 59.4824 41.1146 58.9894 39.0724C62.8107 38.2131 66.2155 35.7834 68.7038 32.3595C71.9394 27.933 68.2505 28.0291 66.9967 27.7931C59.5875 26.7076 49.5766 17.5082 53.2573 2.94995C54.0549 -0.176199 52.5348 -0.208746 51.4273 0.170427C51.4273 0.170427 39.8689 3.22497 39.1465 19.0591C37.2043 18.5807 35.4916 18.6929 34.5958 18.981C31.8274 15.6986 27.2207 13.2885 22.5622 13.2885C13.3215 13.2885 5.75117 21.7996 5.07102 32.6003C2.04043 34.6785 0 38.576 0 43.0415C0 49.6973 4.52335 55.0871 10.1065 55.0871H49.0876ZM10.982 50.4751C7.20432 50.4751 4.41956 47.2204 4.41956 43.0072C4.41956 39.567 6.25512 36.5483 9.11909 35.5182C9.46052 19.2561 21.4477 18.4261 22.7793 18.4261C26.74 18.4261 30.6692 20.7402 33.1986 24.1658C38.3093 22.1658 45.3142 26.8607 44.5316 35.9397C46.5269 34.9763 48.5223 35.0527 49.0931 35.0527C51.9598 35.0527 55.4166 38.0373 55.4166 42.9389C55.4166 47.1017 52.5867 50.4736 49.0931 50.4736H10.982V50.4751ZM57.1264 34.6475C55.5613 32.2928 52.9473 30.3399 48.6096 30.3399C47.6222 25.4986 45.4616 22.5791 43.0948 20.8802C42.4979 12.7157 46.766 8.00776 48.887 6.46015C47.1879 16.9517 54.2462 29.9412 64.1109 31.1764C62.218 32.8933 59.7009 34.2586 57.1264 34.6475Z" fill="white"/>
</svg>
