<svg width="60" height="42" viewBox="0 0 60 42" fill="none" xmlns="http://www.w3.org/2000/svg">
<g clip-path="url(#clip0)">
<path d="M49.5203 41.9984C55.3097 41.9984 60 36.4253 60 29.5592C60 29.5592 60.054 17.1316 49.0358 17.1316C46.6547 5.48762 37.4749 4.89778 34.9 5.71928C32.1077 2.42178 27.4604 0 22.7604 0C13.4436 0 5.80466 8.55183 5.11802 19.4039C2.05994 21.4954 0 25.4073 0 29.8944C0 36.583 4.56427 42 10.1959 42L49.5203 41.9984ZM11.0805 37.3651C7.27071 37.3651 4.46183 34.0939 4.46183 29.8615C4.46183 26.4046 6.31134 23.375 9.20191 22.3382C9.54523 6.00188 21.6391 5.16723 22.9833 5.16723C26.9772 5.16723 30.9407 7.4921 33.4907 10.9341C38.6516 8.92311 45.7147 13.6402 44.927 22.7654C46.9371 21.796 48.9513 21.8732 49.5272 21.8732C52.4178 21.8732 55.9036 24.8734 55.9036 29.7942C55.9036 33.9789 53.0477 37.3651 49.5272 37.3651H11.0805Z" fill="white"/>
</g>
<defs>
<clipPath id="clip0">
<rect width="60" height="42" fill="white"/>
</clipPath>
</defs>
</svg>
