<svg width="72" height="44" viewBox="0 0 72 44" fill="none" xmlns="http://www.w3.org/2000/svg">
<path d="M63.8018 12.8769C62.0214 4.12444 55.161 3.68194 53.2354 4.29945C51.1532 1.8195 47.6767 0 44.1642 0C39.7996 0 35.9232 2.52782 33.5134 6.42606C30.7063 3.79587 26.6986 1.97966 22.648 1.97966C13.3748 1.97966 5.77716 10.5357 5.09375 21.3965C2.05022 23.4835 0 27.3999 0 31.8909C0 38.5811 4.54176 44 10.146 44H49.2704C55.0268 44 59.6932 38.4341 59.7028 31.5673H64.1644C68.4902 31.5673 72 27.3817 72 22.2171C72 22.2171 72.036 12.8769 63.8018 12.8769ZM49.2787 39.3637H11.0245C7.23666 39.3637 4.43939 36.0913 4.43939 31.8562C4.43939 28.3988 6.27934 25.3625 9.15684 24.3272C9.49716 7.98138 21.5287 7.14594 22.8665 7.14594C26.8411 7.14594 30.7866 9.47071 33.3238 12.9165C38.4548 10.9039 45.4854 15.6292 44.701 24.7548C46.7015 23.7873 48.7074 23.8616 49.2815 23.8616C52.1534 23.8616 55.6286 26.8633 55.6286 31.7885C55.6259 35.974 52.7815 39.3637 49.2787 39.3637ZM64.1699 28.0834H59.2546C58.4038 24.4048 55.9399 19.1197 48.7918 19.1197C46.909 9.85541 40.7458 7.58516 37.012 7.458C39.8216 4.13764 43.6939 3.88337 44.3288 3.88337C47.3143 3.88337 50.2762 5.63188 52.1854 8.21751C56.0368 6.70674 61.3214 10.2516 60.7292 17.1103C62.2344 16.3855 63.7423 16.4416 64.1699 16.4416C66.328 16.4416 68.9357 18.697 68.9357 22.3938C68.9357 25.5375 66.8011 28.0834 64.1699 28.0834Z" fill="white"/>
</svg>
