<svg width="75" height="70" viewBox="0 0 75 70" fill="none" xmlns="http://www.w3.org/2000/svg">
<path d="M53.213 2.46221C53.213 1.10056 52.2911 0 51.157 0C50.0244 0 49.1039 1.10056 49.1039 2.46221V7.93526C49.1039 9.29527 50.0244 10.3975 51.157 10.3975C52.2911 10.3975 53.213 9.29527 53.213 7.93526V2.46221Z" fill="white"/>
<path d="M37.1845 8.36312C36.3839 7.40468 35.0844 7.40468 34.2811 8.36312C33.4791 9.32652 33.4791 10.8848 34.2811 11.8466L37.5082 15.7184C38.3102 16.6818 39.6124 16.6818 40.4144 15.7184C41.215 14.7549 41.215 13.1983 40.413 12.2349L37.1845 8.36312Z" fill="white"/>
<path d="M65.0924 48.8611C65.8916 49.8261 67.1939 49.8261 67.9971 48.8627C68.8005 47.8993 68.8005 46.3409 67.9971 45.3793L64.7686 41.5091C63.9666 40.5473 62.6672 40.5473 61.8652 41.5091C61.0632 42.4709 61.0632 44.0291 61.8652 44.9909L65.0924 48.8611Z" fill="white"/>
<path d="M72.944 31.0998C74.0795 31.0998 75 29.9959 75 28.6359C75 27.2759 74.0795 26.172 72.944 26.172H68.3816C67.2489 26.172 66.3256 27.2759 66.3256 28.6359C66.3256 29.9959 67.2489 31.0998 68.3816 31.0981L72.944 31.0998Z" fill="white"/>
<path d="M68.0234 11.88C68.824 10.9182 68.8281 9.3566 68.0234 8.39651C67.2241 7.4331 65.922 7.4331 65.1186 8.39651L61.8927 12.2666C61.088 13.2284 61.088 14.7884 61.8927 15.75C62.6947 16.7118 63.9927 16.7118 64.7947 15.75L68.0234 11.88Z" fill="white"/>
<path d="M63.9294 28.6675C63.9294 20.2085 58.2136 13.3489 51.157 13.3489C46.9886 13.3489 43.2875 15.745 40.9573 19.4499C38.3364 18.3328 35.8216 18.4139 34.66 18.789C31.8875 15.4807 27.2728 13.0498 22.6055 13.0498C13.3498 13.0498 5.76679 21.628 5.0847 32.5211C2.04627 34.6215 0 38.5461 0 43.0509C0 49.7633 4.53489 55.2 10.1267 55.2H11.4922C12.4389 55.2 13.194 54.0598 13.194 52.8733C13.194 51.5892 12.3232 50.5499 11.2552 50.5499H11.0031C7.22055 50.5499 4.42879 47.2697 4.42879 43.0195C4.42879 39.5492 6.26561 36.5103 9.1373 35.4692C9.48041 19.0748 21.488 18.2387 22.8232 18.2387C26.7904 18.2387 30.7272 20.572 33.2586 24.0273C38.3791 22.0081 45.3999 26.7457 44.6144 35.9005C46.6111 34.9271 48.6119 35.0048 49.1838 35.0048C52.05 35.0048 55.5196 38.014 55.5196 42.955C55.5196 47.1507 52.6796 50.5531 49.1838 50.5531H48.9054C47.8361 50.5531 46.9666 51.5975 46.9666 52.8799C46.9666 54.1622 47.8361 55.2032 48.9054 55.2032H49.1755C54.9258 55.2032 59.586 49.6129 59.586 42.7187C59.586 42.7187 59.5888 41.7735 59.3684 40.4036C62.156 37.5877 63.9294 33.3755 63.9294 28.6675ZM57.7506 35.461C56.2651 32.7178 53.5713 30.2424 48.6974 30.2424C47.9064 26.3376 46.3604 23.6672 44.5551 21.8791C46.1509 19.6499 48.5169 18.2387 51.157 18.2387C55.9579 18.2387 59.8534 22.907 59.8534 28.6693C59.8534 31.2619 59.061 33.6349 57.7506 35.461Z" fill="white"/>
<path d="M64.7561 41.5669C63.9515 40.6051 62.6506 40.6051 61.8445 41.5669C61.0426 42.5302 61.0426 44.0936 61.8445 45.0553L65.0773 48.9303C65.8806 49.8954 67.1828 49.8954 67.9875 48.9321C68.7881 47.9687 68.7881 46.4053 67.9875 45.4436L64.7561 41.5669Z" fill="white"/>
<path d="M72.9413 26.2087H68.3734C67.2379 26.2087 66.3174 27.3143 66.3174 28.6759C66.3174 30.0393 67.2379 31.1414 68.3734 31.1414H72.9413C74.0795 31.1414 75 30.0393 75 28.6759C75 27.3143 74.0795 26.2087 72.9413 26.2087Z" fill="white"/>
<path d="M22.2597 51.6768C22.8287 50.4952 22.4899 48.9865 21.506 48.3057C20.5235 47.6249 19.264 48.0297 18.6962 49.2096L16.413 53.9556C15.8439 55.1354 16.1829 56.6425 17.1667 57.325C18.1506 58.0075 19.4086 57.6009 19.9777 56.4227L22.2597 51.6768Z" fill="white"/>
<path d="M32.9237 51.6768C33.4915 50.4952 33.1539 48.9865 32.17 48.3057C31.1847 47.6249 29.9267 48.0297 29.359 49.2096L27.0742 53.9556C26.5066 55.1354 26.8441 56.6425 27.8266 57.325C28.8105 58.0075 30.07 57.6009 30.6377 56.4227L32.9237 51.6768Z" fill="white"/>
<path d="M23.4834 64.0207C24.051 62.8392 23.7134 61.3321 22.7296 60.648C21.7457 59.9689 20.4876 60.3737 19.9185 61.5519L17.6339 66.2978C17.0647 67.4794 17.4024 68.9881 18.3862 69.6689C19.3715 70.3497 20.6281 69.9465 21.1972 68.7667L23.4834 64.0207Z" fill="white"/>
<path d="M43.5851 51.6768C44.1529 50.4952 43.8166 48.9865 42.8327 48.3057C41.8489 47.6249 40.5907 48.0297 40.0217 49.2096L37.7384 53.9556C37.1692 55.1354 37.5069 56.6425 38.4907 57.325C39.4746 58.0075 40.7327 57.6009 41.3005 56.4227L43.5851 51.6768Z" fill="white"/>
<path d="M34.1474 64.0207C34.7137 62.8392 34.3747 61.3321 33.3922 60.648C32.407 59.9689 31.149 60.3737 30.5812 61.5519L28.2965 66.2978C27.7289 67.4794 28.0664 68.9881 29.0516 69.6689C30.0355 70.3497 31.295 69.9465 31.86 68.7667L34.1474 64.0207Z" fill="white"/>
</svg>
