<svg width="70" height="69" viewBox="0 0 70 69" fill="none" xmlns="http://www.w3.org/2000/svg">
<g clip-path="url(#clip0)">
<path d="M39.146 18.8395C37.2069 18.3651 35.4959 18.4768 34.5943 18.7618C31.8253 15.515 27.2201 13.1296 22.5627 13.1296C13.3222 13.1296 5.75405 21.5472 5.07104 32.2301C2.04216 34.2852 0 38.1375 0 42.5537C0 49.1315 4.52545 54.4625 10.1064 54.4625H11.4792C12.4316 54.4625 13.1778 53.3467 13.1778 52.1824C13.1778 50.9258 12.3107 49.9023 11.2429 49.9023H10.9831C7.20939 49.9023 4.42239 46.6847 4.42239 42.518C4.42239 39.1157 6.25565 36.1311 9.12238 35.1126C9.46182 19.0355 21.4495 18.2113 22.7811 18.2113C26.7419 18.2113 30.6682 20.501 33.1968 23.8904C38.309 21.9099 45.3123 26.5543 44.5304 35.532C46.5243 34.5782 48.5226 34.6543 49.0929 34.6543C51.9541 34.6543 55.4158 37.6049 55.4158 42.4499C55.4158 46.5647 52.5835 49.8991 49.0929 49.8991H48.807C47.7392 49.8991 46.8721 50.9258 46.8721 52.1824C46.8721 53.4406 47.7392 54.4593 48.807 54.4593H49.0833C54.8249 54.4593 59.4755 48.9777 59.4755 42.2152C59.4755 42.2152 59.4865 40.6379 58.9876 38.617C62.8081 37.7716 66.2163 35.3668 68.705 31.9792C71.9386 27.6035 68.2501 27.6943 66.9941 27.4659C59.5854 26.3922 49.5739 17.2963 53.2569 2.89847C54.054 -0.19129 52.5381 -0.226916 51.4264 0.150398C51.4264 0.160114 39.8702 3.18024 39.146 18.8395ZM48.884 6.37687C47.1868 16.7505 54.2423 29.5938 64.1081 30.818C62.2144 32.5216 59.6995 33.8706 57.1241 34.2527C55.5561 31.9257 52.9491 29.9906 48.6092 29.9906C47.6197 25.2069 45.4607 22.3212 43.0915 20.6403C42.4992 12.5645 46.7649 7.9088 48.884 6.37687Z" fill="white"/>
<path d="M22.2178 51.0136C22.7868 49.859 22.4487 48.3773 21.4675 47.7117C20.4862 47.0414 19.2302 47.438 18.6626 48.5943L16.3813 53.25C15.8137 54.4078 16.1518 55.888 17.133 56.5551C18.1157 57.2255 19.3703 56.8272 19.9393 55.6694L22.2178 51.0136Z" fill="white"/>
<path d="M32.8628 51.0136C33.429 49.859 33.0937 48.3773 32.1083 47.7117C31.1271 47.0414 29.8696 47.438 29.3048 48.5943L27.0249 53.25C26.4573 54.4078 26.794 55.888 27.7753 56.5551C28.7579 57.2255 30.0139 56.8272 30.5815 55.6694L32.8628 51.0136Z" fill="white"/>
<path d="M23.4409 63.1201C24.0083 61.9622 23.6704 60.4821 22.6905 59.8149C21.7079 59.1462 20.4505 59.5429 19.8842 60.7039L17.603 65.3564C17.0368 66.5142 17.3734 67.996 18.3561 68.6599C19.3387 69.3287 20.5947 68.9336 21.1623 67.7758L23.4409 63.1201Z" fill="white"/>
<path d="M43.5051 51.0136C44.0699 49.859 43.736 48.3773 42.752 47.7117C41.7693 47.0414 40.5133 47.438 39.9457 48.5943L37.6672 53.25C37.1011 54.4078 37.4377 55.888 38.4189 56.5551C39.4015 57.2255 40.6576 56.8272 41.2238 55.6694L43.5051 51.0136Z" fill="white"/>
<path d="M34.0846 63.1201C34.6508 61.9622 34.3154 60.4821 33.3342 59.8149C32.3503 59.1462 31.0941 59.5429 30.5266 60.7039L28.2467 65.3564C27.6778 66.5142 28.0159 67.996 28.9998 68.6599C29.981 69.3287 31.2371 68.9336 31.8033 67.7758L34.0846 63.1201Z" fill="white"/>
</g>
<defs>
<clipPath id="clip0">
<rect width="70" height="69" fill="white"/>
</clipPath>
</defs>
</svg>
