<svg width="75" height="82" viewBox="0 0 75 82" fill="none" xmlns="http://www.w3.org/2000/svg">
<g clip-path="url(#clip0)">
<path d="M65.0928 48.0644C65.8948 49.0139 67.1941 49.0139 67.996 48.0644C68.798 47.1184 68.798 45.5854 67.996 44.6394L64.7676 40.8323C63.9656 39.8863 62.6676 39.8863 61.8629 40.8323C61.0638 41.7785 61.0638 43.3113 61.8629 44.2574L65.0928 48.0644Z" fill="white"/>
<path d="M53.211 2.42207C53.211 1.08262 52.2934 0 51.1579 0C50.0239 0 49.1063 1.08262 49.1063 2.42207V7.80593C49.1063 9.14214 50.0239 10.228 51.1579 10.228C52.2934 10.228 53.211 9.14214 53.211 7.80593V2.42207Z" fill="white"/>
<path d="M37.1872 8.22864C36.3852 7.28257 35.0831 7.28257 34.2811 8.22539C33.482 9.17472 33.482 10.706 34.2811 11.6521L37.5055 15.4591C38.3116 16.4052 39.6124 16.4052 40.4142 15.4591C41.2162 14.5098 41.2162 12.9818 40.4115 12.0324L37.1872 8.22864Z" fill="white"/>
<path d="M72.9441 30.5929C74.0822 30.5929 75 29.5071 75 28.1676C75 26.8314 74.0822 25.7456 72.9441 25.7456H68.3805C67.2492 25.7456 66.3287 26.8314 66.3287 28.1676C66.3287 29.5071 67.2492 30.5929 68.3805 30.5898L72.9441 30.5929Z" fill="white"/>
<path d="M68.0209 11.6862C68.8282 10.7401 68.8282 9.20722 68.0209 8.2579C67.2216 7.31182 65.9195 7.31182 65.1176 8.2579L61.8932 12.065C61.0885 13.011 61.0885 14.5472 61.8932 15.4932C62.6951 16.4393 63.9974 16.4393 64.7965 15.4932L68.0209 11.6862Z" fill="white"/>
<path d="M63.9284 28.2002C63.9284 19.879 58.2129 13.1329 51.1565 13.1329C46.9897 13.1329 43.2872 15.4883 40.9586 19.1328C38.3377 18.034 35.8217 18.1135 34.6615 18.4825C31.8864 15.2282 27.2745 12.837 22.6075 12.837C13.3547 12.837 5.76796 21.2737 5.08451 31.991C2.05034 34.0571 0 37.9178 0 42.3474C0 48.9505 4.53472 54.3001 10.1291 54.3001H11.4946C12.4412 54.3001 13.1949 53.1802 13.1949 52.0114C13.1949 50.7483 12.3282 49.7258 11.2576 49.7258H11.004C7.22304 49.7258 4.43 46.4991 4.43 42.3182C4.43 38.9045 6.26814 35.9151 9.13696 34.8927C9.47869 18.7638 21.4914 17.9413 22.8237 17.9413C26.7909 17.9413 30.7261 20.2365 33.2601 23.6341C38.3791 21.6492 45.401 26.3097 44.61 35.3136C46.6094 34.3594 48.6115 34.4341 49.182 34.4341C52.0535 34.4341 55.5176 37.3943 55.5176 42.2548C55.5176 46.3821 52.6777 49.7291 49.182 49.7291H48.905C47.8344 49.7291 46.9649 50.7564 46.9649 52.0178C46.9649 53.2777 47.8344 54.3034 48.905 54.3034H49.1737C54.9251 54.3034 59.5839 48.8041 59.5839 42.0223C59.5839 42.0223 59.5866 41.0925 59.3661 39.7432C62.1564 36.9749 63.9284 32.8315 63.9284 28.2002ZM57.754 34.8828C56.2659 32.1845 53.572 29.7493 48.6984 29.7493C47.9087 25.9098 46.3614 23.2812 44.5562 21.5224C46.1519 19.3278 48.5179 17.9413 51.1579 17.9413C55.9586 17.9413 59.8554 22.5351 59.8554 28.2019C59.8539 30.7523 59.0616 33.0866 57.754 34.8828Z" fill="white"/>
<path d="M64.7539 40.8893C63.9519 39.9432 62.6498 39.9432 61.845 40.8893C61.0431 41.8386 61.0431 43.3747 61.8478 44.3209L65.079 48.1344C65.8838 49.0804 67.1818 49.0804 67.9891 48.1344C68.7911 47.185 68.7911 45.6488 67.9891 44.7028L64.7539 40.8893Z" fill="white"/>
<path d="M72.9414 25.7797H68.3723C67.2368 25.7797 66.3164 26.8688 66.3164 28.2082C66.3164 29.5461 67.2368 30.6335 68.3723 30.6335H72.9414C74.0795 30.6335 75 29.5461 75 28.2082C75 26.8688 74.0795 25.7797 72.9414 25.7797Z" fill="white"/>
<path d="M23.1339 50.8329C23.7043 49.6738 23.3681 48.1912 22.3829 47.5183C21.3976 46.8486 20.141 47.2452 19.5705 48.4075L17.2888 53.0745C16.7183 54.2367 17.0545 55.7193 18.0396 56.3922C19.029 57.062 20.2858 56.6621 20.8493 55.503L23.1339 50.8329Z" fill="white"/>
<path d="M16.896 62.8912C17.4624 61.7288 17.1275 60.2464 16.1409 59.5766C15.1585 58.9037 13.8962 59.3003 13.3314 60.4658L11.0454 65.1328C10.4777 66.2951 10.8166 67.7776 11.8019 68.4474C12.7844 69.117 14.041 68.7204 14.6114 67.5581L16.896 62.8912Z" fill="white"/>
<path d="M32.8275 50.8329C33.3924 49.6738 33.0562 48.1912 32.0737 47.5183C31.0885 46.8486 29.8319 47.2452 29.2614 48.4075L26.9796 53.0745C26.4091 54.2367 26.7481 55.7193 27.7306 56.3922C28.7157 57.062 29.9752 56.6621 30.5429 55.503L32.8275 50.8329Z" fill="white"/>
<path d="M26.5869 63.4763C27.1546 62.3141 26.8184 60.8315 25.8332 60.1619C24.848 59.4904 23.5886 59.8887 23.0236 61.0527L20.7362 65.7196C20.1727 66.8819 20.5075 68.3643 21.4969 69.0325C22.4766 69.7055 23.736 69.3056 24.2996 68.1433L26.5869 63.4763Z" fill="white"/>
<path d="M20.3946 76.1185C20.9623 74.9561 20.6301 73.4704 19.6409 72.8008C18.6584 72.1309 17.4018 72.5308 16.8313 73.6899L14.5509 78.3601C13.9804 79.5191 14.3166 81.0048 15.3018 81.6747C16.287 82.3443 17.5436 81.9477 18.1114 80.7854L20.3946 76.1185Z" fill="white"/>
<path d="M42.5184 50.8329C43.0861 49.6738 42.7499 48.1912 41.7646 47.5183C40.7795 46.8486 39.52 47.2452 38.9551 48.4075L36.6705 53.0745C36.1 54.2367 36.439 55.7193 37.4242 56.3922C38.4066 57.062 39.6661 56.6621 40.2337 55.503L42.5184 50.8329Z" fill="white"/>
<path d="M36.2778 63.4763C36.8455 62.3141 36.5093 60.8315 35.5242 60.1619C34.5417 59.4904 33.2823 59.8887 32.7145 61.0527L30.4272 65.7196C29.8595 66.8819 30.1957 68.3643 31.1809 69.0325C32.1634 69.7055 33.4255 69.3056 33.9905 68.1433L36.2778 63.4763Z" fill="white"/>
</g>
<defs>
<clipPath id="clip0">
<rect width="75" height="82" fill="white"/>
</clipPath>
</defs>
</svg>
