<svg width="70" height="82" viewBox="0 0 70 82" fill="none" xmlns="http://www.w3.org/2000/svg">
<g clip-path="url(#clip0)">
<path d="M39.1466 18.8318C37.2035 18.3564 35.4941 18.4695 34.5954 18.7526C31.8278 15.5098 27.2245 13.129 22.5633 13.129C13.3251 13.129 5.75903 21.5346 5.0747 32.2044C2.04472 34.2584 0 38.1029 0 42.5151C0 49.0866 4.5278 54.4093 10.1096 54.4093H11.6665C12.6215 54.4093 13.3649 53.2949 13.3649 52.132C13.3649 50.8769 12.4964 49.8548 11.4301 49.8548H10.9849C7.21149 49.8548 4.42611 46.6427 4.42611 42.4812C4.42611 39.0815 6.25921 36.1006 9.12291 35.0866C9.46371 19.0228 21.4517 18.2043 22.7833 18.2043C26.7421 18.2043 30.6709 20.4913 33.1965 23.8748C38.3083 21.8984 45.3109 26.5371 44.5304 35.5022C46.5242 34.5496 48.5209 34.6256 49.0898 34.6256C51.9535 34.6256 55.4136 37.5724 55.4136 42.4116C55.4136 46.5213 52.5814 49.8515 49.0898 49.8515H48.7738C47.7061 49.8515 46.839 50.8769 46.839 52.132C46.839 53.3887 47.7061 54.406 48.7738 54.406H49.0856C54.8268 54.406 59.4769 48.9328 59.4769 42.1771C59.4769 42.1771 59.4852 40.6018 58.9891 38.5865C62.8079 37.739 66.2143 35.3389 68.7043 31.9553C71.939 27.5851 68.2508 27.6757 66.9948 27.4461C59.5868 26.3737 49.5762 17.2889 53.2562 2.9088C54.056 -0.177155 52.5375 -0.212738 51.4285 0.164111C51.4245 0.173816 39.8679 3.18861 39.1466 18.8318ZM48.8837 6.38292C47.1825 16.7455 54.2401 29.5729 64.1037 30.794C62.2115 32.4955 59.6968 33.8428 57.1202 34.2276C55.5552 31.9018 52.947 29.9691 48.6047 29.9691C47.6167 25.1914 45.4593 22.3076 43.089 20.6287C42.4953 12.5629 46.7634 7.91296 48.8837 6.38292Z" fill="white"/>
<path d="M23.0908 50.9674C23.6596 49.8109 23.3217 48.3326 22.3391 47.6647C21.3566 46.9967 20.1006 47.3914 19.5345 48.5477L17.2535 53.1976C16.6887 54.3541 17.0226 55.8324 18.0064 56.4988C18.989 57.1667 20.2477 56.7705 20.8111 55.6157L23.0908 50.9674Z" fill="white"/>
<path d="M16.8619 62.9716C17.4308 61.8151 17.0927 60.3369 16.113 59.6705C15.1263 59.0025 13.8704 59.3988 13.3056 60.5552L11.0246 65.2036C10.4557 66.3616 10.7964 67.8399 11.7789 68.5063C12.7615 69.1725 14.0147 68.778 14.5808 67.6184L16.8619 62.9716Z" fill="white"/>
<path d="M32.7634 50.9674C33.3296 49.8109 32.9943 48.3326 32.0145 47.6647C31.0319 46.9967 29.776 47.3914 29.2071 48.5477L26.9261 53.1976C26.3572 54.3541 26.6952 55.8324 27.679 56.4988C28.6643 57.1667 29.9175 56.7705 30.4864 55.6157L32.7634 50.9674Z" fill="white"/>
<path d="M26.5372 63.5522C27.1034 62.3959 26.7653 60.9192 25.7786 60.2512C24.7989 59.5848 23.543 59.9795 22.9768 61.1391L20.6971 65.7859C20.1337 66.9423 20.4662 68.4206 21.4488 69.087C22.4313 69.7534 23.6873 69.3587 24.2534 68.2038L26.5372 63.5522Z" fill="white"/>
<path d="M20.3563 76.1418C20.9252 74.9822 20.5871 73.5038 19.6046 72.8391C18.6208 72.1727 17.3648 72.5707 16.8 73.7239L14.5217 78.3738C13.9528 79.5302 14.2881 81.0085 15.2706 81.6749C16.2532 82.3444 17.5091 81.9466 18.0753 80.7886L20.3563 76.1418Z" fill="white"/>
<path d="M42.436 50.9674C43.0048 49.8109 42.6668 48.3326 41.6843 47.6647C40.7018 46.9967 39.4458 47.3914 38.8769 48.5477L36.5987 53.1976C36.0325 54.3541 36.3678 55.8324 37.353 56.4988C38.3355 57.1667 39.5887 56.7705 40.1549 55.6157L42.436 50.9674Z" fill="white"/>
<path d="M36.207 63.5522C36.7759 62.3959 36.4379 60.9192 35.4554 60.2512C34.4756 59.5848 33.2169 59.9795 32.6507 61.1391L30.371 65.7859C29.8022 66.9423 30.1401 68.4206 31.1254 69.087C32.1052 69.7534 33.3612 69.3587 33.9273 68.2038L36.207 63.5522Z" fill="white"/>
</g>
<defs>
<clipPath id="clip0">
<rect width="70" height="82" fill="white"/>
</clipPath>
</defs>
</svg>
