<svg width="60" height="64" viewBox="0 0 60 64" fill="none" xmlns="http://www.w3.org/2000/svg">
<g clip-path="url(#clip0)">
<path d="M26.9614 51.5554C26.5715 52.2733 19.9963 64 19.9963 64C19.9963 64 31.9383 51.7969 32.3753 51.3499C33.1176 50.5845 33.0635 50.3774 32.5432 49.2515C32.1769 48.4438 30.9337 45.7238 30.6243 45.0713C30.2664 44.324 30.215 44.3419 30.5813 43.6468C30.9421 42.9501 38.2013 28.6323 38.2013 28.6323C38.2013 28.6323 26.5327 40.4177 25.5725 41.3918C24.2017 42.7853 24.2225 43.0496 24.9329 44.8689C25.2964 45.7956 26.7588 49.4913 27.0363 50.1082C27.3319 50.7625 27.4109 50.733 26.9614 51.5554Z" fill="white"/>
<path d="M44.9195 22.5543C46.9327 21.595 48.946 21.6717 49.5232 21.6717C52.4119 21.6717 55.9 24.6413 55.9 29.5199C55.9 33.6643 53.0432 37.0239 49.5232 37.0239H39.4862C38.4081 37.0239 37.5354 38.0534 37.5354 39.3229C37.5354 40.5858 38.4081 41.6121 39.4862 41.6121H49.5162C55.3048 41.6121 60 36.0955 60 29.2849C60 29.2849 60.0499 16.9725 49.0362 16.9725C46.6539 5.4383 37.4729 4.85254 34.9006 5.66673C32.1048 2.39853 27.4568 0 22.7601 0C13.4391 0 5.8052 8.47155 5.11701 19.2258C2.05901 21.2963 0 25.1748 0 29.6194C0 36.2439 4.56341 41.6121 10.1952 41.6121H19.8936C20.7802 41.6121 21.6085 40.4895 21.6085 39.318C21.6085 38.0501 20.733 37.0239 19.6578 37.0239H11.0748C7.27037 37.0239 4.45935 33.7818 4.45935 29.5868C4.45935 26.1619 6.30746 23.1597 9.19896 22.135C9.54306 5.94575 21.6349 5.11686 22.9794 5.11686C26.9739 5.11686 30.9352 7.4224 33.4853 10.8341C38.6412 8.8403 45.7104 13.515 44.9195 22.5543Z" fill="white"/>
</g>
<defs>
<clipPath id="clip0">
<rect width="60" height="64" fill="white"/>
</clipPath>
</defs>
</svg>
