<svg width="75" height="68" viewBox="0 0 75 68" fill="none" xmlns="http://www.w3.org/2000/svg">
<path d="M53.215 2.43547C53.215 1.0886 52.2916 0 51.1588 0C50.0235 0 49.1056 1.0886 49.1056 2.43547V7.84742C49.1056 9.19427 50.0235 10.2861 51.1588 10.2861C52.2916 10.2861 53.215 9.19427 53.215 7.84742V2.43547Z" fill="white"/>
<path d="M37.1844 8.27072C36.3824 7.31943 35.0829 7.31943 34.2809 8.27072C33.4789 9.22202 33.4789 10.7667 34.2809 11.7179L37.5083 15.5461C38.3103 16.4973 39.6124 16.4973 40.4146 15.5461C41.2138 14.5915 41.2138 13.0517 40.4117 12.1004L37.1844 8.27072Z" fill="white"/>
<path d="M65.092 48.3301C65.894 49.2815 67.1962 49.2815 67.9982 48.3301C68.7989 47.3788 68.7989 45.8342 67.9982 44.8862L64.7695 41.0581C63.9675 40.1068 62.6695 40.1068 61.8675 41.0581C61.0627 42.0094 61.0627 43.5492 61.8675 44.5004L65.092 48.3301Z" fill="white"/>
<path d="M72.9467 30.7587C74.0795 30.7587 75 29.6701 75 28.3232C75 26.9764 74.0795 25.8878 72.9467 25.8878H68.3841C67.2514 25.8878 66.3281 26.9764 66.3281 28.3232C66.3281 29.6701 67.2514 30.7587 68.3841 30.7587H72.9467Z" fill="white"/>
<path d="M68.0258 11.7508C68.8306 10.7995 68.8306 9.25486 68.0258 8.30356C67.2238 7.35226 65.9243 7.35226 65.1223 8.30356L61.8951 12.1316C61.0903 13.083 61.0903 14.6276 61.8951 15.5789C62.6971 16.5302 63.9964 16.5302 64.7957 15.5789L68.0258 11.7508Z" fill="white"/>
<path d="M63.9304 28.3543C63.9304 19.9871 58.2158 13.2022 51.1589 13.2022C46.9904 13.2022 43.2863 15.5738 40.9589 19.2384C38.3379 18.1286 35.823 18.2119 34.6613 18.5847C31.8888 15.309 27.271 12.9047 22.6064 12.9047C13.3503 12.9047 5.76562 21.3912 5.08489 32.1627C2.04498 34.2419 0 38.1272 0 42.5813C0 49.2207 4.5323 54.6 10.1284 54.6H11.5409C12.5041 54.6 13.2441 53.4705 13.2441 52.2954C13.2441 51.0285 12.3719 50.0005 11.3039 50.0005H11.0021C7.22081 50.0005 4.42758 46.751 4.42758 42.5519C4.42758 39.1178 6.26585 36.1101 9.13764 35.0821C9.47939 18.8675 21.4888 18.0404 22.8241 18.0404C26.7914 18.0404 30.7284 20.3483 33.2585 23.7645C38.3805 21.7687 45.4001 26.4533 44.6161 35.507C46.6129 34.5459 48.6124 34.6227 49.1856 34.6227C52.0546 34.6227 55.519 37.6009 55.519 42.4881C55.519 46.6382 52.6844 50.0038 49.1856 50.0038H48.8894C47.8214 50.0038 46.9491 51.0351 46.9491 52.3051C46.9491 53.572 47.8214 54.6033 48.8894 54.6033H49.1774C54.9264 54.6033 59.5882 49.0736 59.5882 42.2495C59.5882 42.2495 59.5938 41.3194 59.3705 39.9628C62.1582 37.1792 63.9304 33.0127 63.9304 28.3543ZM57.7555 35.0755C56.2673 32.3622 53.5732 29.9136 48.6964 29.9136C47.9081 26.0479 46.3606 23.4098 44.5569 21.6412C46.1499 19.433 48.5159 18.0404 51.1589 18.0404C55.9599 18.0404 59.8556 22.6563 59.8556 28.356C59.8556 30.9222 59.0632 33.2677 57.7555 35.0755Z" fill="white"/>
<path d="M33.1453 53.1633L31.8403 52.2675L33.1453 51.3767C33.5973 51.0695 33.7504 50.3862 33.4899 49.8501C33.2295 49.314 32.6533 49.1342 32.2056 49.4415L30.9006 50.3355V48.5506C30.9006 47.9345 30.4802 47.4326 29.9607 47.4326C29.4385 47.4326 29.0182 47.9345 29.0182 48.5506V50.3355L27.7132 49.4415C27.264 49.1342 26.6907 49.3172 26.4288 49.8501C26.1698 50.3829 26.3242 51.0662 26.7733 51.3767L28.0756 52.2675L26.7733 53.1633C26.3242 53.4706 26.1698 54.1506 26.4288 54.6899C26.6893 55.2228 27.2626 55.4058 27.7132 55.0986L29.0182 54.2045V55.9894C29.0182 56.6089 29.4385 57.109 29.9607 57.109C30.4802 57.109 30.9006 56.6089 30.9006 55.9894V54.2045L32.2056 55.0986C32.652 55.4058 33.2281 55.2228 33.4899 54.6899C33.7504 54.1538 33.5973 53.4738 33.1453 53.1633Z" fill="white"/>
<path d="M43.3675 53.1633L42.0625 52.2675L43.3675 51.3767C43.8168 51.0695 43.9725 50.3862 43.7093 49.8501C43.453 49.3172 42.877 49.1342 42.425 49.4415L41.12 50.3355V48.5506C41.12 47.9345 40.6996 47.4326 40.1801 47.4326C39.6606 47.4326 39.2376 47.9345 39.2376 48.5506V50.3355L37.934 49.4415C37.4875 49.1342 36.9115 49.3172 36.6497 49.8501C36.3879 50.3829 36.545 51.0662 36.9914 51.3767L38.2964 52.2675L36.9914 53.1633C36.545 53.4706 36.3879 54.1506 36.6497 54.6899C36.9088 55.2228 37.4862 55.4058 37.934 55.0986L39.2376 54.2045V55.9894C39.2376 56.6089 39.6606 57.109 40.1801 57.109C40.6996 57.109 41.12 56.6089 41.12 55.9894V54.2045L42.425 55.0986C42.877 55.4058 43.453 55.2228 43.7093 54.6899C43.9725 54.1538 43.8168 53.4738 43.3675 53.1633Z" fill="white"/>
<path d="M22.9232 53.1633L21.6182 52.2675L22.9232 51.3767C23.3725 51.0695 23.5281 50.3862 23.2677 49.8501C23.0086 49.3172 22.434 49.1342 21.9833 49.4415L20.6783 50.3355V48.5506C20.6783 47.9345 20.2581 47.4326 19.7358 47.4326C19.2163 47.4326 18.7988 47.9345 18.7988 48.5506V50.3355L17.4938 49.4415C17.0418 49.1342 16.4686 49.3172 16.2067 49.8501C15.9477 50.3829 16.102 51.0662 16.5512 51.3767L17.8562 52.2675L16.5512 53.1633C16.102 53.4706 15.9477 54.1506 16.2067 54.6899C16.4672 55.2228 17.0405 55.4058 17.4938 55.0986L18.7988 54.2045V55.9894C18.7988 56.6089 19.2163 57.109 19.7358 57.109C20.2581 57.109 20.6783 56.6089 20.6783 55.9894V54.2045L21.9833 55.0986C22.4326 55.4058 23.0086 55.2228 23.2677 54.6899C23.5281 54.1538 23.3725 53.4738 22.9232 53.1633Z" fill="white"/>
<path d="M27.8455 64.0592L26.5406 63.1634L27.8455 62.2693C28.2948 61.9621 28.4491 61.2821 28.19 60.7427C27.9296 60.2098 27.3536 60.0284 26.903 60.3373L25.6008 61.2314V59.4432C25.6008 58.827 25.1778 58.3268 24.6583 58.3268C24.1415 58.3268 23.7184 58.827 23.7184 59.4432V61.2314L22.4134 60.3373C21.9669 60.0284 21.3881 60.2131 21.1291 60.7427C20.8686 61.2788 21.0244 61.9621 21.4736 62.2693L22.7759 63.1634L21.4736 64.0592C21.0244 64.3664 20.8686 65.0464 21.1291 65.5825C21.3881 66.1187 21.9655 66.3001 22.4134 65.9912L23.7184 65.0971V66.8853C23.7184 67.5014 24.1415 68 24.6583 68C25.1778 68 25.6008 67.5014 25.6008 66.8853V65.0971L26.903 65.9912C27.3523 66.3001 27.9283 66.1187 28.19 65.5825C28.4491 65.0497 28.2948 64.3664 27.8455 64.0592Z" fill="white"/>
<path d="M37.6268 64.0592L36.319 63.1634L37.6268 62.2693C38.076 61.9621 38.2318 61.2821 37.9713 60.7427C37.7109 60.2098 37.1348 60.0284 36.6843 60.3373L35.382 61.2314V59.4432C35.382 58.827 34.9589 58.3268 34.4421 58.3268C33.9171 58.3268 33.4996 58.827 33.4996 59.4432V61.2314L32.1946 60.3373C31.7454 60.0284 31.1694 60.2131 30.9075 60.7427C30.6485 61.2788 30.8028 61.9621 31.252 62.2693L32.5543 63.1634L31.2534 64.0592C30.8041 64.3664 30.6499 65.0464 30.9089 65.5825C31.1694 66.1187 31.7454 66.3001 32.196 65.9912L33.501 65.0971V66.8853C33.501 67.5014 33.9185 68 34.4435 68C34.9603 68 35.3834 67.5014 35.3834 66.8853V65.0971L36.6856 65.9912C37.1348 66.3001 37.7109 66.1187 37.9726 65.5825C38.2318 65.0497 38.076 64.3664 37.6268 64.0592Z" fill="white"/>
</svg>
