<svg width="71" height="68" viewBox="0 0 71 68" fill="none" xmlns="http://www.w3.org/2000/svg">
<g clip-path="url(#clip0)">
<path d="M33.5598 53.2288L32.2384 52.34L33.5598 51.4513C34.0142 51.1457 34.1704 50.4666 33.9054 49.9336C33.642 49.4007 33.0579 49.222 32.605 49.5274L31.2863 50.4162V48.6387C31.2863 48.0261 30.8597 47.5273 30.3313 47.5273C29.8058 47.5273 29.3806 48.0261 29.3806 48.6387V50.4162L28.0606 49.5274C27.6005 49.2203 27.0207 49.4039 26.7586 49.9336C26.4952 50.4634 26.6498 51.1426 27.1071 51.4513L28.4231 52.34L27.1071 53.2288C26.6498 53.5359 26.4952 54.215 26.7586 54.7463C27.0207 55.2778 27.6005 55.4581 28.0606 55.1526L29.3806 54.2655V56.0414C29.3806 56.6571 29.8058 57.1528 30.3313 57.1528C30.8597 57.1528 31.2863 56.6571 31.2863 56.0414V54.2655L32.605 55.1526C33.0565 55.4581 33.642 55.2778 33.9054 54.7463C34.169 54.2167 34.0142 53.5375 33.5598 53.2288Z" fill="white"/>
<path d="M43.9086 53.2288L42.5885 52.34L43.9086 51.4513C44.363 51.1457 44.5192 50.4666 44.2571 49.9336C43.9936 49.4007 43.4082 49.222 42.9551 49.5274L41.6351 50.4162V48.6387C41.6351 48.0261 41.207 47.5273 40.6844 47.5273C40.1532 47.5273 39.7253 48.0261 39.7253 48.6387V50.4162L38.4024 49.5274C37.9536 49.2203 37.3736 49.4039 37.1032 49.9336C36.8411 50.4634 37.0001 51.1426 37.4517 51.4513L38.7746 52.34L37.4517 53.2288C37.0001 53.5359 36.8411 54.215 37.1032 54.7463C37.3666 55.2778 37.9493 55.4581 38.4024 55.1526L39.7253 54.2655V56.0414C39.7253 56.6571 40.1532 57.1528 40.6844 57.1528C41.207 57.1528 41.6351 56.6571 41.6351 56.0414V54.2655L42.9551 55.1526C43.4039 55.4581 43.9894 55.2778 44.2571 54.7463C44.5178 54.2167 44.363 53.5375 43.9086 53.2288Z" fill="white"/>
<path d="M23.2124 53.2288L21.8923 52.34L23.2124 51.4513C23.6668 51.1457 23.823 50.4666 23.5609 49.9336C23.2974 49.4007 22.7147 49.222 22.2576 49.5274L20.936 50.4162V48.6387C20.936 48.0261 20.5123 47.5273 19.9839 47.5273C19.4557 47.5273 19.0305 48.0261 19.0305 48.6387V50.4162L17.7104 49.5274C17.256 49.2203 16.676 49.4039 16.4112 49.9336C16.1464 50.4634 16.3053 51.1426 16.7597 51.4513L18.0784 52.34L16.7597 53.2288C16.3053 53.5359 16.1478 54.215 16.4112 54.7463C16.6733 55.2778 17.2531 55.4581 17.7104 55.1526L19.0305 54.2655V56.0414C19.0305 56.6571 19.4557 57.1528 19.9839 57.1528C20.5123 57.1528 20.936 56.6571 20.936 56.0414V54.2655L22.2576 55.1526C22.712 55.4581 23.2946 55.2778 23.5609 54.7463C23.823 54.2167 23.6668 53.5375 23.2124 53.2288Z" fill="white"/>
<path d="M28.193 64.0697L26.8714 63.1777L28.193 62.2889C28.6474 61.9834 28.8049 61.3075 28.5415 60.7713C28.2794 60.2416 27.6967 60.0597 27.2395 60.3651L25.9195 61.2554V59.4779C25.9195 58.8654 25.4914 58.3666 24.9659 58.3666C24.4404 58.3666 24.0152 58.8654 24.0152 59.4779V61.2554L22.6951 60.3667C22.238 60.0613 21.6553 60.2433 21.3891 60.7729C21.127 61.3059 21.2873 61.9818 21.7376 62.2905L23.0576 63.1793L21.7376 64.0697C21.2873 64.3752 21.127 65.0511 21.3891 65.5857C21.6525 66.1186 22.2351 66.3006 22.6951 65.9919L24.0152 65.1031V66.8839C24.0152 67.4965 24.4404 67.9953 24.9659 67.9953C25.4914 67.9953 25.9195 67.4965 25.9195 66.8839V65.1031L27.2395 65.9919C27.694 66.3006 28.2767 66.117 28.5415 65.5857C28.8063 65.0544 28.6474 64.3752 28.193 64.0697Z" fill="white"/>
<path d="M38.0958 64.0697L36.7729 63.1777L38.0958 62.2889C38.5502 61.9834 38.7078 61.3075 38.4416 60.7713C38.1795 60.2416 37.5982 60.0597 37.1424 60.3651L35.8223 61.2554V59.4779C35.8223 58.8654 35.3971 58.3666 34.866 58.3666C34.3405 58.3666 33.9125 58.8654 33.9125 59.4779V61.2554L32.5952 60.3667C32.1379 60.0613 31.5553 60.2433 31.2904 60.7729C31.027 61.3059 31.1845 61.9818 31.6389 62.2905L32.9591 63.1793L31.6389 64.0697C31.1845 64.3752 31.027 65.0511 31.2904 65.5857C31.5526 66.1186 32.1352 66.3006 32.5925 65.9919L33.9125 65.1031V66.8839C33.9125 67.4965 34.3405 67.9953 34.866 67.9953C35.3971 67.9953 35.8223 67.4965 35.8223 66.8839V65.1031L37.1424 65.9919C37.5939 66.3006 38.1795 66.117 38.4416 65.5857C38.7078 65.0511 38.5502 64.3752 38.0958 64.0697Z" fill="white"/>
<path d="M39.7099 18.9094C37.7389 18.4317 36.0048 18.5438 35.0932 18.8299C32.2829 15.5737 27.6104 13.1803 22.8876 13.1803C13.5159 13.1803 5.84073 21.6245 5.14653 32.3419C2.07283 34.4071 0 38.2692 0 42.7034C0 49.3034 4.59034 54.6524 10.2513 54.6524H11.6842C12.6503 54.6524 13.4044 53.5345 13.4044 52.3662C13.4044 51.1021 12.5276 50.0801 11.4445 50.0801H11.1406C7.30997 50.0801 4.4844 46.8499 4.4844 42.6693C4.4844 39.2539 6.34674 36.2593 9.25177 35.2405C9.59747 19.1061 21.7584 18.2806 23.1092 18.2806C27.1252 18.2806 31.1078 20.5781 33.6741 23.9772C38.8583 21.9917 45.9634 26.6517 45.1716 35.6613C47.1942 34.7043 49.2168 34.7791 49.7968 34.7791C52.699 34.7791 56.2118 37.7395 56.2118 42.5994C56.2118 46.7281 53.3374 50.0785 49.7968 50.0785H49.4971C48.4167 50.0785 47.5371 51.1054 47.5371 52.3662C47.5371 53.627 48.4167 54.6491 49.4971 54.6491H49.7856C55.6096 54.6491 60.3268 49.1523 60.3268 42.3638C60.3268 42.3638 60.3352 40.7829 59.8319 38.7583C63.7058 37.9052 67.1614 35.4956 69.6873 32.0965C72.9659 27.7078 69.2245 27.7988 67.9531 27.5681C60.4383 26.4893 50.2833 17.3626 54.0163 2.91626C54.8276 -0.183908 53.29 -0.21803 52.1623 0.158931C52.1665 0.163805 40.4418 3.19411 39.7099 18.9094ZM49.5849 6.40151C47.8648 16.8134 55.0186 29.6983 65.0301 30.925C63.1078 32.6343 60.5568 33.9879 57.9431 34.3728C56.3499 32.0364 53.7069 30.098 49.3046 30.098C48.3052 25.2967 46.1139 22.3995 43.7121 20.7113C43.1085 12.61 47.4368 7.9386 49.5849 6.40151Z" fill="white"/>
</g>
<defs>
<clipPath id="clip0">
<rect width="71" height="68" fill="white"/>
</clipPath>
</defs>
</svg>
