<svg width="60" height="60" viewBox="0 0 60 60" fill="none" xmlns="http://www.w3.org/2000/svg">
<g clip-path="url(#clip0)">
<path d="M14.7701 51.481C15.9125 51.481 16.8437 50.3856 16.8437 49.0327C16.8437 47.6799 15.9125 46.5845 14.7701 46.5845H7.09109C5.94585 46.5845 5.01465 47.6799 5.01465 49.0327C5.01465 50.3856 5.94585 51.481 7.09109 51.481H14.7701Z" fill="white"/>
<path d="M30.1835 51.481C31.3287 51.481 32.2571 50.3856 32.2571 49.0327C32.2571 47.6799 31.3287 46.5845 30.1835 46.5845H22.5045C21.3593 46.5845 20.4281 47.6799 20.4281 49.0327C20.4281 50.3856 21.3593 51.481 22.5045 51.481H30.1835Z" fill="white"/>
<path d="M45.5984 51.481C46.7422 51.481 47.6706 50.3856 47.6706 49.0327C47.6706 47.6799 46.7422 46.5845 45.5984 46.5845H37.9194C36.7742 46.5845 35.8458 47.6799 35.8458 49.0327C35.8458 50.3856 36.7742 51.481 37.9194 51.481H45.5984Z" fill="white"/>
<path d="M22.4489 60C23.5942 60 24.5226 58.9046 24.5226 57.5533C24.5226 56.2021 23.5942 55.1067 22.4489 55.1067H14.77C13.622 55.1067 12.6935 56.2021 12.6935 57.5533C12.6935 58.9046 13.622 60 14.77 60H22.4489Z" fill="white"/>
<path d="M37.8651 60C39.0062 60 39.9374 58.9046 39.9374 57.5533C39.9346 56.2021 39.0062 55.1067 37.8651 55.1067H30.1834C29.0353 55.1067 28.1097 56.2021 28.1097 57.5533C28.1097 58.9046 29.0353 60 30.1834 60H37.8651Z" fill="white"/>
<path d="M53.2759 60C54.4211 60 55.3523 58.9046 55.3523 57.5533C55.3523 56.2021 54.4211 55.1067 53.2759 55.1067H45.5983C44.4531 55.1067 43.5247 56.2021 43.5247 57.5533C43.5247 58.9046 44.4531 60 45.5983 60H53.2759Z" fill="white"/>
<path d="M49.5191 41.7502C55.3065 41.7502 60 36.2158 60 29.3826C60 29.3826 60.0514 17.0297 49.0313 17.0297C46.6477 5.4541 37.4746 4.86704 34.8992 5.68531C32.1098 2.40728 27.4607 0 22.7589 0C13.4427 0 5.80681 8.50255 5.12022 19.291C2.05976 21.3671 0 25.2584 0 29.7188C0 36.3667 4.56567 41.7502 10.1987 41.7502H49.5191ZM11.0785 37.1439C7.27033 37.1439 4.46004 33.8922 4.46004 29.6843C4.46004 26.2472 6.31133 23.2332 9.20222 22.205C9.54413 5.96409 21.6372 5.13433 22.9812 5.13433C26.9743 5.13433 30.9381 7.4465 33.4913 10.8688C38.6463 8.86988 45.7151 13.5598 44.9256 22.6298C46.9368 21.6672 48.9507 21.741 49.5288 21.741C52.4142 21.741 55.9069 24.7255 55.9069 29.6155C55.9069 33.7724 53.0466 37.1423 49.5288 37.1423L11.0785 37.1439Z" fill="white"/>
</g>
<defs>
<clipPath id="clip0">
<rect width="60" height="60" fill="white"/>
</clipPath>
</defs>
</svg>
