<svg width="35" height="35" viewBox="0 0 35 35" fill="none" xmlns="http://www.w3.org/2000/svg">
<g clip-path="url(#clip0)">
<path d="M20.7065 17.5287L34.3349 3.89993C35.2218 3.01344 35.2218 1.5801 34.3349 0.693611C33.4484 -0.192881 32.015 -0.192881 31.1285 0.693611L17.4998 14.3223L3.8715 0.693611C2.98459 -0.192881 1.55167 -0.192881 0.665181 0.693611C-0.221727 1.5801 -0.221727 3.01344 0.665181 3.89993L14.2935 17.5287L0.665181 31.1574C-0.221727 32.0439 -0.221727 33.4772 0.665181 34.3637C1.10697 34.8059 1.68786 35.028 2.26834 35.028C2.84882 35.028 3.42929 34.8059 3.8715 34.3637L17.4998 20.735L31.1285 34.3637C31.5707 34.8059 32.1512 35.028 32.7317 35.028C33.3122 35.028 33.8926 34.8059 34.3349 34.3637C35.2218 33.4772 35.2218 32.0439 34.3349 31.1574L20.7065 17.5287Z" fill="white"/>
</g>
<defs>
<clipPath id="clip0">
<rect width="35" height="35" fill="white"/>
</clipPath>
</defs>
</svg>
