<svg width="348" height="427" viewBox="0 0 348 427" fill="none" xmlns="http://www.w3.org/2000/svg">
<path d="M29.3989 127.121V373.499C29.3989 388.061 34.7387 401.737 44.0668 411.549C53.3519 421.389 66.2738 426.975 79.7971 426.999H269C282.527 426.975 295.449 421.389 304.73 411.549C314.058 401.737 319.398 388.061 319.398 373.499V127.121C337.941 122.199 349.956 104.285 347.476 85.2575C344.992 66.2342 328.785 52.0037 309.597 51.9998H258.398V39.4999C258.457 28.9882 254.301 18.8945 246.859 11.4687C239.418 4.04685 229.308 -0.0859508 218.797 -1.36007e-05H130C119.488 -0.0859508 109.379 4.04685 101.938 11.4687C94.4963 18.8945 90.3401 28.9882 90.3987 39.4999V51.9998H39.1996C20.0122 52.0037 3.80519 66.2342 1.32082 85.2575C-1.15964 104.285 10.8559 122.199 29.3989 127.121ZM269 406.999H79.7971C62.6995 406.999 49.3988 392.311 49.3988 373.499V128H299.398V373.499C299.398 392.311 286.097 406.999 269 406.999ZM110.399 39.4999C110.332 34.2928 112.379 29.2811 116.074 25.6054C119.766 21.9296 124.789 19.9101 130 19.9999H218.797C224.008 19.9101 229.031 21.9296 232.722 25.6054C236.418 29.2772 238.465 34.2928 238.398 39.4999V51.9998H110.399V39.4999ZM39.1996 71.9998H309.597C319.539 71.9998 327.597 80.0583 327.597 89.9997C327.597 99.9411 319.539 108 309.597 108H39.1996C29.2582 108 21.1997 99.9411 21.1997 89.9997C21.1997 80.0583 29.2582 71.9998 39.1996 71.9998Z" fill="#FF0000"/>
</svg>
