<svg width="19" height="19" viewBox="0 0 19 19" fill="none" xmlns="http://www.w3.org/2000/svg">
<path d="M9.50336 1.01609e-07C5.70218 -0.000554065 2.26674 2.26571 0.770606 5.7608L0.652197 5.80007L0.698104 5.93782C-1.27179 10.7973 1.06983 16.3339 5.92831 18.3042C7.06304 18.7644 8.27606 19.0007 9.50055 19C14.7462 19.0008 18.9992 14.7481 19 9.50142C19.0008 4.25473 14.749 0.000752185 9.50336 1.01609e-07ZM16.9535 14.2897L16.4658 13.8022V12.6667C16.4663 12.6177 16.4555 12.5692 16.4341 12.5251L15.1994 10.0586V8.86667C15.1994 8.76082 15.1465 8.66194 15.0585 8.6032L14.1087 7.96987C14.0342 7.92015 13.9422 7.90428 13.8554 7.92617L12.6922 8.21687L10.7385 7.37833L10.4697 5.4948L11.2146 4.75H12.8138L13.352 5.55908C13.4006 5.63184 13.4772 5.68128 13.5635 5.69557L15.4631 6.01223C15.514 6.02078 15.5661 6.01663 15.6151 6.0002L17.3646 5.4169C18.832 8.23345 18.675 11.621 16.9535 14.2897ZM15.6477 3.12043L15.1329 3.4637L13.6977 3.17648L12.7666 2.86647C12.7096 2.84711 12.6483 2.84466 12.5899 2.8595L11.4128 3.15368L10.8968 2.98173L11.2792 2.21667H12.35C12.3991 2.21671 12.4475 2.20535 12.4915 2.18342L13.5869 1.63558C14.3413 2.02944 15.0353 2.52945 15.6477 3.12043ZM6.03283 1.34045L6.79267 1.84712C6.83003 1.87197 6.87221 1.8886 6.91646 1.89588L8.45071 2.15175L8.30095 2.59983L7.50154 2.86678C7.42995 2.89061 7.3692 2.93922 7.33026 3.0039L6.42098 4.51947L4.9605 5.396L2.80761 5.70348C2.65157 5.72553 2.53554 5.85905 2.53534 6.01667V6.96667C2.53534 7.05066 2.56874 7.13117 2.6281 7.19055L3.16854 7.7311V8.27513L1.85148 7.3967L1.37373 5.96315C2.28269 3.88582 3.94868 2.23282 6.03283 1.34045ZM5.13146 11.723L3.70043 11.4364L3.16854 10.3753V9.6311L4.34819 8.4512L4.78479 9.32488C4.83841 9.43223 4.94815 9.50004 5.06814 9.5H7.10515L7.96282 10.9297C8.02005 11.025 8.12302 11.0833 8.23415 11.0833H9.1143L8.89268 12.1939L7.69403 13.3928C7.63455 13.4521 7.60107 13.5326 7.60095 13.6167V14.4083L6.46119 15.2633C6.38148 15.3231 6.33455 15.417 6.33455 15.5167V16.6605L5.9407 16.53L5.38474 15.1392V12.0333C5.38478 11.8828 5.27888 11.7531 5.13146 11.723ZM4.17976 16.591C1.19465 14.351 -0.0677532 10.4807 1.0223 6.91093L1.2854 7.70007C1.30756 7.76684 1.35133 7.82436 1.40982 7.86347L2.98808 8.91575L2.6281 9.27612C2.56874 9.33549 2.53534 9.416 2.53534 9.5V10.45C2.5353 10.4991 2.54666 10.5476 2.56858 10.5915L3.20178 11.8582C3.24563 11.9457 3.32743 12.008 3.4234 12.027L4.75313 12.2927V15.2C4.75309 15.2402 4.76072 15.2801 4.7756 15.3175L5.40881 16.9008C5.44347 16.9873 5.51447 17.0542 5.60288 17.0835L6.55268 17.4002C6.58442 17.411 6.61767 17.4165 6.65115 17.4167C6.82599 17.4167 6.96775 17.2749 6.96775 17.1V15.675L8.10751 14.82C8.18721 14.7602 8.23415 14.6663 8.23415 14.5667V13.7478L9.40779 12.5739C9.45192 12.5297 9.48199 12.4733 9.49422 12.4121L9.81082 10.8287C9.84509 10.6572 9.73389 10.4904 9.56241 10.4561C9.54203 10.4521 9.52133 10.45 9.50055 10.45H8.41335L7.55568 9.02025C7.49845 8.92497 7.39548 8.8667 7.28435 8.86667H5.2638L4.71988 7.77512C4.67433 7.68399 4.58774 7.62035 4.48718 7.60412C4.38666 7.58674 4.28404 7.61991 4.21269 7.69278L3.80174 8.10223V7.6C3.80174 7.516 3.76834 7.43549 3.70898 7.37612L3.16854 6.83557V6.29122L5.1131 6.0135C5.15485 6.00744 5.19502 5.99311 5.23119 5.97138L6.8142 5.02138C6.8586 4.9947 6.8958 4.9575 6.92247 4.91308L7.81212 3.43013L8.6508 3.1502C8.7455 3.11913 8.81982 3.04483 8.85089 2.95007L9.16749 2.00007C9.22234 1.83401 9.13223 1.6549 8.96621 1.60004C8.9509 1.59497 8.93518 1.59109 8.91928 1.5884L7.08679 1.28282L6.76481 1.06812C8.75714 0.419504 10.915 0.499779 12.8537 1.29453L12.2752 1.58333H11.0836C10.963 1.58266 10.8525 1.65059 10.7986 1.75845L10.1654 3.02512C10.0874 3.18163 10.151 3.37179 10.3075 3.44981C10.3208 3.45646 10.3346 3.46216 10.3487 3.46687L11.2985 3.78353C11.3555 3.80289 11.4169 3.80534 11.4752 3.7905L12.6523 3.49632L13.5147 3.78353C13.5271 3.78797 13.5398 3.79137 13.5527 3.79367L15.1357 4.11033C15.218 4.12712 15.3037 4.11025 15.3735 4.06347L16.0941 3.58277C16.4487 3.97785 16.7674 4.40376 17.0464 4.85545L15.4887 5.37478L13.8022 5.09358L13.245 4.25758C13.1866 4.16999 13.0884 4.11718 12.9832 4.11667H11.0836C10.9996 4.11667 10.9191 4.15007 10.8597 4.20945L9.90992 5.15945C9.8394 5.22995 9.80619 5.32958 9.82032 5.4283L10.1369 7.64497C10.1529 7.75457 10.2249 7.84787 10.3269 7.89102L12.5431 8.84101C12.6066 8.86853 12.6774 8.87419 12.7444 8.85717L13.875 8.57438L14.5662 9.03608V10.1333C14.5656 10.1823 14.5765 10.2308 14.5978 10.2749L15.8326 12.7414V13.9333C15.8326 14.0173 15.866 14.0978 15.9253 14.1572L16.5877 14.82C13.6503 18.7361 8.09504 19.529 4.17976 16.591Z" fill="white"/>
</svg>
