<svg width="30" height="22" viewBox="0 0 30 22" fill="none" xmlns="http://www.w3.org/2000/svg">
<g clip-path="url(#clip0)">
<path d="M5.81424 12.1214C6.4959 12.1214 7.05117 11.5668 7.05117 10.8832C7.05117 10.1996 6.4959 9.645 5.81424 9.645H1.23818C0.554007 9.645 0 10.1996 0 10.8832C0 11.5668 0.554007 12.1214 1.23818 12.1207L5.81424 12.1214Z" fill="white"/>
<path d="M15.0009 12.1214C15.6826 12.1214 16.2366 11.5668 16.2366 10.8832C16.2353 10.1996 15.6826 9.645 15.0009 9.645H10.4236C9.73943 9.645 9.18542 10.1996 9.18542 10.8832C9.18542 11.5668 9.73943 12.1214 10.4236 12.1207L15.0009 12.1214Z" fill="white"/>
<path d="M5.81387 20.8098C6.49554 20.8098 7.0508 20.2552 7.0508 19.5716C7.0508 18.888 6.49554 18.3334 5.81387 18.3334H1.23782C0.553641 18.3334 -0.000366211 18.888 -0.000366211 19.5716C-0.000366211 20.2552 0.553641 20.8098 1.23782 20.8091L5.81387 20.8098Z" fill="white"/>
<path d="M15.0006 20.8098C15.6822 20.8098 16.2362 20.2552 16.2362 19.5716C16.235 18.888 15.6822 18.3334 15.0006 18.3334H10.4232C9.73907 18.3334 9.18506 18.888 9.18506 19.5716C9.18506 20.2552 9.73907 20.8098 10.4232 20.8091L15.0006 20.8098Z" fill="white"/>
<path d="M24.1854 20.8098C24.8696 20.8098 25.4236 20.2552 25.4236 19.5716C25.4236 18.888 24.8696 18.3334 24.1854 18.3334H19.6081C18.9252 18.3334 18.3724 18.888 18.3724 19.5716C18.3724 20.2552 18.9252 20.8098 19.6081 20.8091L24.1854 20.8098Z" fill="white"/>
<path d="M24.1858 12.1214C24.87 12.1214 25.424 11.5668 25.424 10.8832C25.424 10.1996 24.87 9.645 24.1858 9.645H19.6085C18.9256 9.645 18.3728 10.1996 18.3728 10.8832C18.3728 11.5668 18.9256 12.1214 19.6085 12.1207L24.1858 12.1214Z" fill="white"/>
<path d="M5.81424 3.36323C6.4959 3.36323 7.05117 2.80992 7.05117 2.12631C7.05117 1.4427 6.4959 0.88813 5.81424 0.88813H1.23818C0.554007 0.88813 0 1.44207 0 2.12631C0 2.80992 0.554007 3.36323 1.23818 3.36323H5.81424Z" fill="white"/>
<path d="M15.0009 3.36281C15.6826 3.36281 16.2366 2.8095 16.2366 2.12589C16.2353 1.44228 15.6826 0.887711 15.0009 0.887711H10.4236C9.73943 0.887711 9.18542 1.44228 9.18542 2.12589C9.18542 2.8095 9.73943 3.36281 10.4236 3.36281H15.0009Z" fill="white"/>
<path d="M24.1858 3.36281C24.87 3.36281 25.424 2.8095 25.424 2.12589C25.424 1.44228 24.87 0.887711 24.1858 0.887711H19.6085C18.9256 0.887711 18.3728 1.44228 18.3728 2.12589C18.3728 2.8095 18.9256 3.36281 19.6085 3.36281H24.1858Z" fill="white"/>
<path d="M10.3916 16.5C11.0733 16.5 11.6273 15.9461 11.6273 15.2618C11.6273 14.5788 11.0733 14.0243 10.3916 14.0243H5.81432C5.13014 14.0243 4.57739 14.5788 4.57739 15.2618C4.57739 15.9461 5.13014 16.5 5.81432 16.4994L10.3916 16.5Z" fill="white"/>
<path d="M19.5776 16.5C20.2605 16.5 20.8146 15.9461 20.8146 15.2618C20.8133 14.5788 20.2593 14.0243 19.5776 14.0243H15.0016C14.3161 14.0243 13.7646 14.5788 13.7646 15.2618C13.7646 15.9461 14.3161 16.5 15.0016 16.4994L19.5776 16.5Z" fill="white"/>
<path d="M28.7631 16.5C29.446 16.5 30 15.9461 30 15.2618C30 14.5788 29.446 14.0243 28.7631 14.0243H24.1857C23.5028 14.0243 22.9501 14.5788 22.9501 15.2618C22.9501 15.9461 23.5028 16.5 24.1857 16.4994L28.7631 16.5Z" fill="white"/>
<path d="M10.3916 7.74209C11.0733 7.74209 11.6273 7.18815 11.6273 6.50391C11.6273 5.82093 11.0733 5.26636 10.3916 5.26636H5.81432C5.13014 5.26636 4.57739 5.82093 4.57739 6.50391C4.57739 7.18815 5.13014 7.74209 5.81432 7.74146L10.3916 7.74209Z" fill="white"/>
<path d="M19.5776 7.74209C20.2605 7.74209 20.8146 7.18815 20.8146 6.50391C20.8133 5.82093 20.2593 5.26636 19.5776 5.26636H15.0016C14.3161 5.26636 13.7646 5.82093 13.7646 6.50391C13.7646 7.18815 14.3161 7.74209 15.0016 7.74146L19.5776 7.74209Z" fill="white"/>
<path d="M28.7631 7.74209C29.446 7.74209 30 7.18815 30 6.50391C30 5.82093 29.446 5.26636 28.7631 5.26636H24.1857C23.5028 5.26636 22.9501 5.82093 22.9501 6.50391C22.9501 7.18815 23.5028 7.74209 24.1857 7.74146L28.7631 7.74209Z" fill="white"/>
</g>
<defs>
<clipPath id="clip0">
<rect width="30" height="22" fill="white"/>
</clipPath>
</defs>
</svg>
