<svg width="32" height="24" viewBox="0 0 32 24" fill="none" xmlns="http://www.w3.org/2000/svg">
<g clip-path="url(#clip0)">
<path d="M23.9576 9.62688C25.0314 9.21738 26.1051 9.25011 26.413 9.25011C27.9529 9.25011 29.8155 10.5176 29.8155 12.6C29.8155 14.3682 28.2904 15.8022 26.413 15.8022H26.2598C25.6863 15.8022 25.2193 16.2417 25.2193 16.7835C25.2193 17.3225 25.6863 17.7606 26.2598 17.7606H26.4085C29.4958 17.7606 31.9993 15.4059 31.9993 12.499C31.9993 12.499 32.0281 7.24367 26.1517 7.24367C24.8812 2.32054 19.986 2.07051 18.6126 2.41804C17.1237 1.02377 14.6447 0 12.1383 0C7.16842 0 3.09692 3.61591 2.72914 8.20615C1.09891 9.08993 0 10.7454 0 12.6425C0 15.4707 2.43535 17.7613 5.43829 17.7613H6.17755C6.64894 17.7613 7.09072 17.2821 7.09072 16.7821C7.09072 16.2417 6.62526 15.8029 6.05027 15.8029H5.90967C3.8791 15.8029 2.37985 14.4198 2.37985 12.6292C2.37985 11.1674 3.36628 9.88526 4.90845 9.4479C5.09123 2.53783 11.5404 2.18473 12.2567 2.18473C14.3864 2.18473 16.4999 3.1688 17.86 4.62436C20.6106 3.77331 24.3802 5.76861 23.9576 9.62688Z" fill="white"/>
<path d="M11.9081 21.8996L14.9396 18.6478C15.0261 18.555 15.0735 18.4314 15.0732 18.2997C15.0729 18.1679 15.025 18.0446 14.9382 17.9521L14.6617 17.6579C14.575 17.5655 14.4592 17.5147 14.3359 17.515C14.2127 17.5152 14.0932 17.5665 14.0069 17.6592L12.2345 19.5563L12.2226 13.5403C12.2221 13.269 12.0229 13.0551 11.769 13.0556L11.379 13.0564C11.1251 13.0569 10.9067 13.2716 10.9072 13.5429L10.9191 19.5804L9.12931 17.6689C9.04241 17.5765 8.92981 17.5257 8.80651 17.5259C8.68334 17.5262 8.5693 17.5774 8.48283 17.6702L8.20842 17.9654C8.12189 18.0582 8.07488 18.1817 8.07514 18.3136C8.07539 18.4452 8.12351 18.5686 8.21041 18.6611L11.2546 21.901C11.3418 21.9937 11.458 22.0445 11.5815 22.0439C11.7053 22.044 11.8214 21.9927 11.9081 21.8996Z" fill="white"/>
<path d="M20.9081 20.8996L23.9396 17.6478C24.0261 17.555 24.0735 17.4314 24.0732 17.2997C24.0729 17.1679 24.025 17.0446 23.9382 16.9521L23.6617 16.6579C23.575 16.5655 23.4592 16.5147 23.3359 16.515C23.2127 16.5152 23.0932 16.5665 23.0069 16.6592L21.2345 18.5563L21.2226 12.5403C21.2221 12.269 21.0229 12.0551 20.769 12.0556L20.379 12.0564C20.1251 12.0569 19.9067 12.2716 19.9072 12.5429L19.9191 18.5804L18.1293 16.6689C18.0424 16.5765 17.9298 16.5257 17.8065 16.5259C17.6833 16.5262 17.5693 16.5774 17.4828 16.6702L17.2084 16.9654C17.1219 17.0582 17.0749 17.1817 17.0751 17.3136C17.0754 17.4452 17.1235 17.5686 17.2104 17.6611L20.2546 20.901C20.3418 20.9937 20.458 21.0445 20.5815 21.0439C20.7053 21.044 20.8214 20.9927 20.9081 20.8996Z" fill="white"/>
</g>
<defs>
<clipPath id="clip0">
<rect width="32" height="24" fill="white"/>
</clipPath>
</defs>
</svg>
