<svg width="201" height="193" viewBox="0 0 201 193" fill="none" xmlns="http://www.w3.org/2000/svg">
<g clip-path="url(#clip0)">
<path d="M24.142 105.4C23.754 102.296 23.5547 99.2123 23.5547 96.5C23.5547 56.0144 58.3362 22.6172 100.5 22.6172C120.167 22.6172 138.58 30.2313 152.124 42.1054L145.332 48.7403C143.802 50.2099 143.213 52.3582 143.802 54.3946C144.509 56.3162 146.157 57.7872 148.276 58.2393C149.462 58.4675 188.404 70.5167 185.924 70.0382C189.079 71.0468 193.743 67.8162 192.874 63.3664C192.635 62.2267 184.013 20.6897 184.512 23.0692C184.041 21.0343 182.509 19.338 180.39 18.7726C178.388 18.2071 176.149 18.7726 174.619 20.2421L168.848 25.6696C151.064 9.72569 126.645 0 100.5 0C45.2646 0 0 43.463 0 96.5V96.7253C0 99.9132 0.151817 102.377 0.328171 104.261C0.562798 106.759 2.47968 108.804 5.04064 109.297L17.1385 111.619C21.0765 112.376 24.6174 109.206 24.142 105.4V105.4Z" fill="white"/>
<path d="M195.995 83.6939L183.862 81.3203C179.919 80.5487 176.354 83.7219 176.838 87.5459C177.258 90.8457 177.445 94.0542 177.445 96.5C177.445 136.984 142.664 170.383 100.5 170.383C80.8328 170.383 62.42 162.769 48.876 150.781L55.6679 144.26C57.1984 142.79 57.7872 140.642 57.1984 138.605C56.4914 136.682 54.8429 135.213 52.7236 134.761C51.5382 134.531 12.5963 122.483 15.076 122.962C13.0732 122.623 11.0705 123.189 9.77617 124.545C8.36228 125.789 7.77341 127.824 8.12612 129.634C8.36534 130.772 16.9883 171.932 16.4899 169.552C16.9591 171.589 18.4911 173.285 20.6104 173.849C23.0686 174.441 25.1205 173.725 26.381 172.379L32.035 166.952C49.8176 182.897 74.2372 193 100.5 193C155.735 193 201 149.537 201 96.5V96.1599C201 93.6537 200.905 91.1932 200.687 88.7474C200.463 86.2486 198.554 84.196 195.995 83.6939Z" fill="white"/>
</g>
<defs>
<clipPath id="clip0">
<rect width="201" height="193" fill="white"/>
</clipPath>
</defs>
</svg>
