<svg width="25" height="25" viewBox="0 0 25 25" fill="none" xmlns="http://www.w3.org/2000/svg">
<g clip-path="url(#clip0)">
<path d="M24.6945 23.2226L17.5852 16.1133C18.9623 14.4123 19.7915 12.2509 19.7915 9.89673C19.7915 4.44053 15.3519 0.000976562 9.8957 0.000976562C4.43951 0.000976562 0 4.44048 0 9.89668C0 15.3529 4.43956 19.7924 9.89575 19.7924C12.2499 19.7924 14.4113 18.9633 16.1123 17.5862L23.2216 24.6955C23.4248 24.8986 23.6914 25.0007 23.9581 25.0007C24.2248 25.0007 24.4915 24.8986 24.6946 24.6955C25.1019 24.2882 25.1019 23.6299 24.6945 23.2226ZM9.89575 17.7091C5.58745 17.7091 2.08333 14.205 2.08333 9.89668C2.08333 5.58837 5.58745 2.08426 9.89575 2.08426C14.2041 2.08426 17.7082 5.58837 17.7082 9.89668C17.7082 14.205 14.204 17.7091 9.89575 17.7091Z" fill="white"/>
</g>
<defs>
<clipPath id="clip0">
<rect width="25" height="25" fill="white"/>
</clipPath>
</defs>
</svg>
