<svg width="25" height="62" viewBox="0 0 25 62" fill="none" xmlns="http://www.w3.org/2000/svg">
<path d="M20.0073 41.3123L20.004 6.91281C20.004 3.09662 16.6416 0 12.4975 0C8.35171 0 4.99432 3.09662 4.99432 6.91281V41.3092C1.96766 43.4111 0 46.7352 0 50.4945C0 56.8508 5.59564 62 12.5008 62C19.401 62 24.9983 56.8492 24.9983 50.4945C25 46.7352 23.0323 43.4111 20.0073 41.3123ZM12.5008 57.781C8.12955 57.781 4.58676 54.5198 4.58676 50.4961C4.58676 47.4333 6.63961 44.8148 9.55268 43.737V7.1296C9.55268 5.62742 10.8706 4.41122 12.5025 4.41122C14.1311 4.41122 15.4523 5.62742 15.4523 7.1296V9.99097H13.0921C12.5175 9.99097 12.0515 10.4199 12.0515 10.9504C12.0515 11.4793 12.5175 11.9098 13.0921 11.9114H15.4507V17.4281H13.0921C12.5175 17.4281 12.0515 17.8586 12.0515 18.3875C12.0515 18.9164 12.5175 19.3485 13.0921 19.3485H15.4507V43.7355C18.3604 44.8133 20.4149 47.4318 20.4149 50.4945C20.4149 54.5198 16.8721 57.781 12.5008 57.781Z" fill="white"/>
<path d="M13.7803 45.6882V25.1173C13.7803 24.4654 13.2091 23.935 12.5008 23.935C11.7926 23.935 11.218 24.4654 11.218 25.1173V45.6882C8.85949 46.2202 7.1073 48.1605 7.1073 50.4945C7.1073 53.236 9.52094 55.4593 12.5008 55.4593C15.4824 55.4593 17.891 53.2375 17.891 50.4945C17.891 48.1605 16.1355 46.2202 13.7803 45.6882Z" fill="white"/>
</svg>
