<svg width="32" height="24" viewBox="0 0 32 24" fill="none" xmlns="http://www.w3.org/2000/svg">
<path d="M31.7966 11.1549C31.5107 10.781 24.6993 2 15.9998 2C7.30039 2 0.488626 10.781 0.203063 11.1545C-0.0676877 11.5093 -0.0676877 11.9903 0.203063 12.3451C0.488626 12.7189 7.30039 21.5 15.9998 21.5C24.6993 21.5 31.5107 12.7189 31.7966 12.3453C32.0677 11.9907 32.0677 11.5092 31.7966 11.1549ZM15.9998 19.4827C9.59177 19.4827 4.0417 13.6546 2.39875 11.7493C4.03957 9.84232 9.57802 4.01723 15.9998 4.01723C22.4076 4.01723 27.9573 9.84435 29.6009 11.7507C27.9601 13.6576 22.4217 19.4827 15.9998 19.4827Z" fill="white"/>
<path d="M15.9999 5.69827C12.5097 5.69827 9.67017 8.41315 9.67017 11.75C9.67017 15.0869 12.5097 17.8018 15.9999 17.8018C19.49 17.8018 22.3296 15.0869 22.3296 11.75C22.3296 8.41315 19.49 5.69827 15.9999 5.69827ZM15.9999 15.7845C13.673 15.7845 11.7801 13.9747 11.7801 11.75C11.7801 9.52538 13.673 7.71556 15.9999 7.71556C18.3267 7.71556 20.2196 9.52538 20.2196 11.75C20.2196 13.9747 18.3267 15.7845 15.9999 15.7845Z" fill="white"/>
</svg>
