<svg width="32" height="26" viewBox="0 0 32 26" fill="none" xmlns="http://www.w3.org/2000/svg">
<g clip-path="url(#clip0)">
<path d="M15.6137 15.7513C15.906 15.2862 15.7336 14.6938 15.2267 14.4278C14.7191 14.1604 14.0716 14.3195 13.78 14.7812L9.92246 20.7162L8.32852 23.242C7.92671 23.8798 7.5323 24.0578 6.90775 24.0578C6.0464 24.0578 5.35007 23.4214 5.35007 22.6334C5.35007 21.9186 5.928 21.3323 6.67835 21.2307L6.67687 21.224C7.22742 21.159 7.56708 20.5815 7.43166 20.0684C7.29254 19.5457 6.71609 19.2235 6.1426 19.3501V19.3515C4.48355 19.6757 3.23889 21.0229 3.23889 22.6382C3.23889 24.4945 4.88388 25.9994 6.91293 25.9994C8.00737 25.9994 8.97823 25.6027 9.65162 24.8864C10.4293 25.9689 12.0033 26.325 13.2487 25.671C14.3735 25.0794 14.8559 23.8601 14.4741 22.7743L14.4756 22.7729C14.3542 22.3931 13.9191 22.1745 13.5033 22.2855C13.097 22.3938 12.818 22.8034 12.9742 23.1479L12.9682 23.1493C13.1732 23.6239 12.9756 24.1763 12.4784 24.4369C11.9323 24.7239 11.2308 24.552 10.9163 24.0497C10.7179 23.7335 10.6765 23.4688 10.8659 23.0985C12.6404 20.3094 15.6137 15.7513 15.6137 15.7513Z" fill="white"/>
<path d="M17.2143 19.103C16.9094 19.5931 16.9346 19.9011 17.1803 20.2768C17.514 20.7954 18.2444 20.968 18.8105 20.6593C19.3225 20.3804 19.5216 19.805 19.3033 19.3135L19.3077 19.3121C19.1398 18.9547 19.4232 18.5255 19.8472 18.4077C20.2779 18.2872 20.7329 18.5092 20.8647 18.9032H20.8632C21.2768 20.0284 20.7907 21.3058 19.6289 21.9327C18.291 22.6564 16.5676 22.2523 15.7802 21.0283C15.2615 20.2288 15.2297 19.3067 15.7195 18.5133C16.1398 17.8323 18.1792 14.6735 18.1792 14.6735C18.399 14.3181 18.8948 14.1901 19.2848 14.3905C19.6725 14.5929 19.8094 15.0451 19.5911 15.4006L17.2143 19.103Z" fill="white"/>
<path d="M23.9586 9.33823C25.0323 8.94017 26.1053 8.97199 26.4131 8.97199C27.9523 8.97199 29.8148 10.2048 29.8148 12.2289C29.8148 13.9484 28.2904 15.341 26.4131 15.341H22.574C21.9991 15.341 21.5336 15.7688 21.5336 16.2949C21.5336 16.8195 21.9991 17.2453 22.574 17.2453H26.4087C29.4959 17.2453 32 14.9558 32 12.1301C32 12.1301 32.0274 7.02229 26.1511 7.02229C24.8806 2.23606 19.9871 1.9937 18.6122 2.33084C17.1248 0.974172 14.6458 -0.0209846 12.141 -0.0209846C7.17047 -0.0209846 3.09759 3.49388 2.73055 7.95584C1.09962 8.8156 0 10.4248 0 12.2695C0 15.0181 2.4353 17.246 5.4389 17.246H9.32236C9.79521 17.246 10.237 16.7802 10.237 16.2928C10.237 15.7682 9.77005 15.3417 9.19508 15.3417H5.90954C3.87753 15.3417 2.3798 13.9965 2.3798 12.2567C2.3798 10.8357 3.36398 9.58939 4.90611 9.16425C5.09111 2.44795 11.5401 2.10473 12.2571 2.10473C14.3876 2.10473 16.5017 3.06129 17.8618 4.47618C20.6116 3.64891 24.3796 5.58777 23.9586 9.33823Z" fill="white"/>
</g>
<defs>
<clipPath id="clip0">
<rect width="32" height="26" fill="white"/>
</clipPath>
</defs>
</svg>
