<svg width="55" height="55" viewBox="0 0 55 55" fill="none" xmlns="http://www.w3.org/2000/svg">
<path d="M30.7844 2.4028C30.7844 1.07656 29.693 0 28.3469 0C27.0007 0 25.908 1.07656 25.9066 2.4028L25.908 7.74132C25.908 9.06756 27.0007 10.1455 28.3469 10.1455C29.693 10.1455 30.7844 9.06756 30.7844 7.74132V2.4028Z" fill="white"/>
<path d="M11.7611 8.1588C10.8087 7.2205 9.2636 7.2205 8.31121 8.1588C7.35883 9.0971 7.35883 10.6193 8.31121 11.5576L12.1426 15.331C13.0963 16.2693 14.64 16.2693 15.5924 15.331C16.5448 14.394 16.5448 12.8718 15.5924 11.9348L11.7611 8.1588Z" fill="white"/>
<path d="M2.44024 24.6683C1.09272 24.6683 0 25.7449 0 27.0711C0 28.3974 1.09409 29.4739 2.43887 29.4739H7.85753C9.20368 29.4739 10.2964 28.3974 10.2964 27.0698C10.2964 25.7449 9.20368 24.6683 7.85753 24.6683H2.44024Z" fill="white"/>
<path d="M8.28131 44.2223C7.32892 45.1606 7.32892 46.6815 8.28131 47.6198C9.23506 48.5568 10.7774 48.5568 11.7312 47.6198L15.5611 43.8451C16.5149 42.9068 16.5149 41.3846 15.5611 40.4476C14.6101 39.512 13.0637 39.512 12.1127 40.449L8.28131 44.2223Z" fill="white"/>
<path d="M25.863 52.5945C25.863 53.9208 26.9544 54.9987 28.3019 54.9987C29.6481 54.996 30.7422 53.9208 30.7422 52.5945V47.256C30.7422 45.9298 29.6481 44.8532 28.3019 44.8532C26.9571 44.8532 25.863 45.9311 25.863 47.2547V52.5945Z" fill="white"/>
<path d="M44.8876 47.652C45.8372 48.5903 47.3837 48.5903 48.3361 47.652C49.2844 46.7137 49.2844 45.1928 48.3361 44.2545L44.5047 40.4798C43.5523 39.5429 42.0086 39.5429 41.0562 40.4798C40.1038 41.4181 40.1038 42.939 41.0562 43.876L44.8876 47.652Z" fill="white"/>
<path d="M52.5598 30.3303C53.9087 30.3303 55 29.2524 55 27.9275C55 26.5999 53.9086 25.5234 52.5625 25.5234H47.1438C45.7977 25.5234 44.7036 26.5986 44.7036 27.9275C44.7036 29.2524 45.7977 30.3303 47.1438 30.3276L52.5598 30.3303Z" fill="white"/>
<path d="M48.3659 11.5872C49.321 10.6502 49.321 9.12665 48.3659 8.19103C47.4135 7.25273 45.8726 7.25273 44.9174 8.19103L41.0875 11.9657C40.1351 12.904 40.1351 14.4235 41.0875 15.3632C42.0398 16.3015 43.5836 16.3015 44.5359 15.3632L48.3659 11.5872Z" fill="white"/>
<path d="M28.3468 13.0208C19.9742 13.0208 13.189 19.707 13.189 27.9571C13.189 36.2071 19.9756 42.8934 28.3468 42.8934C36.7207 42.8934 43.5073 36.2071 43.5073 27.9571C43.5073 19.7083 36.7207 13.0208 28.3468 13.0208ZM28.3468 38.124C22.6461 38.124 18.0245 33.5708 18.0245 27.9571C18.0245 22.3434 22.6461 17.7874 28.3468 17.7874C34.0488 17.7874 38.6691 22.3434 38.6691 27.9571C38.6691 33.5708 34.0461 38.124 28.3468 38.124Z" fill="white"/>
</svg>
