<svg width="46" height="55" viewBox="0 0 46 55" fill="none" xmlns="http://www.w3.org/2000/svg">
<path d="M0.118156 24.2752C-1.19112 39.6076 8.52771 53.2906 21.9661 54.8552C30.2876 55.8248 38.0061 51.8516 43.0942 45.155C47.8113 38.9799 42.5352 39.0108 40.6026 38.7829C20.7178 35.8044 17.4692 13.25 20.5721 4.11575C21.5579 -0.274627 19.5203 -0.295874 17.9028 0.235298C17.9028 0.235298 1.64086 5.27853 0.118156 24.2752ZM22.542 48.4193C12.2202 47.2159 4.70996 36.6987 5.76179 24.9319C6.36139 18.2603 9.63205 12.4272 14.1951 9.01218C11.9492 24.1225 22.0084 41.7729 36.3919 43.4977C32.7317 46.6848 27.4861 48.993 22.542 48.4193Z" fill="white"/>
</svg>
