<svg width="80" height="54" viewBox="0 0 80 54" fill="none" xmlns="http://www.w3.org/2000/svg">
<path d="M54.4999 10.2137C55.7171 10.2137 56.6973 9.12966 56.6973 7.79436V2.41933C56.6973 1.08242 55.7171 0 54.4999 0C53.2885 0 52.3024 1.08403 52.3024 2.41933V7.79275C52.3024 9.12966 53.2885 10.2137 54.4999 10.2137Z" fill="white"/>
<path d="M39.9006 15.4357C40.758 16.3796 42.1493 16.3796 43.0095 15.4357C43.8668 14.4902 43.8668 12.9584 43.0095 12.0145L39.5583 8.21474C38.701 7.26924 37.3067 7.26924 36.4494 8.21474C35.5921 9.16025 35.5921 10.6921 36.4494 11.636L39.9006 15.4357Z" fill="white"/>
<path d="M69.0583 40.7597C68.201 39.8142 66.8096 39.8142 65.9523 40.7597C65.095 41.7036 65.095 43.2339 65.9523 44.1793L69.4021 47.9775C70.2594 48.9245 71.6508 48.9245 72.508 47.9775C73.3654 47.0335 73.3654 45.5017 72.508 44.5578L69.0583 40.7597Z" fill="white"/>
<path d="M77.8026 25.6993H72.922C71.7077 25.6993 70.7217 26.785 70.7217 28.1187C70.7217 29.4556 71.7077 30.538 72.922 30.538H77.8026C79.0139 30.538 80 29.4556 80 28.1187C80 26.7834 79.0139 25.6993 77.8026 25.6993Z" fill="white"/>
<path d="M69.0875 15.4679L72.5387 11.6682C73.3989 10.7227 73.3989 9.18928 72.5387 8.24538C71.6813 7.29988 70.29 7.29988 69.4298 8.24538L65.9815 12.0451C65.1242 12.989 65.1242 14.5224 65.9815 15.4679C66.8388 16.4118 68.2301 16.4118 69.0875 15.4679Z" fill="white"/>
<path d="M68.1614 28.1492C68.1614 19.8442 62.0431 13.1114 54.4999 13.1114C50.0713 13.1114 46.1387 15.4357 43.6414 19.0357C40.8501 17.9436 38.1698 18.0225 36.9321 18.3914C33.9753 15.1521 29.0582 12.7764 24.0883 12.7764C14.2278 12.7764 6.14315 21.1699 5.41751 31.8217C2.1828 33.8721 0 37.717 0 42.1208C0 48.6829 4.83231 54 10.7926 54H52.3975C58.5246 54 63.4899 48.5299 63.4899 41.7873C63.4899 41.7873 63.4929 40.9256 63.2778 39.6612C66.2639 36.902 68.1614 32.7704 68.1614 28.1492ZM52.4106 49.4512H11.7274C7.69541 49.4512 4.72112 46.2427 4.72112 42.087C4.72112 38.6979 6.68154 35.7196 9.74069 34.7001C10.102 18.6636 22.9005 17.847 24.3224 17.847C28.549 17.847 32.7464 20.1277 35.4413 23.5071C40.8983 21.534 48.3771 26.1648 47.5418 35.1237C49.6704 34.1718 51.8021 34.2442 52.4136 34.2442C55.4654 34.2442 59.1581 37.1887 59.1581 42.0208C59.1581 46.1266 56.1341 49.4512 52.4106 49.4512ZM51.8883 29.5909C51.0486 25.7782 49.4056 23.1752 47.4906 21.4244C49.1965 19.2724 51.7025 17.9097 54.4999 17.9097C59.6379 17.9097 63.7958 22.4971 63.7958 28.1492C63.7958 30.6733 62.9633 32.9911 61.5808 34.7774C58.3138 29.0834 51.8883 29.5909 51.8883 29.5909Z" fill="white"/>
</svg>
