<svg width="74" height="54" viewBox="0 0 74 54" fill="none" xmlns="http://www.w3.org/2000/svg">
<path d="M51.8927 54C57.958 54 62.8756 48.5661 62.8756 41.8639C62.8756 41.8639 62.8814 40.302 62.3602 38.2998C66.3999 37.4574 69.9992 35.0755 72.6298 31.7188C76.0502 27.3794 72.1505 27.4735 70.8251 27.2422C62.9925 26.178 52.4096 17.1593 56.3006 2.88698C57.1437 -0.177764 55.5368 -0.209672 54.3659 0.162054C54.3659 0.162054 42.1471 3.1566 41.3833 18.6797C39.3303 18.2107 37.5198 18.3208 36.5726 18.6031C33.6461 15.3852 28.7762 13.0225 23.8514 13.0225C14.0827 13.0225 6.0798 21.3663 5.36079 31.9549C2.15702 33.9922 0 37.8132 0 42.1909C0 48.7161 4.78183 54 10.684 54H51.8927ZM11.6095 49.4787C7.61599 49.4787 4.6721 46.2879 4.6721 42.1574C4.6721 38.7848 6.61256 35.8253 9.64018 34.8155C10.0011 18.8728 22.6733 18.0591 24.081 18.0591C28.268 18.0591 32.4217 20.3278 35.0956 23.686C40.4983 21.7253 47.9035 26.328 47.0762 35.2287C49.1856 34.2842 51.2949 34.3592 51.8985 34.3592C54.929 34.3592 58.5832 37.2851 58.5832 42.0904C58.5832 46.1714 55.5917 49.4771 51.8985 49.4771H11.6095V49.4787ZM60.3908 33.9619C58.7362 31.6534 55.9728 29.7389 51.3873 29.7389C50.3435 24.9927 48.0594 22.1305 45.5573 20.465C44.9264 12.4609 49.4382 7.84544 51.6804 6.32823C49.8844 16.6137 57.3459 29.3481 67.7744 30.559C65.7733 32.2421 63.1124 33.5806 60.3908 33.9619Z" fill="white"/>
</svg>
