<svg width="63" height="54" viewBox="0 0 63 54" fill="none" xmlns="http://www.w3.org/2000/svg">
<path d="M51.9963 53.9984C58.0752 53.9984 63 48.4253 63 41.5592C63 41.5592 63.0567 29.1316 51.4876 29.1316C48.9874 17.4876 39.3486 16.8978 36.645 17.7193C33.7131 14.4218 28.8334 12 23.8985 12C14.1158 12 6.0949 20.5518 5.37392 31.4038C2.16294 33.4954 0 37.4073 0 41.8944C0 48.583 4.79248 54 10.7057 54L51.9963 53.9984ZM11.6345 49.3651C7.63425 49.3651 4.68492 46.0939 4.68492 41.8615C4.68492 38.4046 6.62691 35.375 9.662 34.3382C10.0225 18.0019 22.721 17.1672 24.1325 17.1672C28.3261 17.1672 32.4877 19.4921 35.1652 22.9342C40.5842 20.9231 48.0004 25.6402 47.1733 34.7654C49.2839 33.796 51.3989 33.8733 52.0036 33.8733C55.0387 33.8733 58.6988 36.8734 58.6988 41.7942C58.6988 45.9789 55.7001 49.3651 52.0036 49.3651H11.6345Z" fill="white"/>
</svg>
