<svg width="76" height="55" viewBox="0 0 76 55" fill="none" xmlns="http://www.w3.org/2000/svg">
<g clip-path="url(#clip0)">
<path d="M67.3464 24.7414C65.467 16.2321 58.2255 15.8019 56.1928 16.4022C53.9951 13.9912 50.3254 12.2222 46.6178 12.2222C42.0106 12.2222 37.919 14.6798 35.3752 18.4698C32.4123 15.9127 28.1818 14.1469 23.9062 14.1469C14.1179 14.1469 6.09811 22.4652 5.37673 33.0244C2.16413 35.0534 0 38.861 0 43.2273C0 49.7316 4.79408 55 10.7097 55H52.0077C58.0839 55 63.0094 49.5888 63.0196 42.9126H67.729C72.2953 42.9126 76 38.8434 76 33.8222C76 33.8222 76.038 24.7414 67.3464 24.7414ZM52.0164 50.4925H11.6369C7.6387 50.4925 4.68602 47.311 4.68602 43.1935C4.68602 39.8322 6.62819 36.8802 9.66556 35.8737C10.0248 19.9819 22.7248 19.1697 24.1369 19.1697C28.3322 19.1697 32.497 21.4298 35.1751 24.7799C40.5913 22.8232 48.0124 27.4173 47.1844 36.2894C49.296 35.3488 51.4134 35.421 52.0194 35.421C55.0509 35.421 58.7191 38.3393 58.7191 43.1277C58.7162 47.197 55.7139 50.4925 52.0164 50.4925ZM67.7348 39.5256H62.5465C61.6484 35.9491 59.0477 30.8108 51.5024 30.8108C49.515 21.8038 43.0095 19.5967 39.0682 19.4731C42.034 16.2449 46.1213 15.9977 46.7916 15.9977C49.9429 15.9977 53.0693 17.6977 55.0845 20.2115C59.1499 18.7427 64.7281 22.1891 64.1031 28.8572C65.6919 28.1525 67.2836 28.2071 67.7348 28.2071C70.0129 28.2071 72.7655 30.3999 72.7655 33.994C72.7655 37.0503 70.5123 39.5256 67.7348 39.5256Z" fill="white"/>
</g>
<defs>
<clipPath id="clip0">
<rect width="76" height="55" fill="white"/>
</clipPath>
</defs>
</svg>
