<svg width="79" height="79" viewBox="0 0 79 79" fill="none" xmlns="http://www.w3.org/2000/svg">
<path d="M68.5619 46.3054C69.4066 47.2199 70.7752 47.2199 71.6199 46.3054C72.4646 45.3939 72.4646 43.9171 71.6199 43.0057L68.2194 39.3379C67.3747 38.4265 66.0075 38.4265 65.1599 39.3379C64.3181 40.2494 64.3181 41.7262 65.1599 42.6376L68.5619 46.3054Z" fill="white"/>
<path d="M56.047 2.33343C56.047 1.043 55.0804 0 53.8844 0C52.69 0 51.7234 1.043 51.7234 2.33343V7.52023C51.7234 8.80753 52.69 9.85366 53.8844 9.85366C55.0804 9.85366 56.047 8.80753 56.047 7.52023V2.33343Z" fill="white"/>
<path d="M39.169 7.92745C38.3244 7.016 36.9528 7.016 36.1081 7.92432C35.2664 8.8389 35.2664 10.3141 36.1081 11.2256L39.5043 14.8933C40.3534 15.8047 41.7234 15.8047 42.5681 14.8933C43.4128 13.9787 43.4128 12.5066 42.5652 11.592L39.169 7.92745Z" fill="white"/>
<path d="M76.8317 29.4733C78.0305 29.4733 78.9971 28.4271 78.9971 27.1367C78.9971 25.8494 78.0305 24.8033 76.8317 24.8033H72.0248C70.8333 24.8033 69.8638 25.8494 69.8638 27.1367C69.8638 28.4271 70.8333 29.4733 72.0248 29.4701L76.8317 29.4733Z" fill="white"/>
<path d="M71.646 11.2584C72.4965 10.347 72.4965 8.8702 71.646 7.95562C70.8042 7.04417 69.4327 7.04417 68.588 7.95562L65.1918 11.6233C64.3443 12.5348 64.3443 14.0147 65.1918 14.9262C66.0365 15.8376 67.4081 15.8376 68.2498 14.9262L71.646 11.2584Z" fill="white"/>
<path d="M67.3355 27.168C67.3355 19.1514 61.3153 12.6522 53.8829 12.6522C49.494 12.6522 45.5942 14.9214 43.1414 18.4325C40.381 17.3739 37.7308 17.4506 36.5088 17.8061C33.5857 14.6709 28.7281 12.3672 23.8123 12.3672C14.0665 12.3672 6.07536 20.495 5.35549 30.8201C2.15961 32.8106 0 36.53 0 40.7975C0 47.1588 4.7764 52.3127 10.6689 52.3127H12.1072C13.1043 52.3127 13.8981 51.2337 13.8981 50.1077C13.8981 48.8909 12.9852 47.9058 11.8575 47.9058H11.5905C7.60799 47.9058 4.6661 44.7972 4.6661 40.7693C4.6661 37.4806 6.6022 34.6006 9.62392 33.6155C9.98385 18.077 22.6367 17.2846 24.0402 17.2846C28.2186 17.2846 32.3637 19.4959 35.0327 22.769C40.4245 20.8568 47.8206 25.3467 46.9875 34.0211C49.0934 33.1018 51.2023 33.1739 51.8031 33.1739C54.8277 33.1739 58.4764 36.0257 58.4764 40.7082C58.4764 44.6844 55.4852 47.909 51.8031 47.909H51.5114C50.3837 47.909 49.4679 48.8987 49.4679 50.114C49.4679 51.3277 50.3837 52.3159 51.5114 52.3159H51.7944C57.8524 52.3159 62.7594 47.0179 62.7594 40.4843C62.7594 40.4843 62.7623 39.5885 62.5301 38.2886C65.469 35.6216 67.3355 31.6297 67.3355 27.168ZM60.832 33.6061C59.2645 31.0065 56.4271 28.6605 51.2937 28.6605C50.4621 24.9615 48.8322 22.4291 46.9309 20.7347C48.6116 18.6205 51.1036 17.2846 53.8844 17.2846C58.9409 17.2846 63.0453 21.7103 63.0453 27.1696C63.0438 29.6268 62.2093 31.8756 60.832 33.6061Z" fill="white"/>
<path d="M68.2048 39.3927C67.3601 38.4812 65.9886 38.4812 65.141 39.3927C64.2963 40.3073 64.2963 41.7872 65.1439 42.6987L68.5473 46.3726C69.3949 47.2841 70.7621 47.2841 71.6126 46.3726C72.4573 45.4581 72.4573 43.9781 71.6126 43.0667L68.2048 39.3927Z" fill="white"/>
<path d="M76.8289 24.8362H72.0162C70.8203 24.8362 69.8508 25.8854 69.8508 27.1759C69.8508 28.4647 70.8203 29.5124 72.0162 29.5124H76.8289C78.0278 29.5124 78.9973 28.4647 78.9973 27.1759C78.9973 25.8854 78.0278 24.8362 76.8289 24.8362Z" fill="white"/>
<path d="M24.3667 48.9723C24.9676 47.8557 24.6135 46.4275 23.5757 45.7791C22.538 45.1339 21.2144 45.516 20.6135 46.6358L18.2101 51.1319C17.6092 52.2517 17.9634 53.6799 19.0011 54.3283C20.0431 54.9735 21.3668 54.5882 21.9604 53.4716L24.3667 48.9723Z" fill="white"/>
<path d="M17.7965 60.5894C18.393 59.4697 18.0404 58.0414 17.0012 57.3962C15.9664 56.7478 14.6369 57.13 14.0419 58.2528L11.6341 62.749C11.0361 63.8687 11.3932 65.297 12.4309 65.9422C13.4657 66.5874 14.7893 66.2053 15.3902 65.0856L17.7965 60.5894Z" fill="white"/>
<path d="M34.577 48.9723C35.1721 47.8557 34.8179 46.4275 33.7831 45.7791C32.7454 45.1339 31.4218 45.516 30.8209 46.6358L28.4175 51.1319C27.8166 52.2517 28.1736 53.6799 29.2085 54.3283C30.2462 54.9735 31.5727 54.5882 32.1707 53.4716L34.577 48.9723Z" fill="white"/>
<path d="M28.0039 61.1531C28.6019 60.0334 28.2477 58.6052 27.21 57.9599C26.1723 57.3132 24.8458 57.6968 24.2507 58.8181L21.8415 63.3143C21.2479 64.434 21.6005 65.8623 22.6426 66.5059C23.6745 67.1543 25.0011 66.769 25.5947 65.6493L28.0039 61.1531Z" fill="white"/>
<path d="M21.4815 73.3324C22.0794 72.2127 21.7297 70.7813 20.6876 70.1361C19.6528 69.4909 18.3291 69.8761 17.7283 70.9927L15.3263 75.492C14.7254 76.6087 15.0796 78.04 16.1173 78.6852C17.155 79.3305 18.4786 78.9483 19.0766 77.8286L21.4815 73.3324Z" fill="white"/>
<path d="M44.7844 48.9723C45.3824 47.8557 45.0282 46.4275 43.9905 45.7791C42.9528 45.1339 41.6263 45.516 41.0312 46.6358L38.6249 51.1319C38.024 52.2517 38.3811 53.6799 39.4188 54.3283C40.4536 54.9735 41.7801 54.5882 42.3781 53.4716L44.7844 48.9723Z" fill="white"/>
<path d="M38.2113 61.1531C38.8093 60.0334 38.4551 58.6052 37.4174 57.9599C36.3826 57.3132 35.0561 57.6968 34.4581 58.8181L32.0489 63.3143C31.4509 64.434 31.8051 65.8623 32.8428 66.5059C33.8776 67.1543 35.207 66.769 35.8021 65.6493L38.2113 61.1531Z" fill="white"/>
</svg>
