<svg width="74" height="79" viewBox="0 0 74 79" fill="none" xmlns="http://www.w3.org/2000/svg">
<g clip-path="url(#clip0)">
<path d="M41.3855 18.143C39.3313 17.6848 37.524 17.7939 36.5738 18.0666C33.6479 14.9424 28.781 12.6487 23.8531 12.6487C14.0859 12.6487 6.08675 20.7467 5.36325 31.0262C2.15982 33.0052 -0.00195312 36.709 -0.00195312 40.9598C-0.00195312 47.2908 4.78503 52.4189 10.6863 52.4189H12.3323C13.342 52.4189 14.128 51.3453 14.128 50.2249C14.128 49.0157 13.2098 48.031 12.0825 48.031H11.6118C7.62236 48.031 4.67753 44.9364 4.67753 40.9271C4.67753 37.6517 6.61557 34.78 9.64321 33.803C10.0035 18.3268 22.6778 17.5384 24.0855 17.5384C28.2711 17.5384 32.4246 19.7417 35.0949 23.0014C40.4993 21.0973 47.9028 25.5663 47.0776 34.2034C49.1856 33.2856 51.2965 33.3589 51.898 33.3589C54.9256 33.3589 58.5838 36.1979 58.5838 40.8601C58.5838 44.8195 55.5896 48.0278 51.898 48.0278H51.5639C50.435 48.0278 49.5183 49.0157 49.5183 50.2249C49.5183 51.4356 50.435 52.4158 51.5639 52.4158H51.8936C57.9635 52.4158 62.8797 47.1428 62.8797 40.6341C62.8797 40.6341 62.8885 39.1164 62.364 37.1749C66.4013 36.3584 70.0028 34.046 72.6353 30.7863C76.0552 26.576 72.1559 26.6632 70.828 26.442C62.996 25.4089 52.4123 16.6564 56.3029 2.80239C57.1484 -0.170675 55.5431 -0.204955 54.3707 0.158107C54.3663 0.167457 42.1482 3.07196 41.3855 18.143ZM51.6801 6.14942C49.8815 16.1329 57.3431 28.491 67.7713 29.6675C65.7708 31.3067 63.1122 32.6047 60.3882 32.9755C58.7334 30.7348 55.976 28.8728 51.3852 28.8728C50.3406 24.2698 48.0597 21.4915 45.5536 19.8741C44.926 12.1033 49.4384 7.62349 51.6801 6.14942Z" fill="white"/>
<path d="M24.4102 49.1027C25.0116 47.9885 24.6542 46.5643 23.6155 45.9208C22.5767 45.2773 21.2489 45.6575 20.6503 46.7716L18.2387 51.2514C17.6416 52.3655 17.9946 53.7897 19.0348 54.4317C20.0736 55.0753 21.4043 54.6935 22 53.5809L24.4102 49.1027Z" fill="white"/>
<path d="M17.8245 60.6677C18.426 59.5536 18.0686 58.1294 17.0327 57.4874C15.9896 56.8439 14.6618 57.2256 14.0647 58.3398L11.653 62.8181C11.0515 63.9337 11.4118 65.3579 12.4506 65.9999C13.4893 66.6419 14.8143 66.2617 15.4129 65.1445L17.8245 60.6677Z" fill="white"/>
<path d="M34.6365 49.1027C35.235 47.9885 34.8805 46.5643 33.8447 45.9208C32.8059 45.2773 31.4781 45.6575 30.8766 46.7716L28.465 51.2514C27.8635 52.3655 28.2209 53.7897 29.2611 54.4317C30.3028 55.0753 31.6277 54.6935 32.2292 53.5809L34.6365 49.1027Z" fill="white"/>
<path d="M28.0536 61.227C28.6521 60.1129 28.2948 58.6903 27.2516 58.0467C26.2158 57.4047 24.8879 57.7849 24.2894 58.9022L21.8792 63.3789C21.2835 64.493 21.6351 65.9172 22.6739 66.5592C23.7126 67.2012 25.0405 66.821 25.639 65.7085L28.0536 61.227Z" fill="white"/>
<path d="M21.5189 73.3562C22.1203 72.239 21.7629 70.8148 20.7242 70.1743C19.684 69.5324 18.3561 69.9157 17.759 71.0267L15.3503 75.5065C14.7488 76.6206 15.1033 78.0449 16.1421 78.6868C17.1808 79.3319 18.5087 78.9486 19.1072 77.8329L21.5189 73.3562Z" fill="white"/>
<path d="M44.8627 49.1027C45.4641 47.9885 45.1067 46.5643 44.068 45.9208C43.0292 45.2773 41.7014 45.6575 41.0999 46.7716L38.6912 51.2514C38.0926 52.3655 38.4471 53.7897 39.4887 54.4317C40.5275 55.0753 41.8525 54.6935 42.451 53.5809L44.8627 49.1027Z" fill="white"/>
<path d="M38.2771 61.227C38.8785 60.1129 38.5211 58.6903 37.4824 58.0467C36.4465 57.4047 35.1158 57.7849 34.5172 58.9022L32.107 63.3789C31.5055 64.493 31.8629 65.9172 32.9046 66.5592C33.9404 67.2012 35.2683 66.821 35.8669 65.7085L38.2771 61.227Z" fill="white"/>
</g>
<defs>
<clipPath id="clip0">
<rect width="74" height="79" fill="white"/>
</clipPath>
</defs>
</svg>
