<svg width="79" height="69" viewBox="0 0 79 69" fill="none" xmlns="http://www.w3.org/2000/svg">
<g clip-path="url(#clip0)">
<path d="M56.0509 3.3948C56.0509 2.07043 55.0799 1 53.8853 1C52.6922 1 51.7227 2.07043 51.7227 3.3948V8.71802C51.7227 10.0408 52.6922 11.1128 53.8853 11.1128C55.0799 11.1128 56.0509 10.0408 56.0509 8.71802V3.3948Z" fill="white"/>
<path d="M39.1676 9.13434C38.3243 8.20213 36.9556 8.20213 36.1094 9.13434C35.2646 10.0714 35.2646 11.587 36.1094 12.5224L39.5087 16.2882C40.3535 17.2252 41.7251 17.2252 42.5698 16.2882C43.4131 15.3512 43.4131 13.8372 42.5684 12.9001L39.1676 9.13434Z" fill="white"/>
<path d="M68.5639 48.5232C69.4057 49.4618 70.7774 49.4618 71.6236 48.5248C72.4698 47.5878 72.4698 46.0721 71.6236 45.1367L68.2228 41.3725C67.378 40.4371 66.0093 40.4371 65.1646 41.3725C64.3198 42.3079 64.3198 43.8236 65.1646 44.759L68.5639 48.5232Z" fill="white"/>
<path d="M76.8344 31.2485C78.0304 31.2485 79 30.1748 79 28.852C79 27.5293 78.0304 26.4556 76.8344 26.4556H72.0286C70.8355 26.4556 69.863 27.5293 69.863 28.852C69.863 30.1748 70.8355 31.2485 72.0286 31.2468L76.8344 31.2485Z" fill="white"/>
<path d="M71.6511 12.5545C72.4944 11.6191 72.4988 10.1003 71.6511 9.16645C70.8093 8.22943 69.4377 8.22943 68.5915 9.16645L65.1936 12.9306C64.3459 13.8661 64.3459 15.3833 65.1936 16.3187C66.0383 17.2541 67.4056 17.2541 68.2504 16.3187L71.6511 12.5545Z" fill="white"/>
<path d="M67.339 28.8826C67.339 20.6551 61.3183 13.9834 53.8854 13.9834C49.4947 13.9834 45.5961 16.3139 43.1417 19.9174C40.381 18.8309 37.7321 18.9096 36.5085 19.2745C33.5882 16.0568 28.7273 13.6925 23.8112 13.6925C14.0617 13.6925 6.07436 22.0358 5.35588 32.6308C2.15542 34.6736 0 38.4908 0 42.8722C0 49.4008 4.77675 54.6887 10.6668 54.6887H12.1052C13.1023 54.6887 13.8977 53.5797 13.8977 52.4257C13.8977 51.1768 12.9804 50.1659 11.8555 50.1659H11.5899C7.60564 50.1659 4.66499 46.9755 4.66499 42.8416C4.66499 39.4664 6.59978 36.5107 9.62462 35.4981C9.98604 19.5525 22.634 18.7393 24.0405 18.7393C28.2193 18.7393 32.3661 21.0087 35.0324 24.3695C40.426 22.4054 47.8212 27.0134 46.9939 35.9176C49.097 34.9709 51.2046 35.0465 51.8069 35.0465C54.826 35.0465 58.4807 37.9733 58.4807 42.7789C58.4807 46.8598 55.4893 50.1691 51.8069 50.1691H51.5137C50.3874 50.1691 49.4715 51.1849 49.4715 52.4321C49.4715 53.6793 50.3874 54.6919 51.5137 54.6919H51.7982C57.8551 54.6919 62.764 49.2546 62.764 42.5491C62.764 42.5491 62.7669 41.6298 62.5347 40.2973C65.471 37.5586 67.339 33.4617 67.339 28.8826ZM60.8306 35.4901C59.266 32.822 56.4284 30.4144 51.2946 30.4144C50.4614 26.6164 48.8329 24.0191 46.9315 22.2801C48.6123 20.1119 51.1044 18.7393 53.8854 18.7393C58.9423 18.7393 63.0456 23.2798 63.0456 28.8843C63.0456 31.406 62.211 33.714 60.8306 35.4901Z" fill="white"/>
<path d="M68.2098 41.4289C67.3621 40.4934 65.9919 40.4934 65.1428 41.4289C64.2981 42.3659 64.2981 43.8864 65.1428 44.8218L68.548 48.5908C69.3942 49.5294 70.7658 49.5294 71.6135 48.5924C72.4568 47.6554 72.4568 46.1349 71.6135 45.1995L68.2098 41.4289Z" fill="white"/>
<path d="M76.8314 26.491H72.0198C70.8238 26.491 69.8542 27.5663 69.8542 28.8907C69.8542 30.2166 70.8238 31.2887 72.0198 31.2887H76.8314C78.0303 31.2887 78.9999 30.2166 78.9999 28.8907C78.9999 27.5663 78.0303 26.491 76.8314 26.491Z" fill="white"/>
<path d="M23.4468 51.262C24.0462 50.1128 23.6892 48.6454 22.6528 47.9832C21.6179 47.321 20.2913 47.7148 19.6933 48.8624L17.2882 53.4784C16.6888 54.626 17.0459 56.0918 18.0822 56.7556C19.1185 57.4194 20.4437 57.024 21.0432 55.878L23.4468 51.262Z" fill="white"/>
<path d="M34.6796 51.262C35.2776 50.1128 34.922 48.6454 33.8856 47.9832C32.8478 47.321 31.5226 47.7148 30.9246 48.8624L28.5181 53.4784C27.9201 54.626 28.2757 56.0918 29.3106 56.7556C30.347 57.4194 31.6736 57.024 32.2716 55.878L34.6796 51.262Z" fill="white"/>
<path d="M24.7357 63.2681C25.3337 62.119 24.9781 60.6531 23.9418 59.9877C22.9054 59.3272 21.5802 59.7209 20.9808 60.8669L18.5743 65.4829C17.9748 66.6321 18.3304 68.0995 19.3668 68.7617C20.4045 69.4239 21.7283 69.0317 22.3277 67.8842L24.7357 63.2681Z" fill="white"/>
<path d="M45.9096 51.262C46.5076 50.1128 46.1534 48.6454 45.1171 47.9832C44.0807 47.321 42.7555 47.7148 42.1561 48.8624L39.751 53.4784C39.1516 54.626 39.5072 56.0918 40.5435 56.7556C41.5799 57.4194 42.905 57.024 43.503 55.878L45.9096 51.262Z" fill="white"/>
<path d="M35.9685 63.2681C36.5651 62.119 36.208 60.6531 35.1731 59.9877C34.1353 59.3272 32.8101 59.7209 32.2121 60.8669L29.8056 65.4829C29.2076 66.6321 29.5632 68.0995 30.601 68.7617C31.6374 69.4239 32.964 69.0317 33.5591 67.8842L35.9685 63.2681Z" fill="white"/>
</g>
<defs>
<clipPath id="clip0">
<rect width="79" height="69" fill="white"/>
</clipPath>
</defs>
</svg>
