<svg width="73" height="67" viewBox="0 0 73 67" fill="none" xmlns="http://www.w3.org/2000/svg">
<g clip-path="url(#clip0)">
<path d="M40.8239 18.3016C38.8017 17.8409 37.0174 17.9494 36.0772 18.2262C33.1894 15.073 28.3868 12.7566 23.5298 12.7566C13.8932 12.7566 6.00069 20.9311 5.2884 31.3057C2.12969 33.3013 0 37.0426 0 41.3311C0 47.7191 4.71943 52.8962 10.5395 52.8962H11.9713C12.9645 52.8962 13.7427 51.8127 13.7427 50.6819C13.7427 49.4616 12.8383 48.4677 11.7248 48.4677H11.4539C7.51842 48.4677 4.61194 45.3429 4.61194 41.2965C4.61194 37.9924 6.5238 35.0941 9.51339 34.1049C9.86738 18.4919 22.3689 17.6915 23.7577 17.6915C27.8881 17.6915 31.9826 19.9151 34.6197 23.2066C39.9511 21.2833 47.2545 25.7936 46.439 34.5122C48.5186 33.586 50.6024 33.6599 51.1972 33.6599C54.181 33.6599 57.7912 36.5252 57.7912 41.2305C57.7912 45.2265 54.8374 48.4645 51.1972 48.4645H50.8991C49.7855 48.4645 48.8812 49.4616 48.8812 50.6819C48.8812 51.9039 49.7855 52.893 50.8991 52.893H51.1871C57.1749 52.893 62.0248 47.5697 62.0248 41.0024C62.0248 41.0024 62.0362 39.4707 61.516 37.5081C65.5002 36.6872 69.0545 34.3518 71.65 31.0619C75.0222 26.8127 71.1756 26.9007 69.8657 26.679C62.1394 25.6364 51.6988 16.8029 55.5397 2.82074C56.3709 -0.179822 54.7901 -0.214419 53.6307 0.152002C53.6307 0.161437 41.5792 3.09438 40.8239 18.3016ZM50.9793 6.19874C49.2094 16.273 56.5673 28.7454 66.856 29.9343C64.8811 31.5887 62.2584 32.8987 59.5726 33.2699C57.9374 31.01 55.2186 29.1307 50.6927 29.1307C49.6608 24.4852 47.4093 21.6828 44.9385 20.0504C44.3208 12.2077 48.7694 7.68644 50.9793 6.19874Z" fill="white"/>
<path d="M23.1701 49.547C23.7634 48.4258 23.4109 46.9868 22.3876 46.3405C21.3643 45.6894 20.0544 46.0747 19.4625 47.1975L17.0834 51.7188C16.4915 52.8433 16.8441 54.2806 17.8674 54.9285C18.8921 55.5796 20.2006 55.1927 20.7939 54.0683L23.1701 49.547Z" fill="white"/>
<path d="M34.2715 49.547C34.862 48.4258 34.5123 46.9868 33.4847 46.3405C32.4614 45.6894 31.15 46.0747 30.561 47.1975L28.1834 51.7188C27.5915 52.8433 27.9426 54.2806 28.9659 54.9285C29.9906 55.5796 31.3005 55.1927 31.8924 54.0683L34.2715 49.547Z" fill="white"/>
<path d="M24.4457 61.304C25.0376 60.1795 24.6851 58.7422 23.6632 58.0943C22.6385 57.4448 21.3272 57.8301 20.7367 58.9576L18.3576 63.4758C17.7672 64.6002 18.1183 66.0391 19.143 66.6839C20.1677 67.3334 21.4776 66.9497 22.0695 65.8253L24.4457 61.304Z" fill="white"/>
<path d="M45.3699 49.547C45.9589 48.4258 45.6106 46.9868 44.5845 46.3405C43.5598 45.6894 42.2498 46.0747 41.6579 47.1975L39.2817 51.7188C38.6913 52.8433 39.0424 54.2806 40.0657 54.9285C41.0904 55.5796 42.4003 55.1927 42.9908 54.0683L45.3699 49.547Z" fill="white"/>
<path d="M35.5455 61.304C36.1359 60.1795 35.7862 58.7422 34.763 58.0943C33.7368 57.4448 32.4269 57.8301 31.835 58.9576L29.4574 63.4758C28.864 64.6002 29.2166 66.0391 30.2427 66.6839C31.266 67.3334 32.5759 66.9497 33.1664 65.8253L35.5455 61.304Z" fill="white"/>
</g>
<defs>
<clipPath id="clip0">
<rect width="73" height="67" fill="white"/>
</clipPath>
</defs>
</svg>
