<svg width="78" height="75" viewBox="0 0 78 75" fill="none" xmlns="http://www.w3.org/2000/svg">
<path d="M55.3387 2.37145C55.3387 1.05999 54.3842 0 53.2005 0C52.0225 0 51.0681 1.05999 51.0652 2.37145L51.0681 7.64276C51.0681 8.95423 52.0225 10.0158 53.2005 10.0158C54.3842 10.0158 55.3387 8.95423 55.3387 7.64276V2.37145Z" fill="white"/>
<path d="M38.6705 8.05501C37.8364 7.12872 36.4836 7.12872 35.6524 8.05501C34.8183 8.98131 34.8183 10.4854 35.6524 11.4117L39.0087 15.1375C39.8399 16.0654 41.197 16.0654 42.0311 15.1375C42.8623 14.2097 42.8623 12.7104 42.0282 11.7825L38.6705 8.05501Z" fill="white"/>
<path d="M67.6962 47.0582C68.5274 47.9877 69.8816 47.9877 70.7157 47.0614C71.5497 46.1319 71.5497 44.6311 70.7157 43.7064L67.3594 39.9789C66.5253 39.051 65.1739 39.051 64.337 39.9789C63.5058 40.9052 63.5058 42.4044 64.337 43.3307L67.6962 47.0582Z" fill="white"/>
<path d="M75.8617 29.952C77.0425 29.952 77.9998 28.8904 77.9998 27.5805C77.9998 26.269 77.0425 25.2075 75.8645 25.2075H71.1181C69.9373 25.2075 68.98 26.269 68.98 27.5805C68.98 28.8904 69.9373 29.952 71.1181 29.9504L75.8617 29.952Z" fill="white"/>
<path d="M70.7414 11.4419C71.5783 10.5156 71.5783 9.01153 70.7414 8.08523C69.9116 7.15893 68.5602 7.15893 67.7261 8.08523L64.367 11.8143C63.5329 12.739 63.5329 14.243 64.367 15.1693C65.2039 16.0956 66.5539 16.0956 67.3851 15.1693L70.7414 11.4419Z" fill="white"/>
<path d="M66.4852 27.6075C66.4852 19.4634 60.5436 12.8567 53.2004 12.8567C48.8682 12.8567 45.019 15.1661 42.5956 18.7344C39.867 17.6569 37.2545 17.7365 36.0435 18.0978C33.1602 14.9099 28.3622 12.5687 23.5098 12.5687C13.8809 12.5687 5.99603 20.8321 5.28522 31.3222C2.1267 33.3436 0 37.1251 0 41.4622C0 47.9272 4.71342 53.1619 10.5303 53.1619H20.5447C21.5464 53.1619 22.3117 52.0653 22.3117 50.9225C22.3117 49.6875 21.4103 48.6864 20.2982 48.6864H11.4418C7.5108 48.6864 4.60594 45.5255 4.60594 41.4336C4.60594 38.0912 6.51481 35.1627 9.50136 34.1616C9.85676 18.3716 22.3461 17.5662 23.7348 17.5662C27.8606 17.5662 31.9549 19.8119 34.5861 23.1399C39.9129 21.1966 47.213 25.7581 46.3947 34.5738C48.4741 33.638 50.5521 33.7128 51.1483 33.7128C54.132 33.7128 57.7362 36.6127 57.7362 41.3699C57.7362 45.4109 54.784 48.688 51.1483 48.688H40.7828C39.6692 48.688 38.765 49.6938 38.765 50.9289C38.765 52.1608 39.6692 53.1651 40.7828 53.1651H51.1425C57.1214 53.1651 61.9709 47.7808 61.9709 41.1407C61.9709 41.1407 61.9767 40.2303 61.7445 38.9093C64.6422 36.202 66.4852 32.1451 66.4852 27.6075ZM60.0606 34.1537C58.5129 31.5101 55.7141 29.1275 50.6424 29.1275C49.8227 25.3634 48.2133 22.7946 46.3374 21.0725C47.994 18.9238 50.4575 17.5662 53.2004 17.5662C58.1947 17.5662 62.2446 22.0624 62.2446 27.6075C62.2446 30.1095 61.4235 32.395 60.0606 34.1537Z" fill="white"/>
<path d="M27.8506 62.8578C27.445 63.5581 20.655 75 20.655 75C20.655 75 32.9882 63.0966 33.4439 62.6589C34.2077 61.914 34.1518 61.7119 33.6173 60.6121C33.2347 59.8243 31.952 57.1727 31.6325 56.5345C31.2613 55.8071 31.2083 55.8246 31.588 55.145C31.9606 54.467 39.4586 40.5009 39.4586 40.5009C39.4586 40.5009 27.4063 51.9953 26.4132 52.9471C24.9973 54.3063 25.0188 54.5641 25.7525 56.3355C26.128 57.2411 27.6385 60.8461 27.9294 61.4493C28.2303 62.0875 28.312 62.0589 27.8506 62.8578Z" fill="white"/>
</svg>
