<svg width="73" height="75" viewBox="0 0 73 75" fill="none" xmlns="http://www.w3.org/2000/svg">
<path d="M27.8742 62.9119C27.4715 63.6133 20.6724 75 20.6724 75C20.6724 75 33.0194 63.151 33.4723 62.7172C34.2419 61.9731 34.186 61.7736 33.6486 60.6764C33.263 59.8943 31.9832 57.2502 31.6621 56.6201C31.2895 55.8966 31.2365 55.914 31.6163 55.2348C31.9918 54.5603 39.496 40.6547 39.496 40.6547C39.496 40.6547 27.4313 52.0984 26.4381 53.0483C25.025 54.4004 25.0436 54.6585 25.7803 56.4222C26.1558 57.3215 27.6664 60.9139 27.9559 61.5108C28.2526 62.1456 28.3357 62.1171 27.8742 62.9119Z" fill="white"/>
<path d="M40.8261 18.4275C38.7996 17.9636 37.0138 18.0728 36.0794 18.3515C33.19 15.1802 28.3888 12.8465 23.5303 12.8465C13.892 12.8465 6.00367 21.0762 5.28707 31.5193C2.12687 33.5285 0 37.295 0 41.6157C0 48.0452 4.71953 53.2589 10.5397 53.2589H20.5664C21.5582 53.2589 22.3335 52.168 22.3335 51.0297C22.3335 49.7995 21.4321 48.8004 20.3199 48.8004H11.4541C7.5157 48.8004 4.6106 45.653 4.6106 41.5793C4.6106 38.2545 6.52249 35.3365 9.50928 34.3407C9.86758 18.6222 22.3708 17.8163 23.7567 17.8163C27.8858 17.8163 31.9833 20.055 34.6175 23.3688C39.9504 21.4325 47.2555 25.9732 46.4385 34.7523C48.5181 33.8198 50.6005 33.8942 51.1996 33.8942C54.1835 33.8942 57.7923 36.7789 57.7923 41.5144C57.7923 45.5374 54.8385 48.7989 51.1996 48.7989H40.8261C39.7097 48.7989 38.8053 49.8026 38.8053 51.0312C38.8053 52.2598 39.7097 53.2557 40.8261 53.2557H51.1867C57.1761 53.2557 62.0246 47.8964 62.0246 41.2848C62.0246 41.2848 62.036 39.7443 61.5158 37.7684C65.4987 36.9404 69.0559 34.5908 71.6485 31.2787C75.0223 27.0007 71.1756 27.0926 69.8685 26.8662C62.1392 25.8165 51.7012 16.9234 55.5393 2.84675C56.3706 -0.174087 54.7912 -0.207335 53.6303 0.159978C53.6303 0.164727 41.5771 3.11748 40.8261 18.4275ZM50.9818 6.24281C49.2046 16.3851 56.5684 28.9418 66.8559 30.1371C64.8795 31.8043 62.2568 33.1216 59.5724 33.4968C57.9357 31.2217 55.2197 29.3297 50.6908 29.3297C49.6604 24.6528 47.4074 21.8299 44.938 20.1865C44.3203 12.2924 48.7675 7.74056 50.9818 6.24281Z" fill="white"/>
</svg>
