<svg width="79" height="67" viewBox="0 0 79 67" fill="none" xmlns="http://www.w3.org/2000/svg">
<g clip-path="url(#clip0)">
<path d="M56.3927 2.35911C56.3927 1.05576 55.4406 0.0010376 54.2627 0.0010376C53.0877 0.0010376 52.1327 1.05576 52.1299 2.35911L52.1327 7.6042C52.1327 8.91072 53.0877 9.96703 54.2627 9.96703C55.4406 9.96703 56.3927 8.91072 56.3927 7.6042V2.35911V2.35911Z" fill="white"/>
<path d="M39.7687 8.01488C38.9367 7.09319 37.5873 7.09319 36.7553 8.01488C35.9234 8.93657 35.9234 10.4331 36.7553 11.3548L40.1032 15.0622C40.9352 15.9854 42.2861 15.9854 43.1152 15.0622C43.9471 14.1389 43.9471 12.6471 43.1152 11.7238L39.7687 8.01488Z" fill="white"/>
<path d="M68.7189 46.8257C69.5481 47.749 70.8989 47.749 71.7309 46.8273C72.5629 45.904 72.5629 44.4106 71.7309 43.4905L68.383 39.7816C67.551 38.8583 66.203 38.8583 65.371 39.7816C64.5391 40.7033 64.5391 42.1951 65.371 43.1168L68.7189 46.8257Z" fill="white"/>
<path d="M76.8644 29.8029C78.0423 29.8029 79.0001 28.7466 79.0001 27.4449C79.0001 26.1399 78.0423 25.0836 76.8644 25.0836H72.1314C70.9534 25.0836 69.9985 26.1399 69.9985 27.4449C69.9985 28.7466 70.9534 29.8029 72.1314 29.8014L76.8644 29.8029Z" fill="white"/>
<path d="M71.7571 11.3849C72.5933 10.4632 72.5933 8.96825 71.7571 8.04655C70.9294 7.12486 69.5814 7.12486 68.7465 8.04655L65.4015 11.7571C64.5667 12.6772 64.5667 14.1737 65.4015 15.0954C66.2335 16.0155 67.5801 16.0155 68.412 15.0954L71.7571 11.3849Z" fill="white"/>
<path d="M67.5113 27.4702C67.5113 19.3666 61.5831 12.7928 54.2626 12.7928C49.9384 12.7928 46.0988 15.0891 43.6815 18.6397C40.9597 17.5675 38.3537 17.6467 37.1458 18.0078C34.2696 14.8357 29.4865 12.5046 24.6448 12.5046C15.0385 12.5046 7.17342 20.727 6.46439 31.1649C3.31519 33.1777 1.19238 36.9389 1.19238 41.2528C1.19238 47.6841 5.89687 52.8943 11.6964 52.8943H15.6361C16.6324 52.8943 17.3972 51.8032 17.3972 50.6661C17.3972 49.4372 16.4952 48.441 15.3873 48.441H12.6055C8.68011 48.441 5.7868 45.2943 5.7868 41.2243C5.7868 37.897 7.6909 34.9847 10.67 33.9885C11.0245 18.277 23.4826 17.4757 24.8678 17.4757C28.9833 17.4757 33.0674 19.7087 35.692 23.0217C41.0054 21.0864 48.2873 25.6268 47.4711 34.3987C49.5453 33.4675 51.6209 33.5419 52.2127 33.5419C55.1861 33.5419 58.787 36.4274 58.787 41.1625C58.787 45.1819 55.8394 48.4442 52.2127 48.4442H48.2473C47.1366 48.4442 46.2374 49.4435 46.2374 50.674C46.2374 51.8998 47.1366 52.8975 48.2473 52.8975H52.207C58.1709 52.8975 63.0083 47.5415 63.0083 40.9329C63.0083 40.9329 63.014 40.0286 62.7825 38.7142C65.6729 36.022 67.5113 31.9852 67.5113 27.4702ZM61.1028 33.9838C59.5589 31.3549 56.7671 28.9826 51.711 28.9826C50.8904 25.2372 49.2851 22.6812 47.4139 20.9677C49.0664 18.8281 51.5237 17.4789 54.2626 17.4789C59.2416 17.4789 63.2814 21.9495 63.2814 27.4702C63.2814 29.9597 62.4594 32.2338 61.1028 33.9838Z" fill="white"/>
<path d="M29.1063 51.5086L27.754 50.6424L29.1063 49.7793C29.5723 49.4815 29.7324 48.8196 29.4637 48.3001C29.1949 47.7838 28.5974 47.6065 28.1285 47.9042L26.7748 48.7705V47.0379C26.7748 46.4425 26.3388 45.9563 25.7998 45.9563C25.2609 45.9563 24.8249 46.4425 24.8249 47.0379V48.7705L23.4726 47.9058C23.0066 47.6081 22.4091 47.7854 22.1389 48.3017C21.8687 48.818 22.0288 49.4799 22.4934 49.7808L23.8471 50.6439L22.4934 51.5102C22.0288 51.8095 21.8673 52.4683 22.1389 52.9893C22.4076 53.5072 23.0037 53.683 23.4726 53.3853L24.8264 52.5174V54.2499C24.8264 54.8486 25.2624 55.3332 25.8013 55.3332C26.3402 55.3332 26.7762 54.8486 26.7762 54.2499V52.5206L28.1299 53.3853C28.596 53.683 29.1935 53.5072 29.4651 52.9893C29.7324 52.4699 29.5737 51.8095 29.1063 51.5086Z" fill="white"/>
<path d="M41.2211 51.5086L39.8673 50.6424L41.2211 49.7793C41.6871 49.4815 41.8472 48.8196 41.5784 48.3001C41.3083 47.7838 40.7107 47.6065 40.2419 47.9042L38.8924 48.7705V47.0379C38.8924 46.4425 38.4521 45.9563 37.9132 45.9563C37.3743 45.9563 36.9354 46.4425 36.9354 47.0379V48.7705L35.5874 47.9042C35.1157 47.6065 34.5239 47.7838 34.2522 48.3001C33.9806 48.8164 34.1436 49.4784 34.6096 49.7793L35.9634 50.6424L34.6096 51.5086C34.1436 51.8079 33.9821 52.4667 34.2522 52.9878C34.521 53.5072 35.1157 53.6814 35.5845 53.3837L36.9354 52.5158V54.2484C36.9354 54.847 37.3743 55.3316 37.9132 55.3316C38.4521 55.3316 38.8924 54.847 38.8924 54.2484V52.519L40.2419 53.3837C40.7079 53.6814 41.3054 53.5056 41.5784 52.9878C41.8458 52.4699 41.6871 51.8095 41.2211 51.5086Z" fill="white"/>
<path d="M35.4245 63.1802L34.0708 62.3139L35.4245 61.4492C35.892 61.1515 36.0506 60.4895 35.7847 59.9717C35.5146 59.4538 34.917 59.278 34.4482 59.5758L33.0944 60.442V58.7079C33.0944 58.1125 32.6584 57.6279 32.1195 57.6279C31.5806 57.6279 31.1446 58.1125 31.1446 58.7079V60.442L29.7908 59.5758C29.3248 59.2765 28.7273 59.4554 28.4585 59.9717C28.1884 60.4864 28.347 61.1484 28.8131 61.4492L30.1654 62.3139L28.8131 63.1802C28.347 63.4779 28.1869 64.1383 28.4585 64.6593C28.7273 65.1756 29.322 65.353 29.7908 65.0537L31.1446 64.189V65.9199C31.1446 66.517 31.5806 67.0032 32.1195 67.0032C32.6584 67.0032 33.0944 66.517 33.0944 65.9199V64.1858L34.4482 65.0521C34.9142 65.3498 35.5117 65.174 35.7847 64.6578C36.0535 64.1383 35.8934 63.4763 35.4245 63.1802Z" fill="white"/>
</g>
<defs>
<clipPath id="clip0">
<rect width="79" height="67" fill="white"/>
</clipPath>
</defs>
</svg>
