<svg width="73" height="68" viewBox="0 0 73 68" fill="none" xmlns="http://www.w3.org/2000/svg">
<g clip-path="url(#clip0)">
<path d="M28.0086 52.3581L26.6528 51.4839L28.0086 50.6097C28.4758 50.3092 28.6377 49.6411 28.3668 49.1153C28.0974 48.5927 27.4983 48.4153 27.0283 48.7174L25.6711 49.59V47.8431C25.6711 47.239 25.2339 46.7499 24.6908 46.7499C24.1505 46.7499 23.7119 47.239 23.7119 47.8431V49.59L22.3533 48.7174C21.8889 48.4153 21.287 48.5927 21.0161 49.1153C20.7452 49.6379 20.9072 50.306 21.3744 50.6097L22.7316 51.4839L21.3744 52.3581C20.9072 52.6586 20.7467 53.3251 21.0161 53.8509C21.2855 54.3735 21.886 54.5509 22.3533 54.2504L23.7119 53.3746V55.1247C23.7119 55.7304 24.1505 56.2179 24.6908 56.2179C25.2339 56.2179 25.6711 55.7304 25.6711 55.1247V53.3778L27.0283 54.2504C27.4955 54.5509 28.0974 54.3735 28.3668 53.8509C28.6377 53.3299 28.4758 52.6586 28.0086 52.3581Z" fill="white"/>
<path d="M40.1616 52.3581L38.8072 51.4839L40.1616 50.6097C40.6317 50.3092 40.7922 49.6411 40.5227 49.1153C40.2519 48.5911 39.6528 48.4153 39.1827 48.7174L37.8269 49.59V47.8431C37.8269 47.239 37.3855 46.7499 36.8452 46.7499C36.3049 46.7499 35.8678 47.239 35.8678 47.8431V49.59L34.5077 48.7174C34.0405 48.4153 33.4414 48.5927 33.172 49.1153C32.9011 49.6379 33.0602 50.306 33.5303 50.6097L34.8861 51.4839L33.5303 52.3581C33.0602 52.6586 32.9011 53.3251 33.172 53.8509C33.4414 54.3735 34.0376 54.5509 34.5077 54.2504L35.8678 53.3746V55.1247C35.8678 55.7304 36.3049 56.2179 36.8452 56.2179C37.3855 56.2179 37.8269 55.7304 37.8269 55.1247V53.3778L39.1827 54.2504C39.6499 54.5509 40.249 54.3735 40.5227 53.8509C40.795 53.3299 40.6331 52.6586 40.1616 52.3581Z" fill="white"/>
<path d="M34.3515 64.1451L32.9928 63.2709L34.3515 62.3966C34.8187 62.0962 34.9792 61.4281 34.7098 60.9039C34.4403 60.3797 33.8441 60.2023 33.3712 60.5043L32.014 61.3786V59.6301C32.014 59.0276 31.5769 58.5385 31.0337 58.5385C30.4934 58.5385 30.0563 59.0276 30.0563 59.6301V61.3802L28.6962 60.5059C28.2318 60.2039 27.6299 60.3845 27.359 60.9055C27.0896 61.4265 27.2487 62.0946 27.7173 62.3982L29.0717 63.2725L27.7173 64.1435C27.2487 64.4456 27.0896 65.1136 27.359 65.6379C27.6285 66.1605 28.229 66.3379 28.6962 66.0374L30.0563 65.1632V66.9133C30.0563 67.519 30.4934 68.0064 31.0337 68.0064C31.5769 68.0064 32.014 67.519 32.014 66.9133V65.1664L33.3712 66.0374C33.8413 66.3379 34.4403 66.1605 34.7098 65.6379C34.9778 65.1168 34.8187 64.4456 34.3515 64.1451Z" fill="white"/>
<path d="M40.8253 18.5994C38.7988 18.1295 37.0131 18.2414 36.0786 18.5211C33.1894 15.3198 28.3882 12.9656 23.5298 12.9656C13.8946 12.9656 6.00355 21.2717 5.28983 31.8136C2.12683 33.8449 0 37.6455 0 42.0055C0 48.4975 4.71943 53.7589 10.541 53.7589H14.4822C15.4768 53.7589 16.255 52.6577 16.255 51.5102C16.255 50.2668 15.3478 49.2615 14.2386 49.2615H11.451C7.51555 49.2615 4.61338 46.0842 4.61338 41.972C4.61338 38.6125 6.52236 35.6669 9.51339 34.6648C9.86738 18.7944 22.3704 17.9825 23.7562 17.9825C27.8881 17.9825 31.9855 20.2424 34.6225 23.5859C39.9525 21.6329 47.2574 26.2166 46.4433 35.0772C48.5229 34.1358 50.6053 34.2109 51.2015 34.2109C54.1853 34.2109 57.7912 37.1229 57.7912 41.9032C57.7912 45.9643 54.8403 49.2599 51.2015 49.2599H47.2187C46.1051 49.2599 45.2036 50.27 45.2036 51.5102C45.2036 52.7504 46.1051 53.7557 47.2187 53.7557H51.1914C57.1749 53.7557 62.0291 48.3489 62.0291 41.6715C62.0291 41.6715 62.0377 40.1164 61.5174 38.125C65.5002 37.2859 69.0573 34.9158 71.6499 31.5723C75.0236 27.2538 71.1741 27.3449 69.8699 27.1164C62.1437 26.0568 51.7031 17.0795 55.5411 2.8696C56.3723 -0.179824 54.793 -0.213387 53.6321 0.157403C53.6293 0.162197 41.5763 3.1429 40.8253 18.5994ZM50.9779 6.29781C49.2036 16.5393 56.5673 29.2133 66.8546 30.4199C64.8782 32.1013 62.2555 33.431 59.5712 33.8114C57.9345 31.5131 55.2186 29.6048 50.6898 29.6048C49.6594 24.8837 47.4093 22.0324 44.9371 20.3734C44.3194 12.4047 48.7665 7.80974 50.9779 6.29781Z" fill="white"/>
</g>
<defs>
<clipPath id="clip0">
<rect width="73" height="68" fill="white"/>
</clipPath>
</defs>
</svg>
