<svg width="62" height="73" viewBox="0 0 62 73" fill="none" xmlns="http://www.w3.org/2000/svg">
<path d="M15.2622 64.765C16.4427 64.765 17.405 63.7061 17.405 62.3983C17.405 61.0906 16.4427 60.0317 15.2622 60.0317H7.3273C6.14388 60.0317 5.18164 61.0906 5.18164 62.3983C5.18164 63.7061 6.14388 64.765 7.3273 64.765H15.2622Z" fill="white"/>
<path d="M31.1895 64.765C32.3729 64.765 33.3322 63.7061 33.3322 62.3983C33.3322 61.0906 32.3729 60.0317 31.1895 60.0317H23.2545C22.0711 60.0317 21.1089 61.0906 21.1089 62.3983C21.1089 63.7061 22.0711 64.765 23.2545 64.765H31.1895Z" fill="white"/>
<path d="M47.1182 64.765C48.3002 64.765 49.2596 63.7061 49.2596 62.3983C49.2596 61.0906 48.3002 60.0317 47.1182 60.0317H39.1833C37.9999 60.0317 37.0405 61.0906 37.0405 62.3983C37.0405 63.7061 37.9999 64.765 39.1833 64.765H47.1182Z" fill="white"/>
<path d="M23.1973 73C24.3807 73 25.34 71.9411 25.34 70.6349C25.34 69.3287 24.3807 68.2698 23.1973 68.2698H15.2624C14.0761 68.2698 13.1167 69.3287 13.1167 70.6349C13.1167 71.9411 14.0761 73 15.2624 73H23.1973Z" fill="white"/>
<path d="M39.1274 73C40.3065 73 41.2688 71.9411 41.2688 70.6349C41.2659 69.3287 40.3065 68.2698 39.1274 68.2698H31.1897C30.0034 68.2698 29.0469 69.3287 29.0469 70.6349C29.0469 71.9411 30.0034 73 31.1897 73H39.1274Z" fill="white"/>
<path d="M55.0518 73C56.2353 73 57.1975 71.9411 57.1975 70.6349C57.1975 69.3287 56.2353 68.2698 55.0518 68.2698H47.1184C45.935 68.2698 44.9756 69.3287 44.9756 70.6349C44.9756 71.9411 45.935 73 47.1184 73H55.0518Z" fill="white"/>
<path d="M51.1698 55.3586C57.15 55.3586 62 50.0086 62 43.4032C62 43.4032 62.0531 31.4621 50.6657 31.4621C48.2026 20.2723 38.7238 19.7048 36.0625 20.4958C33.1801 17.327 28.3761 15 23.5175 15C13.8908 15 6.00037 23.2191 5.2909 33.648C2.12842 35.6548 0 39.4165 0 43.7281C0 50.1544 4.71786 55.3586 10.5387 55.3586H51.1698ZM11.4478 50.9058C7.51267 50.9058 4.60871 47.7624 4.60871 43.6949C4.60871 40.3723 6.52171 37.4588 9.50896 36.4649C9.86227 20.7653 22.3585 19.9632 23.7473 19.9632C27.8734 19.9632 31.9694 22.1983 34.6077 25.5065C39.9345 23.5742 47.2389 28.1078 46.4232 36.8754C48.5013 35.9449 50.5824 36.0163 51.1798 36.0163C54.1613 36.0163 57.7704 38.9013 57.7704 43.6283C57.7704 47.6467 54.8148 50.9042 51.1798 50.9042L11.4478 50.9058Z" fill="white"/>
</svg>
