<svg width="348" height="427" fill="none" xmlns="http://www.w3.org/2000/svg"><path d="M29.399 127.121v246.378c0 14.562 5.34 28.238 14.668 38.05a49.248 49.248 0 0035.73 15.45H269a49.234 49.234 0 0035.73-15.45c9.328-9.812 14.668-23.488 14.668-38.05V127.121c18.543-4.922 30.558-22.836 28.078-41.864-2.484-19.023-18.691-33.253-37.879-33.257h-51.199V39.5a39.284 39.284 0 00-11.539-28.031A39.288 39.288 0 00218.797 0H130a39.286 39.286 0 00-28.062 11.469 39.288 39.288 0 00-11.54 28.03V52H39.2c-19.188.005-35.395 14.235-37.88 33.258-2.48 19.028 9.536 36.942 28.079 41.864zM269 406.999H79.797c-17.097 0-30.398-14.688-30.398-33.5V128h249.999v245.499c0 18.812-13.301 33.5-30.398 33.5zm-158.601-367.5a19.248 19.248 0 015.675-13.894A19.261 19.261 0 01130 20h88.797a19.258 19.258 0 0113.925 5.605 19.239 19.239 0 015.676 13.895V52H110.399V39.5zM39.199 72h270.398c9.942 0 18 8.06 18 18 0 9.942-8.058 18.001-18 18.001H39.2c-9.942 0-18-8.059-18-18 0-9.942 8.058-18 18-18z" fill="red"/></svg>