<svg width="19" height="19" fill="none" xmlns="http://www.w3.org/2000/svg"><path d="M9.503 0A9.498 9.498 0 00.771 5.76l-.119.04.046.138c-1.97 4.86.372 10.396 5.23 12.366A9.49 9.49 0 009.501 19c5.245 0 9.498-4.252 9.499-9.499C19 4.255 14.749.001 9.503 0zm7.45 14.29l-.487-.488v-1.135a.317.317 0 00-.032-.142L15.2 10.06V8.867a.317.317 0 00-.14-.264l-.95-.633a.317.317 0 00-.254-.044l-1.163.29-1.954-.838-.268-1.883.745-.745h1.599l.538.81a.317.317 0 00.211.136l1.9.316A.302.302 0 0015.616 6l1.75-.583a8.837 8.837 0 01-.412 8.873zM15.648 3.12l-.515.344-1.435-.288-.931-.31a.311.311 0 00-.177-.006l-1.177.294-.516-.172.382-.765h1.071c.05 0 .098-.012.142-.034l1.095-.547a8.898 8.898 0 012.06 1.484zM6.033 1.34l.76.507c.037.025.08.042.123.049l1.535.256-.15.448-.8.267a.317.317 0 00-.17.137l-.91 1.515-1.46.877-2.153.307a.317.317 0 00-.273.314v.95a.32.32 0 00.093.224l.54.54v.544l-1.317-.878-.477-1.434A8.917 8.917 0 016.033 1.34zM5.13 11.723l-1.43-.287-.532-1.06V9.63l1.18-1.18.436.874a.317.317 0 00.283.175h2.037l.858 1.43c.057.095.16.153.271.153h.88l-.221 1.11-1.199 1.2a.317.317 0 00-.093.224v.791l-1.14.855a.317.317 0 00-.126.254v1.143l-.394-.13-.556-1.39v-3.107c0-.15-.106-.28-.254-.31zm-.951 4.868a8.865 8.865 0 01-3.158-9.68l.263.79a.316.316 0 00.125.162l1.578 1.053-.36.36a.317.317 0 00-.093.224v.95c0 .05.012.098.034.142l.633 1.266c.044.088.125.15.221.169l1.33.266V15.2c0 .04.008.08.023.118l.633 1.583a.316.316 0 00.194.183l.95.316a.317.317 0 00.415-.3v-1.425l1.14-.855a.317.317 0 00.126-.253v-.82l1.174-1.173a.317.317 0 00.086-.162l.317-1.583a.317.317 0 00-.31-.379H8.413l-.857-1.43a.317.317 0 00-.272-.153h-2.02L4.72 7.775a.317.317 0 00-.507-.082l-.411.41V7.6a.317.317 0 00-.093-.224l-.54-.54V6.29l1.944-.278a.318.318 0 00.118-.042l1.583-.95a.316.316 0 00.108-.108l.89-1.483.839-.28a.313.313 0 00.2-.2L9.167 2a.317.317 0 00-.248-.412l-1.832-.305-.322-.215a8.839 8.839 0 016.089.227l-.579.288h-1.191a.317.317 0 00-.285.175l-.634 1.267a.317.317 0 00.184.442l.95.317a.32.32 0 00.176.007l1.177-.295.863.288a.235.235 0 00.038.01l1.583.316c.082.017.168 0 .238-.047l.72-.48c.355.395.673.82.952 1.272l-1.557.52-1.687-.281-.557-.836a.317.317 0 00-.262-.141h-1.9a.317.317 0 00-.223.092l-.95.95a.317.317 0 00-.09.27l.317 2.216c.016.11.088.203.19.246l2.216.95a.313.313 0 00.201.016l1.131-.283.691.462v1.097c0 .05.01.098.032.142l1.235 2.466v1.192c0 .084.033.165.092.224l.663.663A8.861 8.861 0 014.18 16.591z" fill="#fff"/></svg>