<svg width="32" height="24" fill="none" xmlns="http://www.w3.org/2000/svg"><g clip-path="url(#clip0)" fill="#fff"><path d="M23.958 9.627c1.073-.41 2.147-.377 2.455-.377 1.54 0 3.402 1.268 3.402 3.35 0 1.768-1.525 3.202-3.402 3.202h-.153c-.574 0-1.04.44-1.04.982 0 .539.466.977 1.04.977h.148c3.088 0 5.591-2.355 5.591-5.262 0 0 .03-5.255-5.847-5.255-1.27-4.923-6.166-5.173-7.54-4.826C17.125 1.024 14.646 0 12.139 0 7.168 0 3.097 3.616 2.73 8.206 1.1 9.09 0 10.746 0 12.643c0 2.828 2.435 5.118 5.438 5.118h.74c.47 0 .913-.479.913-.979 0-.54-.466-.98-1.04-.98H5.91c-2.03 0-3.53-1.382-3.53-3.173 0-1.462.986-2.744 2.528-3.181.183-6.91 6.632-7.263 7.349-7.263 2.13 0 4.243.984 5.603 2.44 2.75-.852 6.52 1.144 6.098 5.002z"/><path d="M11.908 21.9l3.032-3.252a.506.506 0 00.133-.348.506.506 0 00-.135-.348l-.276-.294a.442.442 0 00-.655.001l-1.772 1.897-.012-6.016c0-.271-.2-.485-.454-.484h-.39a.482.482 0 00-.472.487l.012 6.037-1.79-1.911a.437.437 0 00-.646.001l-.275.295a.505.505 0 00-.133.349c0 .131.049.255.135.347l3.045 3.24a.443.443 0 00.653-.001zm9-1l3.032-3.252a.506.506 0 00.133-.348.506.506 0 00-.135-.348l-.276-.294a.442.442 0 00-.655.001l-1.773 1.897-.011-6.016c0-.271-.2-.485-.454-.484h-.39a.482.482 0 00-.472.487l.012 6.037-1.79-1.911a.437.437 0 00-.646.001l-.275.295a.506.506 0 00-.133.349c0 .131.049.255.135.347l3.045 3.24a.443.443 0 00.653-.001z"/></g><defs><clipPath id="clip0"><path fill="#fff" d="M0 0h32v24H0z"/></clipPath></defs></svg>