<svg width="32" height="24" fill="none" xmlns="http://www.w3.org/2000/svg"><path d="M31.797 11.155C31.51 10.78 24.699 2 16 2 7.3 2 .489 10.781.203 11.155a.974.974 0 000 1.19C.49 12.72 7.3 21.5 16 21.5s15.51-8.781 15.797-9.155a.973.973 0 000-1.19zM16 19.483c-6.408 0-11.958-5.828-13.601-7.734 1.64-1.907 7.179-7.732 13.6-7.732 6.409 0 11.958 5.827 13.602 7.734-1.64 1.907-7.18 7.732-13.601 7.732z" fill="#fff"/><path d="M16 5.698c-3.49 0-6.33 2.715-6.33 6.052 0 3.337 2.84 6.052 6.33 6.052s6.33-2.715 6.33-6.052c0-3.337-2.84-6.052-6.33-6.052zm0 10.087c-2.327 0-4.22-1.81-4.22-4.035S13.673 7.716 16 7.716s4.22 1.81 4.22 4.034c0 2.225-1.893 4.034-4.22 4.034z" fill="#fff"/></svg>