<svg width="60" height="42" fill="none" xmlns="http://www.w3.org/2000/svg"><g clip-path="url(#clip0)"><path d="M49.52 41.998c5.79 0 10.48-5.573 10.48-12.439 0 0 .054-12.427-10.964-12.427C46.655 5.488 37.475 4.898 34.9 5.719 32.108 2.422 27.46 0 22.76 0 13.444 0 5.805 8.552 5.118 19.404 2.06 21.495 0 25.407 0 29.894 0 36.583 4.564 42 10.196 42l39.324-.002zm-38.44-4.633c-3.81 0-6.618-3.271-6.618-7.504 0-3.456 1.85-6.486 4.74-7.523.343-16.336 12.437-17.17 13.781-17.17 3.994 0 7.958 2.324 10.508 5.766 5.16-2.01 12.224 2.706 11.436 11.831 2.01-.969 4.024-.892 4.6-.892 2.89 0 6.377 3 6.377 7.921 0 4.185-2.856 7.571-6.377 7.571H11.08z" fill="#fff"/></g><defs><clipPath id="clip0"><path fill="#fff" d="M0 0h60v42H0z"/></clipPath></defs></svg>