<svg width="70" height="69" fill="none" xmlns="http://www.w3.org/2000/svg"><g clip-path="url(#clip0)" fill="#fff"><path d="M39.146 18.84c-1.94-.475-3.65-.363-4.552-.078-2.769-3.247-7.374-5.632-12.031-5.632-9.24 0-16.809 8.417-17.492 19.1C2.042 34.285 0 38.138 0 42.554c0 6.578 4.525 11.908 10.106 11.908h1.373c.953 0 1.699-1.115 1.699-2.28 0-1.256-.867-2.28-1.935-2.28h-.26c-3.774 0-6.56-3.217-6.56-7.384 0-3.402 1.833-6.387 4.7-7.405C9.461 19.035 21.45 18.21 22.78 18.21c3.96 0 7.887 2.29 10.416 5.68 5.112-1.981 12.115 2.663 11.333 11.641 1.994-.954 3.993-.878 4.563-.878 2.861 0 6.323 2.95 6.323 7.796 0 4.115-2.832 7.45-6.323 7.45h-.286c-1.068 0-1.935 1.026-1.935 2.282 0 1.259.867 2.277 1.935 2.277h.276c5.742 0 10.392-5.481 10.392-12.244 0 0 .011-1.577-.487-3.598 3.82-.845 7.228-3.25 9.717-6.638 3.234-4.375-.455-4.285-1.71-4.513-7.41-1.074-17.421-10.17-13.738-24.568.797-3.09-.719-3.125-1.83-2.748 0 .01-11.557 3.03-12.281 18.69zm9.738-12.463c-1.697 10.373 5.358 23.217 15.224 24.441-1.894 1.704-4.409 3.053-6.984 3.435-1.568-2.327-4.175-4.262-8.515-4.262-.99-4.784-3.148-7.67-5.517-9.35-.593-8.076 3.673-12.732 5.792-14.264z"/><path d="M22.218 51.014c.569-1.155.23-2.637-.75-3.302-.982-.67-2.238-.274-2.805.882L16.38 53.25c-.567 1.158-.23 2.638.752 3.305.983.67 2.237.272 2.806-.886l2.279-4.655zm10.645 0c.566-1.155.23-2.637-.755-3.302-.98-.67-2.238-.274-2.803.882l-2.28 4.656c-.568 1.158-.231 2.638.75 3.305.983.67 2.239.272 2.806-.886l2.282-4.655zM23.44 63.12c.568-1.158.23-2.638-.75-3.305-.982-.669-2.24-.272-2.806.889l-2.281 4.652c-.566 1.158-.23 2.64.753 3.304.983.669 2.239.274 2.806-.884l2.279-4.656zm20.065-12.106c.565-1.155.231-2.637-.753-3.302-.983-.67-2.239-.274-2.806.882l-2.279 4.656c-.566 1.158-.23 2.638.752 3.305.983.67 2.239.272 2.805-.886l2.281-4.655zm-9.42 12.106c.566-1.158.23-2.638-.75-3.305-.985-.669-2.24-.272-2.808.889l-2.28 4.652c-.57 1.158-.231 2.64.753 3.304.981.669 2.237.274 2.803-.884l2.282-4.656z"/></g><defs><clipPath id="clip0"><path fill="#fff" d="M0 0h70v69H0z"/></clipPath></defs></svg>