<svg width="75" height="68" fill="none" xmlns="http://www.w3.org/2000/svg"><path d="M53.215 2.435C53.215 1.09 52.292 0 51.159 0c-1.136 0-2.053 1.089-2.053 2.435v5.412c0 1.347.917 2.44 2.053 2.44 1.133 0 2.056-1.093 2.056-2.44V2.435zM37.184 8.27c-.802-.95-2.101-.95-2.903 0-.802.952-.802 2.497 0 3.448l3.227 3.828c.802.951 2.104.951 2.907 0 .799-.954.799-2.494-.003-3.446l-3.228-3.83zm27.908 40.06c.802.952 2.104.952 2.906 0 .8-.951.8-2.496 0-3.444l-3.229-3.828c-.802-.951-2.1-.951-2.902 0-.804.951-.804 2.491 0 3.442l3.225 3.83zm7.855-17.571c1.132 0 2.053-1.089 2.053-2.436s-.92-2.435-2.053-2.435h-4.563c-1.133 0-2.056 1.088-2.056 2.435s.923 2.436 2.056 2.436h4.563zM68.026 11.75c.805-.95.805-2.495 0-3.446-.802-.952-2.102-.952-2.904 0l-3.227 3.828c-.805.951-.805 2.496 0 3.447.802.951 2.101.951 2.9 0l3.23-3.828z" fill="#fff"/><path d="M63.93 28.354c0-8.367-5.714-15.152-12.771-15.152-4.169 0-7.873 2.372-10.2 6.036-2.621-1.11-5.136-1.026-6.298-.653-2.772-3.276-7.39-5.68-12.055-5.68-9.256 0-16.84 8.486-17.521 19.258C2.045 34.242 0 38.127 0 42.58 0 49.221 4.532 54.6 10.128 54.6h1.413c.963 0 1.703-1.13 1.703-2.305 0-1.267-.872-2.294-1.94-2.294h-.302c-3.781 0-6.574-3.25-6.574-7.45 0-3.433 1.838-6.44 4.71-7.469.341-16.215 12.35-17.042 13.686-17.042 3.967 0 7.904 2.308 10.434 5.725 5.122-1.996 12.142 2.688 11.358 11.742 1.997-.961 3.996-.884 4.57-.884 2.869 0 6.333 2.978 6.333 7.865 0 4.15-2.835 7.516-6.333 7.516h-.297c-1.068 0-1.94 1.031-1.94 2.301 0 1.267.872 2.298 1.94 2.298h.288c5.75 0 10.411-5.53 10.411-12.354 0 0 .006-.93-.218-2.286 2.788-2.784 4.56-6.95 4.56-11.609zm-6.175 6.721c-1.488-2.713-4.182-5.161-9.059-5.161-.788-3.866-2.335-6.504-4.14-8.273 1.594-2.208 3.96-3.6 6.603-3.6 4.8 0 8.697 4.615 8.697 10.315 0 2.566-.793 4.912-2.1 6.72z" fill="#fff"/><path d="M33.145 53.163l-1.305-.895 1.305-.891c.452-.308.605-.99.345-1.527-.26-.536-.837-.716-1.284-.409l-1.305.895V48.55c0-.617-.42-1.118-.94-1.118-.522 0-.943.502-.943 1.118v1.785l-1.305-.895c-.449-.307-1.022-.124-1.284.41-.26.532-.105 1.215.344 1.526l1.303.89-1.303.896c-.449.308-.603.988-.344 1.527.26.533.834.716 1.284.409l1.305-.894v1.784c0 .62.42 1.12.943 1.12.52 0 .94-.5.94-1.12v-1.784l1.305.894c.446.307 1.022.124 1.284-.41.26-.535.107-1.215-.345-1.526zm10.222 0l-1.304-.895 1.304-.891c.45-.308.605-.99.342-1.527-.256-.533-.832-.716-1.284-.409l-1.305.895V48.55c0-.617-.42-1.118-.94-1.118s-.942.502-.942 1.118v1.785l-1.304-.895c-.447-.307-1.023-.124-1.284.41-.262.532-.105 1.215.341 1.526l1.305.89-1.305.896c-.446.308-.603.988-.341 1.527.259.533.836.716 1.284.409l1.304-.894v1.784c0 .62.423 1.12.942 1.12.52 0 .94-.5.94-1.12v-1.784l1.305.894c.452.307 1.028.124 1.284-.41.263-.535.108-1.215-.342-1.526zm-20.444 0l-1.305-.895 1.305-.891c.45-.308.605-.99.345-1.527-.26-.533-.834-.716-1.285-.409l-1.305.895V48.55c0-.617-.42-1.118-.942-1.118-.52 0-.937.502-.937 1.118v1.785l-1.305-.895c-.452-.307-1.025-.124-1.287.41-.26.532-.105 1.215.344 1.526l1.305.89-1.305.896c-.449.308-.603.988-.344 1.527.26.533.834.716 1.287.409l1.305-.894v1.784c0 .62.417 1.12.937 1.12.522 0 .942-.5.942-1.12v-1.784l1.305.894c.45.307 1.026.124 1.285-.41.26-.535.104-1.215-.345-1.526zm4.923 10.897l-1.305-.897 1.305-.894c.449-.307.603-.987.344-1.526-.26-.533-.836-.715-1.287-.406l-1.302.894v-1.788c0-.616-.423-1.116-.943-1.116-.517 0-.94.5-.94 1.116v1.788l-1.305-.894c-.446-.309-1.025-.124-1.284.406-.26.536-.105 1.22.345 1.526l1.302.894-1.302.896c-.45.307-.605.987-.345 1.523.26.537.836.718 1.284.41l1.305-.895v1.788c0 .616.424 1.115.94 1.115.52 0 .943-.499.943-1.115v-1.788l1.302.894c.45.31 1.025.128 1.287-.409.26-.532.105-1.216-.345-1.523zm9.781 0l-1.308-.897 1.308-.894c.449-.307.605-.987.344-1.526-.26-.533-.836-.715-1.287-.406l-1.302.894v-1.788c0-.616-.423-1.116-.94-1.116-.525 0-.942.5-.942 1.116v1.788l-1.305-.894c-.45-.309-1.026-.124-1.288.406-.259.536-.104 1.22.345 1.526l1.302.894-1.3.896c-.45.307-.604.987-.345 1.523.26.537.836.718 1.287.41l1.305-.895v1.788c0 .616.418 1.115.943 1.115.516 0 .94-.499.94-1.115v-1.788l1.302.894c.449.31 1.025.128 1.287-.409.259-.532.103-1.216-.346-1.523z" fill="#fff"/></svg>