<svg width="60" height="60" fill="none" xmlns="http://www.w3.org/2000/svg"><path d="M14.77 51.481c1.142 0 2.074-1.095 2.074-2.448s-.932-2.449-2.074-2.449H7.091c-1.145 0-2.076 1.096-2.076 2.449 0 1.353.93 2.448 2.076 2.448h7.679zm15.413 0c1.146 0 2.074-1.095 2.074-2.448s-.928-2.449-2.073-2.449h-7.68c-1.145 0-2.076 1.096-2.076 2.449 0 1.353.931 2.448 2.076 2.448h7.68zm15.415 0c1.144 0 2.073-1.095 2.073-2.448s-.929-2.449-2.073-2.449H37.92c-1.145 0-2.073 1.096-2.073 2.449 0 1.353.928 2.448 2.073 2.448h7.68zM22.449 60c1.145 0 2.074-1.095 2.074-2.447 0-1.35-.929-2.446-2.074-2.446H14.77c-1.148 0-2.076 1.095-2.076 2.446 0 1.352.928 2.447 2.076 2.447h7.679zm15.416 0c1.141 0 2.072-1.095 2.072-2.447-.002-1.35-.93-2.446-2.072-2.446h-7.682c-1.148 0-2.073 1.095-2.073 2.446 0 1.352.925 2.447 2.073 2.447h7.682zm15.411 0c1.145 0 2.076-1.095 2.076-2.447 0-1.35-.93-2.446-2.076-2.446h-7.678c-1.145 0-2.073 1.095-2.073 2.446 0 1.352.928 2.447 2.073 2.447h7.678zM49.52 41.75c5.786 0 10.48-5.534 10.48-12.367 0 0 .051-12.353-10.969-12.353C46.648 5.454 37.475 4.867 34.9 5.685 32.11 2.407 27.461 0 22.76 0 13.443 0 5.807 8.503 5.12 19.291 2.06 21.367 0 25.258 0 29.719 0 36.367 4.566 41.75 10.199 41.75h39.32zm-38.442-4.606c-3.808 0-6.618-3.252-6.618-7.46 0-3.437 1.851-6.45 4.742-7.479.342-16.24 12.435-17.07 13.78-17.07 3.992 0 7.956 2.312 10.51 5.734 5.154-2 12.223 2.69 11.434 11.76 2.01-.962 4.025-.888 4.603-.888 2.885 0 6.378 2.985 6.378 7.875 0 4.156-2.86 7.526-6.378 7.526l-38.45.002z" fill="#fff"/></svg>