<svg width="55" height="55" fill="none" xmlns="http://www.w3.org/2000/svg"><path d="M30.784 2.403C30.784 1.077 29.693 0 28.347 0 27 0 25.908 1.077 25.907 2.403l.001 5.338c0 1.327 1.093 2.405 2.439 2.405s2.437-1.078 2.437-2.405V2.403zM11.761 8.159a2.466 2.466 0 00-3.45 0 2.379 2.379 0 000 3.399l3.832 3.773a2.466 2.466 0 003.45 0 2.376 2.376 0 000-3.396L11.76 8.159zM2.44 24.668c-1.347 0-2.44 1.077-2.44 2.403s1.094 2.403 2.439 2.403h5.419c1.346 0 2.438-1.077 2.438-2.404 0-1.325-1.092-2.402-2.438-2.402H2.44zm5.841 19.554a2.377 2.377 0 000 3.398 2.468 2.468 0 003.45 0l3.83-3.775a2.375 2.375 0 000-3.397 2.468 2.468 0 00-3.448.001L8.28 44.222zm17.582 8.372c0 1.327 1.091 2.405 2.439 2.405 1.346-.003 2.44-1.078 2.44-2.405v-5.338c0-1.326-1.094-2.403-2.44-2.403-1.345 0-2.439 1.078-2.439 2.402v5.34zm19.025-4.942c.95.938 2.496.938 3.448 0a2.384 2.384 0 000-3.398l-3.831-3.774a2.467 2.467 0 00-3.449 0 2.376 2.376 0 000 3.396l3.832 3.776zM52.56 30.33c1.349 0 2.44-1.078 2.44-2.402 0-1.328-1.091-2.405-2.438-2.405h-5.418c-1.346 0-2.44 1.076-2.44 2.404 0 1.325 1.094 2.403 2.44 2.4l5.416.003zm-4.194-18.743a2.37 2.37 0 000-3.396 2.464 2.464 0 00-3.449 0l-3.83 3.775a2.377 2.377 0 000 3.397 2.464 2.464 0 003.449 0l3.83-3.776zM28.347 13.02c-8.373 0-15.158 6.687-15.158 14.937s6.787 14.936 15.158 14.936c8.374 0 15.16-6.686 15.16-14.936 0-8.249-6.786-14.936-15.16-14.936zm0 25.104c-5.7 0-10.323-4.553-10.323-10.167s4.622-10.17 10.323-10.17c5.702 0 10.322 4.556 10.322 10.17s-4.623 10.167-10.322 10.167z" fill="#fff"/></svg>