<svg width="80" height="54" fill="none" xmlns="http://www.w3.org/2000/svg"><path d="M54.5 10.214c1.217 0 2.197-1.084 2.197-2.42V2.42c0-1.338-.98-2.42-2.197-2.42-1.212 0-2.198 1.084-2.198 2.42v5.373c0 1.337.986 2.42 2.198 2.42zm-14.6 5.222c.858.944 2.25.944 3.11 0 .857-.946.857-2.478 0-3.421l-3.452-3.8c-.857-.946-2.251-.946-3.109 0-.857.945-.857 2.477 0 3.421l3.452 3.8zM69.058 40.76c-.857-.946-2.248-.946-3.106 0-.857.944-.857 2.474 0 3.42l3.45 3.797c.857.948 2.249.948 3.106 0 .857-.944.857-2.475 0-3.42l-3.45-3.797zm8.745-15.06h-4.881c-1.214 0-2.2 1.085-2.2 2.419 0 1.337.986 2.419 2.2 2.419h4.88c1.212 0 2.198-1.082 2.198-2.42 0-1.335-.986-2.419-2.197-2.419zm-8.715-10.232l3.45-3.8c.86-.945.86-2.479 0-3.423-.857-.945-2.248-.945-3.108 0l-3.449 3.8c-.857.944-.857 2.477 0 3.423.858.944 2.25.944 3.107 0z" fill="#fff"/><path d="M68.161 28.15c0-8.306-6.118-15.039-13.661-15.039-4.429 0-8.361 2.325-10.859 5.925-2.79-1.092-5.471-1.014-6.709-.645-2.957-3.239-7.874-5.615-12.844-5.615-9.86 0-17.945 8.394-18.67 19.046C2.183 33.872 0 37.717 0 42.12 0 48.683 4.832 54 10.793 54h41.605c6.127 0 11.092-5.47 11.092-12.213 0 0 .003-.861-.212-2.126 2.986-2.759 4.883-6.89 4.883-11.512zm-15.75 21.3H11.727c-4.032 0-7.006-3.208-7.006-7.364 0-3.39 1.96-6.367 5.02-7.387.361-16.036 13.16-16.853 14.581-16.853 4.227 0 8.424 2.28 11.12 5.66 5.456-1.973 12.935 2.658 12.1 11.617 2.128-.952 4.26-.88 4.872-.88 3.051 0 6.744 2.945 6.744 7.777 0 4.106-3.024 7.43-6.747 7.43zm-.523-19.86c-.84-3.813-2.482-6.416-4.397-8.167 1.706-2.152 4.212-3.514 7.009-3.514 5.138 0 9.296 4.587 9.296 10.24 0 2.523-.833 4.841-2.215 6.627-3.267-5.694-9.693-5.186-9.693-5.186z" fill="#fff"/></svg>