<svg width="74" height="54" fill="none" xmlns="http://www.w3.org/2000/svg"><path d="M51.893 54c6.065 0 10.983-5.434 10.983-12.136 0 0 .005-1.562-.516-3.564 4.04-.843 7.64-3.224 10.27-6.581 3.42-4.34-.48-4.245-1.805-4.477C62.992 26.178 52.41 17.16 56.301 2.887c.843-3.065-.764-3.097-1.935-2.725 0 0-12.219 2.995-12.983 18.518-2.053-.47-3.863-.36-4.81-.077-2.927-3.218-7.797-5.58-12.722-5.58-9.768 0-17.771 8.343-18.49 18.932C2.157 33.992 0 37.813 0 42.19 0 48.716 4.782 54 10.684 54h41.209zM11.61 49.479c-3.994 0-6.938-3.191-6.938-7.322 0-3.372 1.94-6.332 4.968-7.341.361-15.943 13.033-16.757 14.441-16.757 4.187 0 8.34 2.269 11.015 5.627 5.402-1.96 12.808 2.642 11.98 11.543 2.11-.945 4.219-.87 4.822-.87 3.031 0 6.685 2.926 6.685 7.731 0 4.081-2.991 7.387-6.684 7.387h-40.29v.002zm48.78-15.517c-1.654-2.309-4.417-4.223-9.003-4.223-1.044-4.746-3.328-7.608-5.83-9.274-.63-8.004 3.881-12.62 6.123-14.137-1.796 10.286 5.666 23.02 16.094 24.231-2 1.683-4.662 3.022-7.383 3.403z" fill="#fff"/></svg>