<svg width="63" height="54" fill="none" xmlns="http://www.w3.org/2000/svg"><path d="M51.996 53.998C58.076 53.998 63 48.425 63 41.56c0 0 .057-12.427-11.512-12.427-2.5-11.644-12.14-12.234-14.843-11.413C33.713 14.422 28.833 12 23.898 12c-9.782 0-17.803 8.552-18.524 19.404C2.163 33.495 0 37.407 0 41.894 0 48.583 4.792 54 10.706 54l41.29-.002zm-40.362-4.633c-4 0-6.95-3.271-6.95-7.504 0-3.456 1.943-6.486 4.978-7.523.36-16.336 13.059-17.17 14.47-17.17 4.194 0 8.356 2.324 11.033 5.766 5.42-2.01 12.835 2.706 12.008 11.831 2.11-.969 4.226-.892 4.83-.892 3.036 0 6.696 3 6.696 7.921 0 4.185-2.999 7.571-6.695 7.571h-40.37z" fill="#fff"/></svg>