<svg width="76" height="55" fill="none" xmlns="http://www.w3.org/2000/svg"><g clip-path="url(#clip0)"><path d="M67.346 24.741c-1.879-8.509-9.12-8.94-11.153-8.339-2.198-2.41-5.868-4.18-9.575-4.18-4.607 0-8.699 2.458-11.243 6.248-2.963-2.557-7.193-4.323-11.469-4.323-9.788 0-17.808 8.318-18.53 18.877C2.165 35.054 0 38.861 0 43.227 0 49.732 4.794 55 10.71 55h41.298c6.076 0 11.001-5.411 11.012-12.087h4.709c4.566 0 8.271-4.07 8.271-9.09 0 0 .038-9.082-8.654-9.082zm-15.33 25.752h-40.38c-3.997 0-6.95-3.182-6.95-7.3 0-3.36 1.942-6.313 4.98-7.32.359-15.891 13.059-16.703 14.47-16.703 4.196 0 8.361 2.26 11.04 5.61 5.415-1.957 12.836 2.637 12.008 11.51 2.112-.941 4.23-.869 4.835-.869 3.032 0 6.7 2.918 6.7 7.707-.003 4.069-3.005 7.364-6.703 7.364zm15.719-10.967h-5.188c-.899-3.577-3.5-8.715-11.045-8.715-1.987-9.007-8.492-11.214-12.434-11.338 2.966-3.228 7.053-3.475 7.724-3.475 3.15 0 6.277 1.7 8.292 4.214 4.066-1.47 9.644 1.977 9.02 8.645 1.588-.704 3.18-.65 3.63-.65 2.279 0 5.032 2.193 5.032 5.787 0 3.056-2.254 5.532-5.031 5.532z" fill="#fff"/></g><defs><clipPath id="clip0"><path fill="#fff" d="M0 0h76v55H0z"/></clipPath></defs></svg>