<svg width="79" height="79" fill="none" xmlns="http://www.w3.org/2000/svg"><path d="M68.562 46.305c.845.915 2.213.915 3.058 0 .845-.911.845-2.388 0-3.3l-3.4-3.667c-.845-.912-2.213-.912-3.06 0-.842.911-.842 2.388 0 3.3l3.402 3.667zM56.047 2.333c0-1.29-.967-2.333-2.163-2.333-1.194 0-2.16 1.043-2.16 2.333V7.52c0 1.288.966 2.334 2.16 2.334 1.196 0 2.163-1.046 2.163-2.334V2.333zM39.169 7.927a2.057 2.057 0 00-3.06-.003c-.843.915-.843 2.39 0 3.302l3.395 3.667c.85.912 2.22.912 3.064 0 .845-.914.845-2.386-.003-3.301L39.17 7.927zm37.663 21.546c1.199 0 2.165-1.046 2.165-2.336 0-1.288-.966-2.334-2.165-2.334h-4.807c-1.192 0-2.161 1.046-2.161 2.334 0 1.29.97 2.336 2.16 2.333l4.808.003zm-5.186-18.215c.85-.911.85-2.388 0-3.302-.842-.912-2.213-.912-3.058 0l-3.396 3.667c-.848.912-.848 2.392 0 3.303.845.912 2.216.912 3.058 0l3.396-3.668z" fill="#fff"/><path d="M67.335 27.168c0-8.017-6.02-14.516-13.452-14.516-4.389 0-8.289 2.27-10.742 5.78-2.76-1.058-5.41-.981-6.632-.626-2.923-3.135-7.78-5.439-12.697-5.439-9.746 0-17.737 8.128-18.457 18.453C2.16 32.81 0 36.53 0 40.797c0 6.362 4.776 11.516 10.669 11.516h1.438c.997 0 1.791-1.08 1.791-2.205 0-1.217-.913-2.202-2.04-2.202h-.268c-3.982 0-6.924-3.109-6.924-7.137 0-3.288 1.936-6.168 4.958-7.154.36-15.538 13.013-16.33 14.416-16.33 4.179 0 8.324 2.21 10.993 5.484 5.392-1.912 12.788 2.578 11.954 11.252 2.106-.92 4.215-.847 4.816-.847 3.025 0 6.673 2.852 6.673 7.534 0 3.976-2.99 7.201-6.673 7.201h-.292c-1.127 0-2.043.99-2.043 2.205 0 1.214.916 2.202 2.043 2.202h.283c6.058 0 10.965-5.298 10.965-11.832 0 0 .003-.895-.229-2.195 2.939-2.667 4.805-6.66 4.805-11.121zm-6.503 6.438c-1.568-2.6-4.405-4.946-9.538-4.946-.832-3.698-2.462-6.23-4.363-7.925 1.68-2.114 4.173-3.45 6.953-3.45 5.057 0 9.161 4.425 9.161 9.885-.001 2.457-.836 4.706-2.213 6.436zm7.373 5.787c-.845-.912-2.216-.912-3.064 0-.845.914-.845 2.394.003 3.306l3.403 3.674c.848.911 2.215.911 3.066 0 .844-.915.844-2.395 0-3.306l-3.408-3.674zm8.624-14.557h-4.813c-1.196 0-2.165 1.05-2.165 2.34 0 1.289.97 2.336 2.165 2.336h4.813c1.199 0 2.168-1.047 2.168-2.336 0-1.29-.97-2.34-2.168-2.34z" fill="#fff"/><path d="M24.367 48.972c.6-1.116.246-2.544-.791-3.193-1.038-.645-2.362-.263-2.963.857l-2.403 4.496c-.6 1.12-.247 2.548.791 3.196 1.042.645 2.366.26 2.96-.856l2.406-4.5zm-6.57 11.618c.596-1.12.243-2.549-.796-3.194-1.035-.648-2.364-.266-2.96.857l-2.407 4.496c-.598 1.12-.24 2.548.797 3.193 1.035.645 2.358.263 2.96-.856l2.406-4.497zm16.78-11.618c.595-1.116.24-2.544-.794-3.193-1.038-.645-2.361-.263-2.962.857l-2.404 4.496c-.6 1.12-.243 2.548.791 3.196 1.038.645 2.365.26 2.963-.856l2.406-4.5zm-6.573 12.181c.598-1.12.244-2.548-.794-3.193-1.038-.647-2.364-.263-2.96.858l-2.409 4.496c-.593 1.12-.24 2.548.802 3.192 1.031.648 2.358.263 2.952-.857l2.409-4.496zm-6.522 12.179c.597-1.12.248-2.55-.794-3.196-1.035-.645-2.359-.26-2.96.857l-2.402 4.499c-.6 1.117-.246 2.548.791 3.193 1.038.645 2.362.263 2.96-.856l2.404-4.497zm23.302-24.36c.598-1.116.244-2.544-.794-3.193-1.037-.645-2.364-.263-2.959.857l-2.406 4.496c-.601 1.12-.244 2.548.794 3.196 1.035.645 2.361.26 2.96-.856l2.405-4.5zm-6.573 12.181c.598-1.12.244-2.548-.794-3.193-1.034-.647-2.36-.263-2.959.858l-2.41 4.496c-.597 1.12-.243 2.548.795 3.192 1.035.648 2.364.263 2.96-.857l2.408-4.496z" fill="#fff"/></svg>