<svg width="74" height="79" fill="none" xmlns="http://www.w3.org/2000/svg"><g clip-path="url(#clip0)" fill="#fff"><path d="M41.386 18.143c-2.055-.458-3.862-.35-4.812-.076-2.926-3.125-7.793-5.418-12.72-5.418-9.768 0-17.767 8.098-18.49 18.377C2.16 33.006-.003 36.71-.003 40.96c0 6.33 4.787 11.459 10.688 11.459h1.646c1.01 0 1.796-1.074 1.796-2.194 0-1.21-.918-2.194-2.046-2.194h-.47c-3.99 0-6.934-3.095-6.934-7.104 0-3.275 1.938-6.147 4.965-7.124.36-15.476 13.035-16.265 14.442-16.265 4.186 0 8.34 2.204 11.01 5.463 5.404-1.904 12.808 2.565 11.983 11.202 2.108-.917 4.218-.844 4.82-.844 3.028 0 6.686 2.839 6.686 7.501 0 3.96-2.994 7.168-6.686 7.168h-.334c-1.129 0-2.046.988-2.046 2.197 0 1.21.917 2.19 2.046 2.19h.33c6.07 0 10.986-5.272 10.986-11.78 0 0 .008-1.519-.516-3.46 4.037-.817 7.639-3.129 10.271-6.389 3.42-4.21-.48-4.123-1.807-4.344-7.832-1.033-18.416-9.786-14.525-23.64.845-2.973-.76-3.007-1.932-2.644-.005.01-12.223 2.914-12.986 17.985zM51.68 6.149c-1.798 9.984 5.663 22.342 16.091 23.518-2 1.64-4.659 2.938-7.383 3.308-1.655-2.24-4.412-4.102-9.003-4.102-1.044-4.603-3.325-7.382-5.831-8.999-.628-7.77 3.884-12.25 6.126-13.725z"/><path d="M24.41 49.103c.602-1.114.244-2.539-.794-3.182-1.04-.644-2.367-.264-2.966.85l-2.411 4.48c-.597 1.114-.244 2.539.796 3.18 1.039.644 2.37.263 2.965-.85l2.41-4.478zm-6.585 11.565c.601-1.114.244-2.539-.792-3.18-1.043-.644-2.371-.262-2.968.852l-2.412 4.478c-.601 1.116-.241 2.54.798 3.182 1.038.642 2.363.262 2.962-.856l2.412-4.476zm16.811-11.565c.599-1.114.244-2.539-.791-3.182-1.04-.644-2.367-.264-2.968.85l-2.412 4.48c-.602 1.114-.244 2.539.796 3.18 1.042.644 2.367.263 2.968-.85l2.407-4.478zm-6.582 12.124c.598-1.114.24-2.537-.802-3.18-1.036-.642-2.364-.262-2.963.855l-2.41 4.477c-.596 1.114-.244 2.538.795 3.18 1.039.642 2.367.262 2.965-.85l2.415-4.482zm-6.535 12.129c.601-1.117.244-2.541-.795-3.182-1.04-.642-2.368-.258-2.965.853l-2.409 4.48c-.601 1.114-.247 2.538.792 3.18 1.039.645 2.367.262 2.965-.854l2.412-4.477zm23.344-24.253c.601-1.114.244-2.539-.795-3.182-1.039-.644-2.367-.264-2.968.85l-2.409 4.48c-.598 1.114-.244 2.539.798 3.18 1.039.644 2.364.263 2.962-.85l2.412-4.478zm-6.586 12.124c.602-1.114.244-2.537-.795-3.18-1.035-.642-2.366-.262-2.965.855l-2.41 4.477c-.601 1.114-.244 2.538.798 3.18 1.035.642 2.363.262 2.962-.85l2.41-4.482z"/></g><defs><clipPath id="clip0"><path fill="#fff" d="M0 0h74v79H0z"/></clipPath></defs></svg>