<svg width="79" height="69" fill="none" xmlns="http://www.w3.org/2000/svg"><g clip-path="url(#clip0)" fill="#fff"><path d="M56.05 3.395C56.05 2.07 55.08 1 53.886 1c-1.193 0-2.162 1.07-2.162 2.395v5.323c0 1.323.97 2.395 2.162 2.395 1.195 0 2.166-1.072 2.166-2.395V3.395zM39.168 9.134c-.844-.932-2.212-.932-3.059 0-.844.937-.844 2.453 0 3.388l3.4 3.766c.844.937 2.216.937 3.06 0 .844-.937.844-2.45 0-3.388l-3.401-3.766zm29.396 39.389c.842.939 2.213.939 3.06.002.846-.937.846-2.453 0-3.388l-3.401-3.764c-.845-.936-2.214-.936-3.058 0-.845.935-.845 2.45 0 3.386l3.399 3.764zm8.27-17.275c1.196 0 2.166-1.073 2.166-2.396s-.97-2.396-2.166-2.396H72.03c-1.194 0-2.166 1.073-2.166 2.396s.972 2.396 2.166 2.395l4.805.002zm-5.183-18.693c.843-.936.848-2.455 0-3.389-.842-.937-2.213-.937-3.06 0l-3.397 3.765c-.848.935-.848 2.452 0 3.388.844.935 2.212.935 3.056 0l3.401-3.764z"/><path d="M67.339 28.883c0-8.228-6.02-14.9-13.454-14.9-4.39 0-8.289 2.33-10.743 5.934-2.761-1.086-5.41-1.007-6.634-.643-2.92-3.217-7.78-5.582-12.697-5.582-9.75 0-17.737 8.344-18.455 18.939C2.156 34.674 0 38.49 0 42.872 0 49.401 4.777 54.69 10.667 54.69h1.438c.997 0 1.793-1.11 1.793-2.263 0-1.25-.918-2.26-2.043-2.26h-.265c-3.984 0-6.925-3.19-6.925-7.324 0-3.376 1.935-6.331 4.96-7.344C9.986 19.553 22.634 18.74 24.04 18.74c4.178 0 8.325 2.27 10.991 5.63 5.394-1.964 12.79 2.644 11.962 11.549 2.103-.947 4.21-.871 4.813-.871 3.019 0 6.674 2.926 6.674 7.732 0 4.08-2.992 7.39-6.674 7.39h-.293c-1.127 0-2.043 1.016-2.043 2.263 0 1.247.916 2.26 2.043 2.26h.284c6.057 0 10.966-5.437 10.966-12.143 0 0 .003-.92-.23-2.252 2.937-2.738 4.805-6.835 4.805-11.414zm-6.508 6.607c-1.565-2.668-4.403-5.076-9.536-5.076-.834-3.798-2.462-6.395-4.364-8.134 1.681-2.168 4.173-3.54 6.954-3.54 5.057 0 9.16 4.54 9.16 10.144 0 2.522-.834 4.83-2.214 6.606zm7.379 5.939c-.848-.936-2.218-.936-3.067 0-.845.937-.845 2.457 0 3.393l3.405 3.769c.846.938 2.218.938 3.066.001.843-.937.843-2.457 0-3.392l-3.404-3.771zm8.621-14.938H72.02c-1.196 0-2.166 1.075-2.166 2.4 0 1.326.97 2.398 2.166 2.398h4.811c1.2 0 2.169-1.072 2.169-2.398 0-1.325-.97-2.4-2.169-2.4z"/><path d="M23.447 51.262c.6-1.15.242-2.617-.794-3.279-1.035-.662-2.362-.268-2.96.88l-2.405 4.615c-.6 1.148-.242 2.614.794 3.278 1.037.663 2.362.268 2.961-.878l2.404-4.616zm11.233 0c.598-1.15.242-2.617-.794-3.279-1.038-.662-2.363-.268-2.961.88l-2.407 4.615c-.598 1.148-.242 2.614.793 3.278 1.036.663 2.363.268 2.96-.878l2.409-4.616zm-9.944 12.006c.598-1.149.242-2.615-.794-3.28-1.037-.66-2.362-.267-2.961.879l-2.407 4.616c-.6 1.15-.244 2.617.793 3.279 1.037.662 2.361.27 2.96-.878l2.409-4.616zM45.91 51.262c.598-1.15.243-2.617-.793-3.279-1.036-.662-2.361-.268-2.96.88l-2.406 4.615c-.6 1.148-.244 2.614.793 3.278 1.036.663 2.361.268 2.959-.878l2.407-4.616zm-9.942 12.006c.597-1.149.24-2.615-.795-3.28-1.038-.66-2.363-.267-2.96.879l-2.407 4.616c-.598 1.15-.243 2.617.795 3.279 1.036.662 2.363.27 2.958-.878l2.41-4.616z"/></g><defs><clipPath id="clip0"><path fill="#fff" d="M0 0h79v69H0z"/></clipPath></defs></svg>