<svg width="73" height="67" fill="none" xmlns="http://www.w3.org/2000/svg"><g clip-path="url(#clip0)" fill="#fff"><path d="M40.824 18.302c-2.022-.461-3.807-.353-4.747-.076-2.888-3.153-7.69-5.47-12.547-5.47-9.637 0-17.53 8.175-18.242 18.55C2.13 33.3 0 37.043 0 41.33c0 6.388 4.72 11.565 10.54 11.565h1.431c.993 0 1.772-1.083 1.772-2.214 0-1.22-.905-2.214-2.018-2.214h-.271c-3.936 0-6.842-3.125-6.842-7.172 0-3.304 1.912-6.202 4.901-7.191.354-15.613 12.856-16.413 14.245-16.413 4.13 0 8.225 2.223 10.862 5.515 5.331-1.924 12.635 2.587 11.819 11.305 2.08-.926 4.163-.852 4.758-.852 2.984 0 6.594 2.865 6.594 7.57 0 3.997-2.954 7.235-6.594 7.235H50.9c-1.114 0-2.018.997-2.018 2.217 0 1.222.904 2.211 2.018 2.211h.288c5.988 0 10.838-5.323 10.838-11.89 0 0 .011-1.532-.509-3.495 3.984-.82 7.539-3.156 10.134-6.446 3.372-4.25-.474-4.161-1.784-4.383C62.14 25.635 51.7 16.802 55.541 2.82c.83-3-.75-3.035-1.91-2.669 0 .01-12.05 2.942-12.806 18.15zM50.979 6.199c-1.77 10.074 5.588 22.546 15.877 23.735-1.975 1.655-4.598 2.965-7.283 3.336-1.636-2.26-4.354-4.14-8.88-4.14-1.032-4.645-3.284-7.447-5.755-9.08-.616-7.842 3.832-12.364 6.042-13.85z"/><path d="M23.17 49.547c.593-1.121.24-2.56-.782-3.206-1.024-.652-2.334-.266-2.926.856l-2.379 4.522c-.591 1.124-.239 2.562.784 3.21 1.025.65 2.334.264 2.927-.86l2.376-4.522zm11.102 0c.59-1.121.24-2.56-.787-3.206-1.024-.652-2.335-.266-2.924.856l-2.378 4.522c-.591 1.124-.24 2.562.783 3.21 1.025.65 2.334.264 2.926-.86l2.38-4.522zm-9.826 11.757c.592-1.125.24-2.562-.783-3.21-1.024-.65-2.336-.264-2.926.864l-2.38 4.518c-.59 1.124-.239 2.563.786 3.208 1.025.65 2.335.266 2.927-.859l2.376-4.521zM45.37 49.547c.589-1.121.24-2.56-.785-3.206-1.025-.652-2.335-.266-2.927.856l-2.376 4.522c-.59 1.124-.24 2.562.784 3.21 1.024.65 2.334.264 2.925-.86l2.379-4.522zm-9.825 11.757c.59-1.125.241-2.562-.782-3.21-1.026-.65-2.336-.264-2.928.864l-2.378 4.518c-.593 1.124-.24 2.563.786 3.208 1.023.65 2.333.266 2.923-.859l2.38-4.521z"/></g><defs><clipPath id="clip0"><path fill="#fff" d="M0 0h73v67H0z"/></clipPath></defs></svg>