<svg width="78" height="75" fill="none" xmlns="http://www.w3.org/2000/svg"><path d="M55.339 2.371C55.339 1.06 54.384 0 53.2 0c-1.178 0-2.132 1.06-2.135 2.371l.003 5.272c0 1.311.955 2.373 2.133 2.373 1.183 0 2.138-1.062 2.138-2.373V2.37zM38.67 8.055c-.834-.926-2.186-.926-3.018 0-.834.926-.834 2.43 0 3.357l3.357 3.725c.83.928 2.188.928 3.022 0 .831-.927.831-2.427-.003-3.354L38.67 8.055zm29.026 39.003c.831.93 2.186.93 3.02.003.834-.93.834-2.43 0-3.355l-3.357-3.727c-.834-.928-2.185-.928-3.022 0-.831.926-.831 2.425 0 3.352l3.36 3.727zm8.166-17.106c1.18 0 2.138-1.062 2.138-2.372 0-1.311-.957-2.372-2.135-2.372h-4.747c-1.18 0-2.138 1.061-2.138 2.373 0 1.31.957 2.371 2.138 2.37l4.744.001zm-5.121-18.51c.837-.926.837-2.43 0-3.357-.83-.926-2.18-.926-3.015 0l-3.359 3.73c-.834.924-.834 2.428 0 3.354.837.927 2.187.927 3.018 0l3.356-3.727z" fill="#fff"/><path d="M66.485 27.608c0-8.145-5.941-14.751-13.285-14.751-4.332 0-8.181 2.31-10.604 5.877-2.729-1.077-5.341-.998-6.552-.636-2.884-3.188-7.682-5.53-12.534-5.53-9.63 0-17.514 8.264-18.225 18.754C2.127 33.344 0 37.125 0 41.462c0 6.465 4.713 11.7 10.53 11.7h10.015c1.001 0 1.767-1.097 1.767-2.24 0-1.234-.902-2.236-2.014-2.236h-8.856c-3.931 0-6.836-3.16-6.836-7.252 0-3.343 1.909-6.271 4.895-7.272.356-15.79 12.845-16.596 14.234-16.596 4.126 0 8.22 2.246 10.851 5.574 5.327-1.943 12.627 2.618 11.809 11.434 2.08-.936 4.157-.861 4.753-.861 2.984 0 6.588 2.9 6.588 7.657 0 4.04-2.952 7.318-6.588 7.318H40.783c-1.114 0-2.018 1.006-2.018 2.24 0 1.233.904 2.237 2.018 2.237h10.36c5.978 0 10.828-5.384 10.828-12.024 0 0 .006-.91-.226-2.232 2.897-2.707 4.74-6.764 4.74-11.301zm-6.424 6.546c-1.548-2.644-4.347-5.027-9.419-5.027-.82-3.764-2.429-6.332-4.305-8.054 1.657-2.15 4.12-3.507 6.863-3.507 4.995 0 9.045 4.496 9.045 10.042 0 2.502-.822 4.787-2.184 6.546z" fill="#fff"/><path d="M27.85 62.858c-.405.7-7.195 12.142-7.195 12.142s12.333-11.903 12.789-12.341c.764-.745.708-.947.173-2.047-.382-.788-1.665-3.44-1.984-4.078-.372-.727-.425-.71-.045-1.389.373-.678 7.87-14.644 7.87-14.644S27.407 51.995 26.414 52.947c-1.416 1.36-1.394 1.617-.66 3.389.375.905 1.886 4.51 2.176 5.113.301.639.383.61-.078 1.409z" fill="#fff"/></svg>