<svg width="73" height="75" fill="none" xmlns="http://www.w3.org/2000/svg"><path d="M27.874 62.912C27.472 63.613 20.672 75 20.672 75l12.8-12.283c.77-.744.714-.943.177-2.04-.386-.783-1.666-3.427-1.987-4.057-.372-.723-.425-.706-.046-1.385.376-.675 7.88-14.58 7.88-14.58S27.431 52.098 26.438 53.048c-1.413 1.352-1.394 1.61-.658 3.374.376.9 1.886 4.492 2.176 5.089.297.635.38.606-.082 1.4z" fill="#fff"/><path d="M40.826 18.427c-2.026-.463-3.812-.354-4.747-.075-2.889-3.172-7.69-5.505-12.549-5.505-9.638 0-17.526 8.23-18.243 18.672C2.127 33.53 0 37.295 0 41.616c0 6.43 4.72 11.643 10.54 11.643h10.026c.992 0 1.768-1.091 1.768-2.23 0-1.23-.902-2.229-2.014-2.229h-8.866c-3.938 0-6.843-3.147-6.843-7.22 0-3.325 1.911-6.243 4.898-7.24.359-15.718 12.862-16.524 14.248-16.524 4.129 0 8.226 2.239 10.86 5.553 5.333-1.936 12.639 2.604 11.822 11.383 2.08-.932 4.161-.858 4.76-.858 2.985 0 6.593 2.885 6.593 7.62 0 4.023-2.953 7.285-6.592 7.285H40.826c-1.116 0-2.02 1.004-2.02 2.232 0 1.229.904 2.225 2.02 2.225h10.36c5.99 0 10.839-5.36 10.839-11.971 0 0 .011-1.54-.51-3.517 3.984-.828 7.54-3.177 10.133-6.49 3.374-4.277-.472-4.185-1.78-4.412-7.729-1.05-18.167-9.943-14.329-24.02.832-3.02-.748-3.053-1.909-2.686 0 .005-12.053 2.957-12.804 18.267zM50.982 6.243c-1.777 10.142 5.586 22.699 15.874 23.894-1.977 1.667-4.6 2.985-7.284 3.36-1.636-2.275-4.352-4.167-8.881-4.167-1.03-4.677-3.284-7.5-5.753-9.143-.618-7.895 3.83-12.446 6.044-13.944z" fill="#fff"/></svg>