<svg width="79" height="67" fill="none" xmlns="http://www.w3.org/2000/svg"><g clip-path="url(#clip0)" fill="#fff"><path d="M56.393 2.36c0-1.304-.952-2.359-2.13-2.359-1.175 0-2.13 1.055-2.133 2.358l.003 5.245c0 1.307.955 2.363 2.13 2.363 1.178 0 2.13-1.056 2.13-2.363V2.36zM39.769 8.015c-.832-.922-2.182-.922-3.014 0-.832.922-.832 2.418 0 3.34l3.348 3.707c.832.923 2.183.923 3.012 0 .832-.923.832-2.415 0-3.338l-3.346-3.71zm28.95 38.811c.83.923 2.18.923 3.012.001.832-.923.832-2.416 0-3.337l-3.348-3.708c-.832-.924-2.18-.924-3.012 0-.832.921-.832 2.413 0 3.335l3.348 3.709zm8.145-17.023c1.178 0 2.136-1.056 2.136-2.358 0-1.305-.958-2.361-2.136-2.361h-4.733c-1.178 0-2.132 1.056-2.132 2.36 0 1.303.954 2.359 2.132 2.357l4.733.002zm-5.107-18.418c.836-.922.836-2.417 0-3.338-.828-.922-2.176-.922-3.01 0l-3.346 3.71c-.834.92-.834 2.417 0 3.338.833.92 2.18.92 3.011 0l3.345-3.71z"/><path d="M67.511 27.47c0-8.103-5.928-14.677-13.248-14.677-4.325 0-8.164 2.296-10.581 5.847-2.722-1.073-5.328-.993-6.536-.632-2.876-3.172-7.66-5.503-12.501-5.503-9.606 0-17.472 8.222-18.18 18.66-3.15 2.013-5.273 5.774-5.273 10.088 0 6.431 4.705 11.641 10.504 11.641h3.94c.996 0 1.761-1.09 1.761-2.228 0-1.229-.902-2.225-2.01-2.225h-2.782c-3.925 0-6.818-3.147-6.818-7.217 0-3.327 1.904-6.24 4.883-7.235.354-15.712 12.813-16.513 14.198-16.513 4.115 0 8.2 2.233 10.824 5.546 5.313-1.936 12.595 2.605 11.78 11.377 2.073-.931 4.149-.857 4.74-.857 2.974 0 6.575 2.885 6.575 7.62 0 4.02-2.948 7.282-6.574 7.282h-3.966c-1.11 0-2.01 1-2.01 2.23 0 1.226.9 2.224 2.01 2.224h3.96c5.964 0 10.801-5.357 10.801-11.965 0 0 .006-.904-.226-2.219 2.89-2.692 4.73-6.729 4.73-11.244zm-6.408 6.514c-1.544-2.63-4.336-5.001-9.392-5.001-.82-3.746-2.426-6.302-4.297-8.015 1.652-2.14 4.11-3.49 6.849-3.49 4.979 0 9.018 4.471 9.018 9.992 0 2.49-.822 4.764-2.178 6.514z"/><path d="M29.106 51.509l-1.352-.867 1.352-.863c.466-.298.626-.96.358-1.479-.27-.516-.867-.694-1.335-.396l-1.354.866v-1.732c0-.595-.436-1.082-.975-1.082-.54 0-.975.486-.975 1.082v1.733l-1.352-.865c-.466-.298-1.064-.12-1.334.396s-.11 1.178.354 1.479l1.354.863-1.354.866c-.464.3-.626.958-.354 1.48.269.517.865.693 1.334.395l1.353-.868v1.733c0 .599.436 1.083.975 1.083.54 0 .975-.484.975-1.083v-1.73l1.354.865c.466.298 1.064.122 1.335-.396.267-.52.109-1.18-.359-1.48zm12.115 0l-1.354-.867 1.354-.863c.466-.298.626-.96.357-1.479-.27-.516-.867-.694-1.336-.396l-1.35.866v-1.732c0-.595-.44-1.082-.979-1.082-.539 0-.978.486-.978 1.082v1.733l-1.348-.867c-.471-.298-1.063-.12-1.335.396-.271.516-.108 1.178.358 1.48l1.353.862-1.353.867c-.466.299-.628.958-.358 1.479.269.52.864.693 1.332.396l1.351-.868v1.732c0 .599.44 1.084.978 1.084.54 0 .98-.485.98-1.084V52.52l1.349.865c.466.297 1.063.122 1.336-.396.268-.518.11-1.178-.357-1.48zM35.425 63.18l-1.354-.866 1.354-.865c.467-.297.626-.96.36-1.477-.27-.518-.868-.694-1.337-.396l-1.354.866v-1.734c0-.596-.436-1.08-.974-1.08-.54 0-.975.484-.975 1.08v1.734l-1.354-.866c-.466-.3-1.064-.12-1.332.396-.27.514-.112 1.176.354 1.477l1.352.865-1.352.866c-.466.298-.626.958-.354 1.48.268.516.863.693 1.332.394l1.354-.865v1.73c0 .598.436 1.084.975 1.084.538 0 .974-.486.974-1.083v-1.734l1.354.866c.466.298 1.064.122 1.337-.394.269-.52.108-1.182-.36-1.478z"/></g><defs><clipPath id="clip0"><path fill="#fff" d="M0 0h79v67H0z"/></clipPath></defs></svg>