<svg width="73" height="68" fill="none" xmlns="http://www.w3.org/2000/svg"><g clip-path="url(#clip0)" fill="#fff"><path d="M28.009 52.358l-1.356-.874 1.356-.874c.467-.3.629-.969.358-1.495-.27-.522-.869-.7-1.339-.398l-1.357.873v-1.747c0-.604-.437-1.093-.98-1.093-.54 0-.98.489-.98 1.093v1.747l-1.358-.873c-.464-.302-1.066-.124-1.337.398-.27.523-.109 1.191.358 1.495l1.358.874-1.358.874c-.467.3-.627.967-.358 1.493.27.523.87.7 1.337.4l1.359-.876v1.75c0 .605.439 1.093.979 1.093.543 0 .98-.488.98-1.093v-1.747l1.357.872c.468.3 1.07.123 1.339-.4.27-.52.109-1.191-.358-1.492zm12.153 0l-1.355-.874 1.355-.874c.47-.3.63-.969.36-1.495-.27-.524-.87-.7-1.34-.398l-1.355.873v-1.747c0-.604-.441-1.093-.982-1.093-.54 0-.977.489-.977 1.093v1.747l-1.36-.873c-.468-.302-1.067-.124-1.336.398-.27.523-.112 1.191.358 1.495l1.356.874-1.356.874c-.47.3-.629.967-.358 1.493.27.523.866.7 1.336.4l1.36-.876v1.75c0 .605.437 1.093.977 1.093s.982-.488.982-1.093v-1.747l1.356.872c.467.3 1.066.123 1.34-.4.272-.52.11-1.191-.361-1.492zm-5.81 11.787l-1.36-.874 1.36-.874c.467-.3.627-.969.358-1.493-.27-.524-.866-.702-1.339-.4l-1.357.875V59.63c0-.602-.437-1.092-.98-1.092-.54 0-.978.49-.978 1.092v1.75l-1.36-.874c-.464-.302-1.066-.121-1.337.4-.27.52-.11 1.189.358 1.492l1.355.874-1.355.872c-.468.302-.627.97-.358 1.494.27.522.87.7 1.337.4l1.36-.875v1.75c0 .606.437 1.093.978 1.093.543 0 .98-.487.98-1.093v-1.747l1.357.871c.47.3 1.07.123 1.339-.4.268-.52.109-1.191-.358-1.492z"/><path d="M40.825 18.6c-2.026-.47-3.812-.359-4.746-.079-2.89-3.201-7.69-5.555-12.55-5.555-9.634 0-17.525 8.306-18.24 18.848C2.128 33.844 0 37.645 0 42.005 0 48.497 4.72 53.76 10.541 53.76h3.941c.995 0 1.773-1.101 1.773-2.249 0-1.243-.907-2.248-2.016-2.248H11.45c-3.935 0-6.838-3.178-6.838-7.29 0-3.36 1.91-6.305 4.9-7.307.354-15.87 12.857-16.682 14.243-16.682 4.132 0 8.23 2.26 10.867 5.603 5.33-1.953 12.634 2.63 11.82 11.491 2.08-.941 4.162-.866 4.759-.866 2.983 0 6.59 2.912 6.59 7.692 0 4.061-2.952 7.357-6.59 7.357h-3.983c-1.114 0-2.015 1.01-2.015 2.25s.901 2.246 2.015 2.246h3.972c5.984 0 10.838-5.407 10.838-12.084 0 0 .009-1.556-.512-3.547 3.983-.84 7.54-3.21 10.133-6.553 3.374-4.318-.476-4.227-1.78-4.456C62.144 26.056 51.703 17.08 55.54 2.87c.831-3.05-.748-3.083-1.909-2.713C53.63.162 41.576 3.143 40.825 18.6zM50.978 6.297c-1.774 10.241 5.59 22.915 15.877 24.122-1.977 1.681-4.6 3.011-7.284 3.391-1.636-2.298-4.352-4.206-8.881-4.206-1.03-4.721-3.28-7.573-5.753-9.232-.618-7.968 3.83-12.563 6.04-14.075z"/></g><defs><clipPath id="clip0"><path fill="#fff" d="M0 0h73v68H0z"/></clipPath></defs></svg>