<svg width="62" height="73" fill="none" xmlns="http://www.w3.org/2000/svg"><path d="M15.262 64.765c1.18 0 2.143-1.059 2.143-2.367 0-1.307-.962-2.366-2.143-2.366H7.327c-1.183 0-2.145 1.059-2.145 2.366 0 1.308.962 2.367 2.145 2.367h7.935zm15.928 0c1.183 0 2.142-1.059 2.142-2.367 0-1.307-.96-2.366-2.143-2.366h-7.934c-1.184 0-2.146 1.059-2.146 2.366 0 1.308.962 2.367 2.145 2.367h7.935zm15.928 0c1.182 0 2.142-1.059 2.142-2.367 0-1.307-.96-2.366-2.142-2.366h-7.935c-1.183 0-2.142 1.059-2.142 2.366 0 1.308.959 2.367 2.142 2.367h7.935zM23.197 73c1.184 0 2.143-1.059 2.143-2.365 0-1.306-.96-2.365-2.143-2.365h-7.935c-1.186 0-2.145 1.059-2.145 2.365 0 1.306.96 2.365 2.145 2.365h7.935zm15.93 0c1.18 0 2.142-1.059 2.142-2.365-.003-1.306-.962-2.365-2.142-2.365H31.19c-1.187 0-2.143 1.059-2.143 2.365 0 1.306.956 2.365 2.143 2.365h7.937zm15.925 0c1.183 0 2.145-1.059 2.145-2.365 0-1.306-.962-2.365-2.145-2.365h-7.934c-1.183 0-2.142 1.059-2.142 2.365 0 1.306.959 2.365 2.142 2.365h7.934zM51.17 55.359c5.98 0 10.83-5.35 10.83-11.956 0 0 .053-11.94-11.334-11.94-2.463-11.19-11.942-11.758-14.603-10.967C33.18 17.327 28.375 15 23.517 15 13.891 15 6 23.22 5.291 33.648 2.128 35.655 0 39.416 0 43.728c0 6.426 4.718 11.63 10.539 11.63h40.63zm-39.722-4.453c-3.935 0-6.84-3.144-6.84-7.211 0-3.323 1.914-6.236 4.901-7.23.353-15.7 12.85-16.502 14.238-16.502 4.126 0 8.222 2.235 10.86 5.543 5.328-1.932 12.632 2.602 11.816 11.37 2.078-.931 4.16-.86 4.757-.86 2.981 0 6.59 2.885 6.59 7.612 0 4.019-2.955 7.276-6.59 7.276l-39.732.002z" fill="#fff"/></svg>